<svg xmlns="http://www.w3.org/2000/svg" width="512" height="512" viewBox="0 0 512 512"><path opacity=".8" fill="#46B3E3" d="M481.783 239.22l-1.41-2.456c-.776 1.168-1.373 1.986-1.373 1.986s1.075.322 2.783.47zm-28.83 25.122c-14.89-3.688-25.75-4.51-39.55-5.294-13.8-.737-21.175 6.045-24.936 9.56-3.77 3.417-6.52 6.607-11.13 8.336-4.507 1.773-6.765 4.028-7.276 6.54-.572 2.61 3.78 5.448 5.025 14.146 1.263 8.508 6.354 27.924 8.862 32.107 2.51 4.338.426 19.5 0 26.365-.495 6.76-18.15 9.955-20.153 9.188-2.1-.646-3.84 0-4.52 1.004-.758 1.084-7.36 1.582-6.866 0 .495-1.414-1.502-1.65-3.505-1.414-2.012.237-4.776-.412-4.776-2.356 0-1.675-1.507-.993-3.024-1.398-1.486-.602 1.027-6.625 3.45-6.625 2.595 0 3.005-3.18 6.115-3.18 3.004 0 5.257-1.755 8.846-7.1 3.447-5.364-.995-14.14-5.005-24.253-4.097-9.967-12.874-17.154-15.403-20.936-2.51-3.755-2.253-8.767-4.08-8.767-1.78 0-2.188 2.016-2.188 3.518 0 1.495-2.084 4.76-3.176 10.615-.92 5.77-.682 9.784.58 16.892 1.263 7.017 3.516 14.31 2.765 16.917-.75 2.413-1.998 6.765-2.254 12.28-.27 5.62-3.515 6.867-5.858 6.867-2.184 0-10.96 1.93-13.81 1.93-2.754 0-9.858 1.01-11.85-.75-1.935-1.743-3.452 2.597-4.768 2.597-1.264 0-3.76-1.03-1.78-4.34 2.104-3.278 9.38-6.304 13.63-8.06 4.27-1.76 3.264-4.78 4.52-13.628 1.337-8.778-2.013-13.388-5.272-20.56-3.328-7.38-7.003-15.66-7.003-17.18 0-1.506-3.105 0-5.358.51-2.253.43-14.805 1.523-19.57.17-4.853-1.16-20.426.26-20.426.26s-.34.73-.99 3.086c-.853 2.258-6.78 24.936-10.62 32.035-3.77 7.04-9.87 22.1-10.043 25.35-.338 3.36-8.36 6.11-11.13 6.11-2.768 0-3.52 4.345-9.29 4.345-5.857 0 .512-4.58-.75-5.678-1.246-1.022-4.853 2.338-7.616 2.512-2.77.235-4.766-1.18-3.757-2.513.987-1.265 0-1.67-1.01-1.67-.99 0-1.758-1.59-.256-3.62 1.486-1.916 3.86-3.506 6.626-3.756 2.662-.175 6.764-6.867 10.28-10.555 3.52-3.755 4.248-10.862 4.51-14.838.27-4.05 3.107-17.917 5.294-19.35 2.32-1.604-.757-3.62-2.035-5.363-1.246-1.744-3.755-4.372-7.017-6.096-3.262-1.693-4.013-4.005-5.858-4.005-1.67 0-1.502 5.32-4.014 15.14-2.507 9.853-18.165 19.21-23.155 22.66-5.036 3.503-5.036 6.522-5.787 9.867-.75 3.263-1.69 3.76-8.523 8.52-6.86 4.87-7.03 12.653-10.38 12.792-3.26.27-1.262-3.755-2.75-4.506-1.503-.668-3.244 7.115-6.267 5.124-3.004-2.016 1.997-12.4 1.997-12.4s0-6.847 1.42-7.275c1.587-.58 5.36-8.78 6.35-11.562.99-2.916 11.716-16.886 14.38-18.476 2.766-1.414 6.627-11.797 6.115-13.132-.58-1.163-1.33-6.926-1.59-10.955-.257-3.997-5.346-5.103-10.896-7.598-5.41-2.51-20.286-10.878-28.072-15.216-7.854-4.202-13.884-4.782-24.765-4.782-10.79 0-20.404 5.93-26.178 5.93-5.77 0-12.144-3.33-14.156-6.1-1.912-2.834-1.228-12.397.514-18.133 1.846-5.805 5.856-12.57 6.01-14.31.256-1.844 3.364-6.626 5.875-6.626 2.51 0 4.51-10.1 6.866-10.1 2.15 0 4.44 1.828 6.266 2.9h.26c4.334-4.08 10.038-11.202 10.038-11.202l.75 12.57c2.664.07 5.774.154 8.267.48l19.928-6.52-4.114 8.79c-.255.725-.65 1.58-.99 2.075l-.682 1.246c.513.103 2.1.275 4.698.58l7.7-5.25v7.027c2.664 1.092 5.514 2.427 9.273 3.004.667.09 1.48 0 2.323-.24l2.354-8.783s1.416 3.1 3.262 6.177c4.252-2.58 8.28-6.26 8.28-6.26s-.6-1.982 3.417-6.012c0-.103.1-.103.17-.103 2.852-6.676 5.363-12.532 5.363-12.532l2.647 7.427c1.79-.832 3.462-1.31 5.038-1.652l9.203-22.593 4.268 14.974c3.93-3.006 8.69-6.454 14.398-9.46l12.21-12.943 1.843 7.342c3.176-1.16 6.522-2.237 9.955-3.348l13.386-10.553 4.75 5.876c4.44-.905 9.392-1.675 15.08-2.596l16.646-7.96 1.743 5.773c2.36-.24 4.883-.58 7.546-.82 1.74-.084 3.52-.17 5.347-.273l18.972-7.512 5.617 7.376c6.183.41 11.695 1.077 16.632 1.913l8.606-5.602 1.348 7.467c10.71 2.32 17.555 4.9 20.255 5.24 6.028.75 13.048-2 13.048-.24 0 1.746-9.79 7.788-9.79 7.788s2.255-.27 11.38.754c9.03 1.025 11.1 2.83 13.553 2.83 2.497 0 4.34-6.367 8.11-5.597 3.76.855-.255 10.38-.255 10.38s2.258-.852 7.786-2.608c5.605-1.76 13.136-5.193 14.558-1.183 1.566 3.93-6.955 17.08-6.955 17.08s1.693-2.19 5.277-2.77c3.515-.41 4.526-6.353 6.934-4.747 2.61 1.502 1.092 12.124 1.092 12.124s2.013 0 6.284-1.843c4.22-1.76 12.36-3.178 15.115-.174 2.764 3.007-7.516 12.8-7.516 12.8h2.92c3.088 0 8.62-3.85 11.886-2.68 3.33.835-.75 5.173-.41 6.763.077.785 3.968.606 7.914.47l-102.27-178-.25.184H138.586L21.126 255l117.46 204.5H373.41l107.83-187.938c-10.74-2.578-21.413-5.475-28.286-7.22z"/><path fill="#fff" d="M382.38 36.5H129.618L3.238 256l126.38 219.5H382.38L508.765 256 382.38 36.5zm-243.794 423L21.126 255l117.46-204.5H373l.25-.186 102.27 178.004c-3.946.138-7.837.317-7.914-.47-.34-1.59 3.74-5.927.41-6.763-3.265-1.17-8.798 2.682-11.887 2.682h-2.92s10.28-9.794 7.513-12.8c-2.754-3.005-10.896-1.588-15.115.172-4.27 1.84-6.285 1.84-6.285 1.84s1.518-10.62-1.092-12.124c-2.406-1.606-3.42 4.338-6.934 4.748-3.585.58-5.278 2.767-5.278 2.767s8.52-13.15 6.955-17.08c-1.422-4.01-8.953-.577-14.556 1.184-5.528 1.757-7.786 2.61-7.786 2.61s4.017-9.526.257-10.38c-3.77-.772-5.613 5.596-8.11 5.596-2.456 0-4.522-1.804-13.555-2.83-9.124-1.024-11.377-.753-11.377-.753s9.79-6.042 9.79-7.786c0-1.76-7.02.99-13.05.24-2.7-.34-9.543-2.92-20.254-5.24l-1.347-7.466-8.606 5.603c-4.937-.836-10.45-1.502-16.633-1.912l-5.618-7.376-18.974 7.51c-1.826.104-3.605.19-5.347.274-2.664.24-5.19.58-7.548.82l-1.742-5.773-16.645 7.96c-5.688.92-10.642 1.69-15.08 2.597l-4.75-5.877-13.386 10.554c-3.435 1.11-6.78 2.186-9.958 3.347l-1.843-7.34-12.21 12.94c-5.708 3.01-10.47 6.457-14.4 9.46l-4.266-14.97-9.203 22.59c-1.575.34-3.247.82-5.037 1.654l-2.646-7.427s-2.51 5.856-5.362 12.532c-.07 0-.17 0-.17.103-4.017 4.03-3.417 6.01-3.417 6.01s-4.03 3.68-8.28 6.262c-1.847-3.076-3.263-6.176-3.263-6.176l-2.354 8.784c-.843.24-1.657.327-2.323.24-3.76-.578-6.61-1.913-9.272-3.005v-7.028l-7.7 5.253c-2.6-.307-4.187-.48-4.698-.58l.682-1.247c.34-.495.734-1.35.99-2.074l4.113-8.793-19.927 6.52c-2.492-.323-5.603-.41-8.266-.48l-.75-12.566s-5.704 7.123-10.04 11.203h-.258c-1.824-1.073-4.114-2.902-6.266-2.902-2.356 0-4.356 10.1-6.865 10.1-2.51 0-5.617 4.783-5.872 6.63-.153 1.738-4.164 8.502-6.01 14.31-1.74 5.736-2.426 15.3-.514 18.132 2.013 2.77 8.386 6.1 14.156 6.1 5.772 0 15.386-5.93 26.176-5.93 10.88 0 16.91.58 24.766 4.783 7.787 4.337 22.663 12.704 28.073 15.215 5.55 2.495 10.64 3.6 10.895 7.598.26 4.03 1.01 9.792 1.59 10.955.512 1.334-3.35 11.717-6.114 13.13-2.665 1.59-13.39 15.56-14.38 18.477-.99 2.782-4.764 10.98-6.352 11.562-1.42.428-1.42 7.274-1.42 7.274s-5 10.387-1.996 12.4c3.022 1.994 4.764-5.79 6.266-5.12 1.49.75-.51 4.777 2.75 4.506 3.352-.14 3.522-7.922 10.38-12.793 6.835-4.762 7.774-5.257 8.525-8.52.75-3.346.75-6.365 5.787-9.867 4.99-3.45 20.648-12.81 23.156-22.662 2.512-9.818 2.344-15.14 4.014-15.14 1.846 0 2.597 2.313 5.858 4.006 3.262 1.724 5.77 4.352 7.017 6.096 1.278 1.744 4.356 3.76 2.035 5.363-2.187 1.43-5.022 15.3-5.294 19.35-.26 3.974-.99 11.08-4.51 14.836-3.516 3.688-7.617 10.38-10.28 10.556-2.764.25-5.14 1.84-6.625 3.755-1.502 2.03-.735 3.62.256 3.62 1.01 0 1.998.405 1.01 1.67-1.01 1.334.988 2.748 3.758 2.512 2.764-.175 6.37-3.535 7.616-2.513 1.262 1.098-5.107 5.678.75 5.678 5.772 0 6.522-4.344 9.29-4.344 2.77 0 10.792-2.75 11.13-6.11.174-3.25 6.27-18.31 10.045-25.35 3.84-7.1 9.764-29.776 10.62-32.034.65-2.357.99-3.088.99-3.088s15.572-1.42 20.424-.26c4.767 1.354 17.318.26 19.57-.17 2.254-.51 5.36-2.016 5.36-.51 0 1.52 3.674 9.8 7.002 17.18 3.26 7.172 6.61 11.78 5.272 20.56-1.26 8.846-.25 11.87-4.523 13.63-4.25 1.753-11.525 4.78-13.63 8.057-1.98 3.31.517 4.34 1.78 4.34 1.314 0 2.832-4.34 4.766-2.6 1.992 1.76 9.097.752 11.85.752 2.85 0 11.627-1.93 13.81-1.93 2.345 0 5.588-1.246 5.86-6.867.255-5.515 1.5-9.866 2.252-12.28.75-2.605-1.502-9.9-2.764-16.916-1.262-7.107-1.5-11.12-.58-16.892 1.092-5.854 3.175-9.12 3.175-10.614 0-1.5.41-3.517 2.187-3.517 1.827 0 1.57 5.013 4.08 8.768 2.53 3.78 11.307 10.97 15.402 20.936 4.01 10.113 8.45 18.888 5.005 24.25-3.588 5.348-5.84 7.105-8.845 7.105-3.11 0-3.52 3.18-6.114 3.18-2.423 0-4.937 6.023-3.45 6.625 1.518.405 3.024-.276 3.024 1.398 0 1.944 2.765 2.594 4.777 2.356 2.004-.237 4 0 3.506 1.413-.494 1.582 6.11 1.084 6.866 0 .682-1.004 2.423-1.65 4.52-1.004 2.004.767 19.66-2.43 20.154-9.19.427-6.863 2.51-22.026 0-26.364-2.51-4.183-7.6-23.6-8.86-32.106-1.247-8.696-5.6-11.535-5.023-14.145.514-2.512 2.77-4.767 7.277-6.54 4.612-1.73 7.36-4.92 11.13-8.336 3.762-3.517 11.138-10.3 24.938-9.56 13.8.78 24.66 1.604 39.55 5.292 6.874 1.745 17.546 4.643 28.287 7.22L373.41 459.5H138.587zm343.197-220.28c-1.708-.148-2.783-.47-2.783-.47s.597-.817 1.372-1.986l1.41 2.456z"/></svg>