<svg xmlns="http://www.w3.org/2000/svg" width="512" height="512" viewBox="0 0 512 512"><path opacity=".8" fill="#46B3E3" d="M373.25 50.314l-.25.186H138.586L21.126 255l96.24 167.557c2.75-5.376 6.986-11.82 7.638-14.26 1.126-3.93 5.068-36.35 6.792-41.014 1.815-4.62 1.815-8.47 1.815-14.136 0-5.724 2.5-18.903 3.177-27.434.74-8.525-4.604-14.256-6.42-23.458-1.805-9.274 2.2-21.71 3.924-24.976 1.82-3.126 3.913-15.98 3.913-15.98s-22.018-28.05-28.42-54.44c-6.42-26.327 1.724-45.57 14.933-67.895 13.118-22.476 47.666-36.732 63.645-43.137 16.074-6.406 31.01-9.61 37.413-13.887 6.417-4.217 11.76-3.156 14.177.77 2.494 3.82 3.25 4.88 8.223 6.71 4.97 1.788 6.42 5.713 5.354 8.964-1.06 3.17-16.733 1.046-17.04 2.494-.37 1.355 13.13-.77 10.34 4.217-2.89 4.99-6.11 4.99-16.07 3.85-9.978-.986-19.922 3.602-19.922 3.602-7.836 1.446-45.567 16.38-54.07 28.51-15.61 22.063-16.057 32.363-5.74 55.52 10.33 23.09 37.72 19.24 52.36 19.92 14.562.677 25.557 11.01 31.65 11.3 6.07.385 20.215 11.023 25.59 13.96 5.418 2.865 16.072 14.95 22.094 18.554 6.03 3.48 9.956 9.9 14.945 12.67 4.955 2.94 18.087 17.413 18.087 17.413 18.923 15.764 35.98 44.97 58.09 55.302 14.318 6.714 21.323 1.723 21.323 1.723 7.467-2.863-1.805-15.302-12.81-21.34-11.087-6.126-15.995 1.05-17.814-.37-2.26-1.814 8.528-4.31 8.528-4.31 4.62-.602 31.01 7.855 31.38 21.738.367 17.86-11.767 24.142-30.99 24.142-19.26 0-49.48-12.01-56.948-14.136-7.467-2.185-14.938 6.715-14.938 6.715s.293 3.266.293 7.854v29.1c0 14.653 2.573 11.1 2.88 15.395.433 4.307 1.725 10.035 1.432 14.19-.385 4.22-2.498 3.236-11.41 3.236-8.9 0-15.302-1.433-15.302-1.433s-5.346 1.8-5.346 0c0-1.803 7.533-9.283 9.286-13.884 1.724-4.67-2.88-21.633-4.62-26.7-1.814-4.968-5.73-27.757-5.73-27.757s-1.06 1.45-4.22 3.635c-3.245 2.126-8.526 1.74-8.526 1.74s3.846 6.11 7.85 15.318c3.837 9.205 5.282 3.14 11.688 18.844 6.42 15.612-3.558 23.153-7.85 25.938-4.293 2.866-12.053.693-12.053.693s-5.358 1.868-7.485 0c-2.17-1.72 7.85-11.02 7.85-19.845 0-8.91-13.87-21.025-23.83-32.036-9.944-11.02-12.81-16.397-13.195-19.244-.383-2.8-5.742-.31-5.742-.31s-1.354 2.804-6.713 8.068c-5.358 5.435-17.117 7.18-17.117 7.18-5.575 1.354-.293 4.953-2.85 11.744-.768 2.108 1.957 4.663 1.126 7.868-3.25 12.808-15.613 11.3-18.94 9.943-3.17-1.43-3.542-.31-5.665-1.43-2.123-1.154-.74-4.604 1.815-7.562 2.497-2.787 2.11-13.792 2.11-19.52 0-5.647 13.5-17.06 15.997-19.923 2.492-2.77 1.8-3.897-.37-4.573-2.127-.69-16.013-7.867-16.013-7.867s-2.773 0-6.018 3.28c-3.174 3.126-7.1 22-7.472 27.727-.366 5.65-3.922 21.34-11.388 30.548-7.466 9.268-1.45 11.683-4.297 16.073-2.877 4.122 0 12.822-3.17 15.303-3.25 2.48-8.513.68-11.38.68-.973 0-2.524.164-4.2.245l15.58 27.124h234.83l117.386-204.6L373.25 50.316z"/><path fill="#fff" d="M382.38 36.5H129.618L3.238 256l126.38 219.5H382.38L508.765 256 382.38 36.5zm-243.794 423l-15.58-27.123c1.675-.08 3.227-.246 4.2-.246 2.867 0 8.13 1.804 11.38-.674 3.17-2.48.293-11.18 3.17-15.303 2.846-4.39-3.17-6.805 4.296-16.072 7.466-9.21 11.022-24.897 11.39-30.547.37-5.726 4.297-24.6 7.47-27.727 3.247-3.28 6.017-3.28 6.017-3.28s13.883 7.177 16.01 7.868c2.17.678 2.862 1.804.37 4.572-2.497 2.86-15.997 14.275-15.997 19.924 0 5.726.386 16.73-2.11 19.52-2.555 2.956-3.938 6.406-1.815 7.56 2.12 1.12 2.496 0 5.665 1.43 3.325 1.357 15.687 2.865 18.938-9.942.83-3.205-1.893-5.76-1.125-7.868 2.557-6.79-2.725-10.39 2.85-11.744 0 0 11.76-1.745 17.117-7.18 5.36-5.264 6.713-8.067 6.713-8.067s5.358-2.49 5.743.31c.385 2.845 3.25 8.22 13.196 19.242 9.958 11.01 23.83 23.127 23.83 32.036 0 8.824-10.02 18.123-7.85 19.844 2.127 1.87 7.484 0 7.484 0s7.76 2.174 12.052-.692c4.293-2.785 14.27-10.326 7.85-25.938-6.404-15.703-7.85-9.64-11.686-18.844-4.005-9.21-7.85-15.316-7.85-15.316s5.28.384 8.526-1.74c3.16-2.188 4.22-3.636 4.22-3.636s3.914 22.79 5.73 27.756c1.738 5.068 6.343 22.032 4.62 26.7-1.754 4.602-9.288 12.082-9.288 13.885 0 1.8 5.345 0 5.345 0s6.4 1.433 15.3 1.433c8.91 0 11.025.983 11.41-3.237.292-4.155-1-9.884-1.43-14.19-.31-4.298-2.883-.742-2.883-15.397v-29.1c0-4.587-.293-7.853-.293-7.853s7.47-8.9 14.94-6.715c7.466 2.126 37.687 14.135 56.946 14.135 19.224 0 31.357-6.28 30.99-24.142-.37-13.883-26.76-22.34-31.38-21.736 0 0-10.79 2.494-8.528 4.31 1.82 1.42 6.728-5.757 17.813.37 11.007 6.037 20.278 18.476 12.81 21.34 0 0-7.003 4.99-21.32-1.724-22.11-10.333-39.168-39.538-58.09-55.302 0 0-13.133-14.473-18.088-17.41-4.99-2.772-8.917-9.193-14.947-12.672-6.02-3.604-16.677-15.69-22.094-18.553-5.375-2.938-19.52-13.577-25.59-13.963-6.093-.29-17.09-10.62-31.65-11.298-14.642-.68-42.03 3.17-52.36-19.922-10.316-23.155-9.87-33.455 5.74-55.518 8.503-12.13 46.234-27.064 54.07-28.512 0 0 9.944-4.588 19.92-3.6 9.96 1.137 13.183 1.137 16.073-3.852 2.79-4.986-10.713-2.862-10.343-4.216.307-1.448 15.98.677 17.04-2.494 1.067-3.25-.384-7.176-5.353-8.962-4.975-1.83-5.73-2.893-8.225-6.71-2.417-3.928-7.76-4.99-14.178-.77-6.404 4.277-21.34 7.48-37.413 13.885-15.98 6.406-50.526 20.66-63.644 43.138-13.21 22.325-21.353 41.567-14.933 67.895 6.402 26.39 28.42 54.438 28.42 54.438s-2.094 12.857-3.914 15.98c-1.726 3.265-5.73 15.7-3.925 24.976 1.815 9.202 7.16 14.933 6.42 23.458-.678 8.53-3.175 21.71-3.175 27.434 0 5.666 0 9.517-1.814 14.136-1.724 4.665-5.666 37.085-6.792 41.013-.65 2.44-4.89 8.885-7.636 14.26L21.124 255l117.46-204.5H373l.25-.186 117.546 204.593L373.41 459.5H138.587z"/></svg>