<svg xmlns="http://www.w3.org/2000/svg" width="512" height="512" viewBox="0 0 512 512"><style>.st0{fill:#fff}.st1{opacity:.8;fill:#46b3e3}</style><path class="st1" d="M375 48.5l-.3.2H137L17.8 256.1 137 463.5h238.2l35.2-61.3 6.5-11.3L494.2 256 375 48.5z"/><path class="st0" d="M382.4 36.5H129.6L3.2 256l126.4 219.5h252.8l111.1-193 4.6-8 10.7-18.5L382.4 36.5zm100.1 231.2c-11.9-3.8-23.9-4.7-32.6-4.9-22.6-.5-34.9-11.1-52.4-28.3-17.5-17.1-46.2-43.4-66.2-51.5-20.1-8.1-33.5-1.5-50.9 1.5s-47.7-37.4-56.5-43.9c-8.7-6.6-31.3-7.1-35.9-6.6-4.7.5-15.4 2-18 2.5-2.5.5-10.8-5.5-13.3-5.5-2.6 0-3.1 6.5-3.1 6.5s-15.9 6.1-24.1 5.6c-8.2-.5-20.5-2.5-26.2 1.5-5.6 4.1-1 10.6-1 10.6 0 5 7.7 4.1 22.6 5 14.9 1 30.3 3 30.3 3 10.8 3 30.8 1 30.8 1s5.1 1 19.5 3.5 23.6 16.1 37 30.3c13.3 14.1 25.1 18.7 25.1 18.7-2 10.6 3.1 26.7 3.1 26.7-4.6 4-3.1 20.7-3.1 20.7-6.1 3.1-4.6 17.7-4.6 17.7-4.1 2-3.6 5.6-3.6 5.6-5.1.5-2.6 9.6-2.6 9.6-5.6 3 2.1 9.6 2.1 9.6l2.6-2.5 5.1 3.5-2-7.6 2.6-1.5c2.5 4.5 5.2 2.5 5.2 2.5s-2.7-2.5-2.2-6.6c.5-4 4.7-18.1 4.7-21.2 0-3 12.3-13.6 12.3-13.6-13.3 16.1-9.7 24.2-10.3 32.8-.5 8.6 7.2 26.2 6.7 32.3-.5 6-.5 9.1-.5 12.6 0 3.6-14.4 7.6-18 10.6-3.5 3-2 14.6-2 14.6-10.8 7-6.6 15.1-6.6 15.1-.6-1.5 6.6-4.5 6.6-4.5 2.5 0 7.2-3 7.2-3 0 5.5 2.6 7.1 2.6 7.1s1-6.1 4.1-8.1c3.1-2 6.7-8.1 8.2-10.1 1.5-2 18.5-21.7 19.5-27.8 1-6-4.1-13.6-4.1-13.6 1.5-5 3.6-25.8 3.6-31.3s4.6-13.6 4.6-13.6l16.9 14.1s-1.5 0 10.2 1.6c11.8 1.5 23.1-10.1 23.1-10.1-5.1 9.1-1.5 25.2.5 32.3 2.1 7.1 4.1 14.2 4.1 16.7s-3 8.6-1 13.6c2.1 5 .5 7.5 0 11.1-.5 3.6 4.1 6.1 4.1 9.6 0 3.6-7.2 9.1-7.2 9.1-8.2 3-8.7 10.1-8.7 10.1 1.5.5 12.8-5.6 13.4-7.6.5-2 5.6 3 7.7 5 2 2 7.2 0 9.8-2.5 2.6-2.5 5.6 0 7.7 3 2.1 3 5.6-1.5 6.7-6.1 1.1-4.6-5.7-17.1-5.7-23.2 0-6.1 1.1-9.6-1-14.1-2-4.5 0-4-.5-6.5-.5-2.6-4.1-7.1-5.6-13.1-1.5-6.1 2.6-16.1 2.6-22.2 0-6-7.2-18.7-7.2-18.7 5.7-3 28.8 7.1 51.8 10.1 17.2 2.2 30.9-3.3 44.8-4.4L413 388.9l-6.4 11.2-34.7 60.5H137L19.6 256.1 137 51.6h234.4l.3-.2L489.2 256l-6.7 11.7z"/></svg>