<svg xmlns="http://www.w3.org/2000/svg" width="512" height="512" viewBox="0 0 512 512"><style>.st0{fill:#fff}.st1{opacity:.8;fill:#46b3e3}</style><path class="st1" d="M375 48.5l-.3.2H137L17.8 256.1 137 463.5h238.2l35.2-61.3 6.5-11.3L494.2 256 375 48.5z"/><path class="st0" d="M382.4 36.5H129.6L3.2 256l126.4 219.5h252.8L508.8 256 382.4 36.5zm-243.8 423l-9.6-16.7c1.1-.3 2.1-.6 3.1-1 4.3-1.9 3-14.2 3-18.7 0-4.4 59.6-73.2 72-86.2 12.7-13.2 14.6-11.1 47-36 .9 1 1.4 1.8 1.4 1.8-3.4 3.9 2.3 9.2 8 16.7 5.8 7.5 12 9.7 12 19.5 0 9.7-13.2 25.3-17.7 27.6-4.6 2.3-6.8 5.7-7.4 7.5-.6 1.7 4 9.7 4.6 14.3.6 4.6-3.4 12-3.4 12l2.2 4.6s7.5-12.6 7-15.5c-.6-2.9-5.3-15.4-5.3-15.4s43.6-35.1 47.7-40.3c4-5.1-1.1-25.9-1.1-25.9 5.1-5.1 13.2-18.3 13.2-18.3 9.2-.6 21.9-15.6 21.9-15.6s13.8 13.2 19 20.1c5.1 6.9 11.5 18.4 11.5 18.4l12 5.2s-4.6-4.6-6.3-9.8c-1.8-5.1-20.1-40.6-20.1-40.6 4.5-1.2 27 17.1 27 17.1s6.2 6.8 12.6 9.2c6.4 2.3 5.8 4.7 5.8 4.7 3.4-8.6-6.9-38.6-6.9-38.6 27.3-4.7 61.3-21.9 82.4-33.7l16.7 29.1-117.5 204.5H138.6zM373.3 50.3L472 222.2c-28.7 15.3-84.9 31.6-84.9 31.6-16.1-23-38.5-25.2-38.5-25.2-18.4-11-32.3 5.2-35.1 7.4-2.8 2.3-10.3 15.6-14.9 15.6-4.5 0-29.3-13.3-29.3-13.3s-9.8-40.2-13.2-43c-3.5-2.9-15-25.3-16.2-28.2-1.2-3-2.9-4.6-5.2-5.8-2.4-1.1-23.5-32.1-37.9-54.1-10.8-16.3-34.7-43.8-46.1-56.7H373l.3-.2zm-226.5.2c6.3 15.8 23.9 54.7 34.5 78.6 13.2 29.8 45.4 98.8 48.3 106.4 2.7 7.3 21.8 18.9 23.4 28.1 1.8 9.2-10.9 17.2-10.9 17.2s-4 1.8-12 5.2c-8.1 3.5-37.4 17.8-39.7 19-2.3 1-35.7 12.6-39.7 14.4-4 1.8-22.4-2.4-22.4-2.4l2.9 5.2 2.4 4 1.6 2.4c1.8 2.3 5.2 2.3 5.2 2.3s9.1-5.8 36.3-15c19-6.4 44.6-12.4 59.4-15.5-22.5 18.4-62.8 60.7-70.8 72.6-9.4 13.7-37.5 48.8-37.5 48.8s-3.7 2-8.4 4.8L21.1 255 138.6 50.5h8.2z"/></svg>