<svg xmlns="http://www.w3.org/2000/svg" width="512" height="512" viewBox="0 0 512 512"><path d="M138.624 51.593h234.414l.25-.186 117.354 204.25.36-.625L373.66 50.565l.158-.065H138.586L29.71 239.46c.223.142.458.332.696.54L138.624 51.593zM26.756 246.353c.012-.246.036-.477.04-.735.01-.575.02-1.09.037-1.57l-5.708 9.93.627 1.09 5.004-8.714z" fill="none"/><path opacity=".8" d="M373.29 51.407l-.252.186H138.624L30.406 240c1.15 1.004 2.454 2.685 3.62 4.39 1.878 2.75 3.472 6.44 4.773 8.173 1.305 1.737 2.1 2.24 3.616 1.737 1.522-.505 1.88-3.034 1.66-5.567-.216-2.537-.576-4.848-1.444-6.66-.868-1.807-.65-3.25.438-3.977 1.09-.727 2.46-.07 4.413 2.97 1.955 3.036 4.705 8.095 7.74 6.51 3.04-1.595.87-4.634 0-6.587-.865-1.956-3.254-6.656-3.834-7.964-.58-1.297-1.52-2.6-.287-3.396 1.228-.792 3.256.218 5.277 2.894 2.03 2.676 3.767 4.705 5.14 4.412 1.37-.283 1.59-.716 3.904-4.482 2.32-3.762 2.97-4.916 2.537-8.823-.434-3.905-1.74-5.864-2.68-8.464-.94-2.61-1.81-4.053.145-5.502 1.955-1.444 4.633-.792 6.586.943 1.956 1.737 4.488 5.86 6.225 4.918 1.737-.94 2.39-2.746 2.603-4.19.217-1.453-.575-3.988-3.33-8.323-2.746-4.345-4.847-7.38-3.54-8.97 1.303-1.596 5.424.436 7.596 1.878 2.172 1.45 6.8 6.077 8.608 4.992 1.81-1.085 2.233-2.356.58-5.062-2.82-4.635-.6-3.12-3.546-7.38-2.098-3.04-3.76-5.21-2.604-6.442 1.16-1.23 3.544.22 6.37 2.605 2.818 2.384 4.408 2.1 5.277 1.09.866-1.02-.073-2.967-2.1-5.14-2.03-2.17-.583-3.834-4.052-7.812-3.48-3.977-8.178-6.945-5.428-10.417 2.745-3.474 8.247.07 10.416 1.155 2.17 1.086 9.756 6.355 13.24 2.46 2.46-2.748.838-4.737 0-5.646-1.878-2.024-2.46-6.148-2.89-9.55-.438-3.397-3.043-6.007-5.502-7.956-2.46-1.953-5.354-3.402-3.33-6.077 2.028-2.677 6.077-2.97 10.563-1.304 4.483 1.666 7.74 6.512 13.384 6.805 5.648.288 7.748 1.444 9.91 1.515 2.17.076 4.274-1.08 5.21-3.034.94-1.952.22-4.2-2.89-5.284-3.11-1.085-3.48-3.185-2.825-4.775.657-1.59-1.082-3.613-4.48-5.57-3.397-1.95-12.444-4.414-5.497-8.538 6.938-4.122 8.32-4.486 11.062-3.254 2.753 1.232 7.816 5.14 9.336 6.37 1.52 1.228 3.256 2.888 4.708 3.323 1.442.438 3.83 1.378 5.206 2.17 1.372.797 2.462 1.09 3.98.15 1.516-.943 1.012-3.473 0-4.416-1.01-.94-2.783-1.65-2.39-6.8.29-3.766-2.75-6.966-4.702-8.248-3.617-2.388-6.08-5.138-3.472-7.884 2.602-2.745 4.338-.292 5.57.727 1.23 1.01 2.892 2.31 6.652 2.816 3.767.505 6.3 1.302 8.037 2.746 1.735 1.452 4.485 3.19 7.09 1.958 2.604-1.232 2.315-1.38 4.052-1.303 1.736.07 4.407-.797 7.162-2.675 2.742-1.883 6.075-3.403 10.7-3.907 4.633-.51 8.53.515 11.496-1.626 2.967-2.137 6.508-3.878 9.695-4.747 3.183-.865 5.35-.79 6.8-.65 1.45.148 3.474.986 4.847-.085 1.38-1.07 2.46-1.362 3.62-1.362 1.155 0 1.084-.647 3.765-3.473 2.676-2.818 4.767-4.407 8.537-4.847 3.757-.434 5.497.07 7.016 2.676 1.522 2.602 4.127 3.33 6.147 6.08 2.03 2.746 4.124 2.6 5.855 2.676 1.74.07 4.77-.29 6.37.727 1.593 1.015 2.17-.37 4.7 1.953 2.53 2.312 2.677 2.746 2.53 4.482-.146 1.736 2.676 3.472 2.025 5.5-.65 2.02-2.31 4.7.51 4.848 2.82.14 4.05-.51 6.004-.364 1.95.14 5.173 1.77 6.802 3.396 4.052 4.054 1.845 4.034 4.99 7.598 2.173 2.463 4.052 3.836 6.003 4.634 1.953.797 1.808.72 4.196 3.76 2.387 3.033 4.34 4.053 6.87 4.92 2.534.87 6 3.328 8.18 5.493 2.17 2.176 4.268 6.805 10.63 10.207 6.37 3.402 9.696 5.492 12.666 7.087 2.962 1.593 4.337 3.26 8.245 5.353 3.904 2.096 12.368 7.234 18.3 11.647 5.933 4.412 6.293 6.44 9.693 7.24 3.4.792 10.708 3.86 19.68 8.585 8.97 4.72 12.23 7.193 14.466 9.13 3.84 3.333 2.13 4.028 3.84 5.795 2.313 2.383 4.12 5.135 4.994 6.583.86 1.443.503 2.534 1.517 3.695 1.01 1.15 1.955 1.078 3.69 2.815 1.733 1.737 4.557 6.007 7.165 10.562 2.602 4.562 3.83 6.582 4.27 11.068.43 4.487-2.46 9.193-4.56 12.877-2.1 3.694-4.85 6.23-5.936 8.834-1.084 2.6-3.4 5.21-4.847 6.87-1.445 1.66-4.488 3.69-6.804 2.023s-2.896-3.04-2.968-5.428c-.074-2.39-1.012-3.544-2.68-4.853-1.66-1.297-2.896-1.514-2.752-3.035.146-1.518-.723-3.18-3.185-1.228-2.455 1.954-2.957 1.736-3.61 1.59-.656-.143-1.593-.794-1.593-2.746 0-1.953-.07-2.534-1.444-2.388-1.38.146-1.885 1.66-1.958 2.605-.07.94-.796 1.805-2.97 1.587-2.165-.217-2.966-1.153-3.036-2.675-.07-1.52-.29-2.458-1.013-2.604-.72-.145-1.737 2.458-3.687 2.897-1.96.43-2.97-.513-3.04-2.25-.075-1.726-.577-3.18-2.02-3.108-1.45.075-2.106 1.446-3.914 2.39-1.81.94-6.655 1.088-8.83.87-2.17-.218-5.21 0-7.886-.435-2.68-.435-10.27-4.412-14.037-5.21-3.757-.796-8.18-2.388-12.517-3.108-4.34-.728-6.943-2.757-11.572-4.054-4.633-1.307-6.586-3.04-9.694-5.062-3.108-2.027-7.233-3.835-9.624-4.41-2.39-.587-6.438-1.307-7.957-2.828-1.52-1.52-6.294-9.117-11.355-9.187-5.072-.07-7.46 2.17-10.134 2.1-2.68-.076-10.13-2.75-14.323-4.13-4.192-1.373-7.882-.86-12.15 1.23-4.265 2.1-5.863 4.413-8.392 4.635-2.536.213-6.66-1.806-7.67-.867-1.015.938-.362 3.544 3.18 4.63 3.55 1.083 4.49-.794 10.924 4.193 6.437 4.987 6.515 6.513 8.535 8.25 2.027 1.735 3.55 3.836 4.126 7.45.58 3.62 2.605 7.45 3.186 9.117.58 1.664 2.243 5.86.29 6.218-1.955.366-3.4.516-4.418-.646-1.01-1.15-2.167-3.905-4.773-4.34-2.603-.433-4.05-1.085-5.28-.36-1.23.723-1.81 1.37-1.23 3.762.58 2.385 1.47 4.523 1.88 5.645 1.013 2.746 1.646.616 2.53 2.746 1.45 3.475.58 3.912 1.74 8.473 1.16 4.555.29 4.483 1.81 7.305s2.897 5.357 4.124 7.963c1.228 2.603 3.69 6.584 7.086 9.403 3.4 2.82 10.86 9.475 14.256 13.094 3.4 3.62 11.967 12.555 15.19 15.846 7.234 7.38 17.002 10.47 19.463 11.934 4.12 2.464 4.85 2.683 7.89 3.474 3.04.8 8.026 2.535 10.06 3.625 2.02 1.08 5.64 3.473 6.8 5.49 1.153 2.03 1.59 3.263.864 4.93-.727 1.66-3.326 2.313-5.062 2.676-1.732.356-1.663 1.302-4.12 1.948-2.467.654-4.56-.646-8.616 0-4.05.656-7.443 1.738-10.416 1.52-2.967-.218-14.47-1.23-20.905-3.974-6.435-2.75-8.463-4.27-10.773-7.02-2.32-2.75-9.117-9.047-14.11-12.597-4.99-3.54-8.176-8.313-11.072-11.354-2.89-3.034-11.287-9.403-16.277-11.357-4.988-1.953-26.187-12.373-31.177-15.992-4.994-3.616-8.385-5.28-15.328-8.97-6.948-3.687-10.567-7.887-13.172-11-2.603-3.105-4.918-3.905-7.02-11.785-2.1-7.898-4.12-11.287-5.133-13.39-1.014-2.098-1.59-5.067-2.605-4.915-1.012.142-1.047.435-1.9 4.915-.846 4.484-.992 7.955-1.788 8.755-.796.797-1.304 2.244-1.304 3.978 0 1.738-.65 3.04-1.446 4.344-.793 1.304-1.66 4.05-1.66 4.05s.647-10.49.717-15.046c.077-4.56.73-12.95-.36-13.02-1.086-.07-2.097 2.89-2.457 6.22-.32 2.907-.91 5.646-1.008 6.34 0-1.05-.3-7.284-.3-10.246 0-3.25.146-6.443-1.084-6.513-1.23-.07-2.025 1.737-2.387 7.604-.36 5.854-1.37 11.568-1.734 14.397-.362 2.82-.577 3.257-1.015 5.35-.432 2.102-.72 3.475-.72 5.435 0 1.948-1.158 3.032-1.52 4.26-.365 1.232-1.956 6.076-1.956 6.076s.237-8.96.507-14.605c.36-7.674.515-12.47-2.39-12.014-1.37.22-2.456 3.4-3.4 5.573-.936 2.17-.936 1.448-1.95 4.34-1.013 2.892-2.53 7.673-3.33 9.118-.794 1.443-.573 2.895-1.735 5.28-1.158 2.387-3.11 7.31-3.546 8.753-.434 1.45-1.807 2.463-2.46 4.13-.647 1.66-2.315 4.987-2.315 4.987s2.1-10.852 3.766-16.71c1.663-5.866 2.026-10.35 1.3-10.71-.72-.367-4.77 8.467-7.45 14.897-2.674 6.44-2.894 6.945-2.75 10.42.147 3.476.22 4.998.22 4.998s-.97-5.926-3.906-2.315c-9.118 11.21-15.95 28.356-15.916 28.14 1.95-12.728 8.968-26.475 11.427-30.75 2.46-4.266 4.914-6.28 3.764-10.562-.675-2.496-1.757-4.258-3.395-7.23-2.32-4.193-3.13-7.628-4.127-7.45-2.03.36-1.955 1.81-2.827 5.935-.864 4.125-1.01 9.258-1.59 13.818-.576 4.56-1.01 9.98-3.397 12.37-2.39 2.395-2.894 3.403-4.27 6.3-1.376 2.896-2.17 4.916-3.26 7.087-1.08 2.172-2.82 8.25-2.82 8.25s.436-9.624 1.74-16.063c1.3-6.443 2.1-7.816 1.3-16.428-.795-8.61-1.737-9.62-1.805-11.43-.076-1.808-.076-2.388-1.664-2.674-1.598-.29-3.115.356-3.26 3.25-.147 2.897-.066 5.285 0 9.117.072 3.835-.87 5.064-1.81 5.503-.94.434-3.474.36-4.923.72-1.442.36-4.192 1.318-5.854 4.63-2.822 5.647-3.11 13.17-3.11 13.17 6.364 6.73 8.827 12.81 8.827 12.81-5.574-3.77-9.912-4.13-9.912-4.13-.023.16-.04.3-.06.457l16.202 28.186c.433-.965.94-1.895 1.656-2.88 1.737-2.386 4.416-4.414 5.934-4.485 1.52-.072 2.386 1.374 2.604 3.04.215 1.66.864 2.963 2.457 3.25 1.596.288 6.295 1.667 7.814 1.886 1.52.217 2.68-.796 5.21-1.012 2.53-.223 3.692 1.15 6.804-1.09 3.108-2.243 2.675-3.33 4.485-3.684 1.81-.367 3.472.066 5.93-1.31 2.462-1.372 3.187-2.026 5.718-2.604 2.53-.58 2.49-1.893 4.05-3.185 2.894-2.386 4.417-2.022 4.417-2.022.937-.8-1.08-2.13-1.52-4.928-.65-4.12-.545-7.345.504-8.967 1.594-2.46 1.81-3.26.65-4.92-1.154-1.66-2.456-.288-2.82-2.677-.36-2.387.146-6.586.866-8.254.728-1.656 2.536-2.89 3.62-3.108 1.088-.218 2.747-.295 2.967-1.01.215-.728-2.238-1.737 1.16-3.333 3.396-1.592 6.14-3.997 12.513-3.906 13.966.225 19.665 7.262 19.392 7.163-5.5-1.877-9.62-1.442-12.155-1.296-2.53.14-3.548 0-6.294 1.297-2.75 1.3-3.69 3.618-5.284 3.982-1.594.362-2.458-.868-3.614.727-1.16 1.584.508 2.242 0 4.555-.51 2.313-1.592 4.34.795 4.847 2.393.51 3.69.292 4.268-.798.58-1.082 1.954-4.7 6.51-5.646 4.563-.937 7.084-1.01 12.375-.21 13.383 2.024 17.652 10.56 17.652 10.56-5.858-4.118-15.633-4.845-17.795-4.983-2.176-.15-4.637-.655-7.092 1.81-2.463 2.464-3.763 4.554-5.427 4.847-1.664.293-1.953-.217-2.82 2.027-.867 2.24-1.517 4.915-2.68 6.22-1.156 1.304-1.736 1.44-2.893 1.16-1.154-.292-2.604.214-2.965 1.15-.363.94-.363 1.374.79 3.98 1.16 2.608.437 4.197.508 6.593.072 2.382.79 3.683-.072 4.406-.867.727-2.458.292-2.965 1.52-.51 1.23.07 3.184-1.372 4.99-1.447 1.812-3.907 2.53-4.63 2.247-.725-.293-1.815-1.086-2.97-.797-1.156.287-2.314.937-3.91 1.08-1.59.147-3.038-1.012-4.26-.215-1.24.8-3.477 3.546-5.866 3.84-2.386.28-6.366-2.467-7.74-1.598-1.374.866-1.59 2.17-4.487 2.895-2.895.723-4.99-.868-6.798 0-1.81.867-2.243 2.293-3.255 3.24-1.016.953-1.52.447-1.81 4.854-.29 4.41-.364 8.765-.364 8.765s3.428-1.096 5.575-1.96c3.19-1.273 3.742-1.552 6.92.428 3.184 1.977 4.297 1.28 5.33.618 1.028-.66 2.244-1.645 4.703-1.94 3.512-.415 4.36.827 5.29.08 2.933-2.35 4.003-3.183 4.786-3.71.782-.54 1.482-1.24 1.527-3.136.046-1.904.87-2.898 1.82-3.678.943-.786 2.56-.954 3.548-1.16.992-.206 1.03-1.402 3.056-1.48 2.025-.088 5.246-.16 6.11-.21.868-.04 1.91-.333 3.054-1.152 2.355-1.697 1.184-2.464 2.73-3.797 1.197-1.04 2.722-1.657 3.014-2.604.29-.952 2.396-1.86 3.842-2.77 1.44-.908 2.72-1.483 2.677-2.06-.034-.583-.237-1.24-1.315-1.983-1.072-.744-1.03-3.6 1.565-5.37 2.608-1.77 5.677-3.19 13.01-2.52 21.68 1.98 29.542 15.18 29.507 15.152-6.966-5.203-16.888-8.344-24.51-7.39-4.622.576-4.903 2.787-6.646 3.1-.91.163-2.482.95-2.64 1.938-.17.99 1.235.576 2.31.283 1.07-.282 1.277-.24 1.777.335.49.584-.91 1.365-2.354 2.604-1.444 1.234-3.138 2.89-1.444 4.826 1.687 1.947 3.55.585 4.784.04 1.24-.536 2.27-1.362 3.097-1.192.827.162 1.52-.618 1.796-1.36.27-.746 2.547-1.938 3.824-2.275 1.278-.33 4.77-1.054 7.676.088 5.776 2.27 8.367 7.44 10.105 9.327 2.517 2.728 3.35 4.297 4.626 8.88 1.28 4.584.656 7.02.415 9-.25 1.978-.746 2.27-.746 2.27s-.124-4.54-5.123-11.646c-4.98-7.1-6.795-7.186-7.91-7.514-1.114-.327-2.192-.78-4.624-.494-2.44.28-3.473-.21-4.173-.5-.7-.282-.826-.574-1.568-.24-.744.33.16 1.19-1.198 2.06-1.363.87-3.142 1.243-4.455 1.403-1.33.166-2.313.293-2.936 1.04-.623.736-1.86 2.31-2.686 3.295-.83.995-3.714 2.48-4.785 2.73-1.073.242-3.928.41-5.08-.213-1.157-.62-3.714-1.44-4.212-2.396-.495-.94-1.567-1.275-2.68-.902-1.114.373-1.49.825-1.45 1.98.044 1.16-.365 2.147-1.445 2.897-1.072.74-2.764 1.45-3.385 1.45-.616 0-1.898-.247-2.97.284-1.075.534-2.19 1.295-2.974 2.243-.786.947-2.446 1.467-3.057 1.588-1.444.29-1.483-.62-2.683-.663-1.196-.04-1.733.662-4.416 2.31-2.69 1.646-4.917 2.68-5.823 2.963-.91.292-1.276-.06-2.353.52-1.072.574-2.44 2.605-3.135 3.68-.254.382-.58-1.23-.896 2.77h-15.84l32.563 57h234.83l117.23-203.843-117.36-204.26zM251.583 262.294c-.105 1.608-.602 2.04-1.393 1.177-.78-.85-.495-.99 0-2.07.5-1.064 1.825-2.1 1.825-2.1s-.324 1.39-.43 2.996zm150.452 7.845c1.523-2.43 3.072-4.724 3.497-5.15.42-.42 1.327-.906 2.2-.545 1.526.615-.29 4.332-1.91 5.945-1.62 1.624-3.107 2.847-4.27 3.528-1.165.683-4.27 2.813-4.27 2.813s3.232-4.165 4.753-6.592zm-52.265-17.31c2.937.605 4.044 2.504-1.41 8.646-5.458 6.14-9.94 10.086-10.816 10.885-.824.758-4.315 2.817-4.675 3.07.304-.274 4.176-5.283 7.205-10.98 3.118-5.88 4.433-8.7 4.946-9.797.515-1.097 1.484-2.51 4.75-1.825zm-11.374-2.977c2.975.79 4.95 2.02 0 8.28-3.648 4.615-9.576 9.137-11.724 10.602-2.144 1.46-3.85 2.14-3.85 2.14s3.737-4.317 6.756-10.51c3.088-6.35 3.683-7.86 3.942-8.51.3-.74 1.59-2.884 4.876-2.002zm-12.29 47.41s-.325 5.89-.973 9.686c-.64 3.795-1.1 5.735-4.204 12.226-3.36 7.023-7.765 9.81-9.6 8.066-2.04-1.93-1.08-4.14.313-6.208 1.397-2.07 2.994-3.998 7.395-10.208 4.92-6.958 7.066-13.56 7.066-13.56zm-1.74-48.953c.364-1.36 1.362-3.773 4.136-2.603 2.777 1.17 1.096 4.61 0 7.288-1.095 2.68-2.595 5.477-5.725 9.28-4.653 5.657-7.678 7.722-7.678 7.722 3.12-4.848 5.226-9.895 6.773-14.054 1.634-4.385 2.122-6.258 2.49-7.632zm-4.318-5.306c1.98.695 1.51 3.486-2.118 8.46-5.475 7.49-9.23 9.19-9.188 9.135 4.293-5.826 6.19-11.93 6.9-13.48 1.486-3.26 2.116-4.915 4.406-4.117zm-6.626-3.364c1.67.88 1.046 3.052-.85 5.656-2.83 3.825-6.328 5.142-6.266 5.065 2.902-3.33 3.68-6.84 4.217-8.495.534-1.656 1.877-2.756 2.9-2.222zm-5.844-2.826c1.05.62.416 2.584-.684 3.826-1.096 1.245-4.338 3.61-4.338 3.61s1.232-2.16 1.904-4.043c1.017-2.902 1.823-4.145 3.118-3.393zm-6.437-1.484c.05-1.07.49-1.827 1.468-1.584 1.224.307.312 1.514-.197 2.462-.512.95-2.412 2.585-2.412 2.585s1.093-2.387 1.144-3.463zm-3.383-3.412c.614-.117.39 1.068 0 1.61-.392.534-.974.95-.974.95s-.195-2.337.975-2.56zm-40.96 35.122c-.355 1.746-1.33 2.858-2.213 1.713-.82-1.07-.283-1.994.363-2.746.64-.753 3.063-3.245 3.063-3.245s-.857 2.527-1.215 4.278zm.932 7.526c-.57-2.133.745-2.676 2.46-3.295 1.71-.624 3.96-4.126 3.96-4.126s-.39 1.896-.75 2.502c-.356.606-.465 1.037-2.217 3.354-1.35 1.795-2.948 3.48-3.455 1.567zm1.745 7.567c-.75-1.393-.104-2.25.715-2.636.82-.4.962-.54 3.53-1.896 2.57-1.352 4.89-5.14 4.89-5.14s-.394 1.97-1.18 3.14c-.782 1.185-1.353 2.575-3.497 5.425-2.137 2.857-3.564 2.778-4.46 1.11zm3.533 8.527c-1.14-1.035-.785-2.1-.214-3.028.57-.933 2.213-1.964 4.994-2.782 2.784-.824 6.282-5.178 6.282-5.178s-.786 2.604-1.93 3.814c-1.142 1.216-1.745 2.466-3.817 4.82-2.066 2.354-3.8 3.733-5.316 2.354zm14.453 5.465c-3.5 4.852-5.607 4.443-6.854 3.14-2.82-2.962-.5-3.31 2.146-5.278 1.12-.842 2.207-1.717 4.394-3.82 2.185-2.103 4.987-4.75 6.53-8.14.043-.1 0 2.965-1.184 5.75-.663 1.57-1.532 3.493-5.03 8.348zm1.077 10.098c-1.325-1.71-.93-2.852.778-4.35 1.72-1.507 2.2-2.19 3.82-4 2.484-2.775 6.564-8.066 6.564-8.066s-2.43 5.604-3.177 6.784c-.75 1.18-2.248 3.92-3.604 6.89-1.357 2.956-2.878 4.704-4.383 2.745zm8.057 8.062c-3.278-2.89-1.034-3.353-.218-4.028.832-.678 2.043-1.46 3.68-3.428 1.024-1.225 4.357-4.537 6.854-8.4.09-.146-.498 4.44-1.748 8.616-.898 3.02-2.5 5.422-3.393 7.06-.898 1.64-3.2 1.917-5.18.177zm7.786 8.748c-3.5-2.896-3.397-3.787 2.352-8.18 4.054-3.097 7.563-7.526 8.74-9.31a174.809 174.809 0 0 0 3.037-4.813c-.04.028-3.57 9.954-5.89 15.13-2.322 5.173-4.745 10.06-8.243 7.173zm7.064 6.026c-2.896-2.57-.926-4.107 3.498-10.026 2.973-3.982 7.137-11.852 7.24-11.984.104-.13-.57 4.24-1.395 7.594-.822 3.353-1.746 6.603-2.816 9.248-1.062 2.643-4.34 7.108-6.525 5.166zm18.338 4.39c-2.566 2.855-3.45 4.466-8.274 2.57-1.18-.47-2.25-.647-2-2.323.25-1.677 4.957-3.317 7.348-4.354 2.396-1.034 6.64-2.752 9.885-6.564.08-.09-2.012 5.173-6.96 10.67zm4.64 6.28c-1.7-.44-3.585-1.307-1.21-4.677.915-1.29 2.848-2.707 5.032-4.998 3.473-3.645 7.563-9.268 9.202-11.916 1.55-2.51 3.892-6.853 3.892-6.853s-1.104 5.815-2.962 11.49c-1.856 5.674-4.07 10.35-5.82 13.097-1.75 2.748-5.777 4.46-8.134 3.855zm15.097-2.25c-1.5 3.302-3.857 7.582-6.314 6.03-1.643-1.03-1.398-3.315 1.5-6.67 2.89-3.354 9.27-13.24 9.27-13.24s-.676 5.567-4.458 13.877zm9.455-1.71c-.717 2.89-1.783 5.96-2.465 8.066-.677 2.112-3.032 7.288-5.563 5.633-2.784-1.82-.353-5.633 3.354-10.35 1.756-2.23 5.74-7.775 5.74-7.775s-.71 2.986-1.063 4.425zm1.897-65.224c-1.505 1.086-3.74 3.56-3.74 3.56s2.745-6.512 5.082-11.514c2.335-5.002 2.875-5.547 3.538-6.693.664-1.146 2.413-1.873 4.225-1.024 3.363 1.576 3.135 2.157 0 5.393-3.134 3.23-4.038 4.915-5.007 6.12-.96 1.205-2.594 3.072-4.1 4.157zm4.946 6.15c-.18.116-1.04 1.327-1.04 1.327s1.88-4.52 4.53-9.28c2.65-4.767 3.253-6.15 3.44-6.933.178-.786.96-1.89 2.288-1.544.975.24.12 4.133-.902 6.783-1.027 2.653-2.474 4.764-4.28 6.15-1.803 1.39-3.858 3.376-4.038 3.496zm9.4 2.346c-1.923 1.51-4.013 2.787-4.44 3.074.562-.526 3.704-4.3 5.202-9.808 1.004-3.708 1.166-5.13 1.95-8.814 1.23-5.745 2.755-7.375 5.665-5.794 2.918 1.584 1.145 4.27-.357 8.39-1.187 3.26-2.033 5.39-3.31 7.55-1.505 2.545-2.477 3.66-4.71 5.4zm3.377 1.632c.025.023.66-2.27 4.243-8.04 3.574-5.778 3.403-7.11 4.342-8.765.937-1.65 1.924-3.82 3.9-3.38 1.682.38.025 3.38-1.064 5.85-1.084 2.468-3.027 4.96-4.582 7.323-1.562 2.373-3.95 4.22-4.938 5.113-.988.883-1.927 1.873-1.9 1.9zm16.483-4.847c-2.2 1.488-4.055 2.704-6.048 3.593-2.817 1.254-5.73 3.206-5.73 3.206 4.794-5.603 6.67-8.288 8.123-12.235 1.456-3.94 3.27-7.47 3.913-8.35.648-.865 2.398-2.56 5.048-1.84 2.946.793 3.688 4.043 1.007 8.025-2.685 3.984-4.11 6.114-6.31 7.603zm2.837 4.206c.263-.286 3.108-5.065 3.927-7.15.844-2.136 2.39-5.4 3.2-6.987.815-1.585 1.59-3.32 4.37-3.302 2.166.01 2.43 1.94 1.042 4.728-1.396 2.784-3.337 4.85-4.724 6.11-1.397 1.263-3.613 3.176-4.553 3.883-.867.655-3.024 2.487-3.264 2.716zm24.734-4.14c-1.457 1.652-3.853 3.403-5.31 4.183-1.455.77-3.043 1.188-4.98 1.905-1.94.708-6.987 3.01-6.987 3.01s2.652-1.94 5.597-5.21c2.948-3.27 4.574-4.766 5.795-6.184 2.975-3.463 3.2-4.87 5.89-2.27 2.166 2.104 1.457 2.91-.003 4.565zM55.95 291.683c-1.728-1.383-1.83 1.54-1.782 3.568.053 2.036.053 5.204.296 8.46.248 3.256.146 6.604 1.042 6.31.896-.3 1.24-2.082 1.435-4.11.2-2.03 1.488-3.173 1.638-7.534.148-4.36.03-4.56-2.625-6.693zm-10.06 4.462c-.146.112-.232.224-.335.332l4.002 6.965c.27.22.523.324.794.234.992-.328.4-3.27-.3-4.803-.692-1.54-2.274-4.165-4.16-2.728zm68.347-13.104c-.087.875-.144 1.76-.16 2.637-.013.396-.083 1.338.136 1.918.506 1.318 1.172-.258 1.324-.88.13-.548.247-1.11.425-1.64.19-.55.543-.988.763-1.508.4-.93.916-2.106.965-3.127.067-1.52-.55-2.977-.72-4.473-.126-1.13.642-2.082.84-3.186.115-.633-.044-1.663-.397-2.186-.48-.72-1.228-.244-1.49.387-.47 1.127-.307 2.38-.272 3.56.033 1.205-.23 2.28-.537 3.435a31.89 31.89 0 0 0-.875 5.068zm-91.233-25.79c.427-.82.718-1.67 1.114-2.293.964-1.513 2.427-4.2 2.638-8.603l-5.004 8.713 1.255 2.184zm312.046-44.006c.975.975 5.07 1.838 7.452 3.236 2.373 1.408 8.315 1.515 15.76 1.08 7.452-.43 6.477-4.21 5.505-6.04-2.496-4.716-7.104-7.583-12.09-8.89-3.855-1.01-22.664 4.584-16.627 10.614zm-79.237-54.082c-1.836 1.186-3.78 1.944-6.262 6.153-2.488 4.21-3.44 6.704 1.4 11.116 5.206 4.757 9.285 8.21 15.225 2.16 5.935-6.045 2.805-6.64 9.426-13.465 7.033-7.25 5.037-16.542 3.523-22.695-1.516-6.154-5.4-16.63-7.883-18.784-2.48-2.16-5.07-2.16-9.28-.863-4.214 1.293-4.76 3.67-5.834 5.396-1.076 1.73-1.508 3.78.438 9.17 1.944 5.402 4.855 7.674 5.934 10.26 1.08 2.593 1.73 5.08-.432 7.665-2.158 2.59-4.425 2.7-6.257 3.887zm45.612 18.64c-.34 1.315-1.404 2.494-2.346 3.42-1.34 1.307-2.803 2.49-4.186 3.74-2.345 2.12-1.986 4.69.267 6.674.632.56 1.403.938 2.022 1.504.508.474 1.14.74 1.756 1.023.92.424 1.976 1.075 2.56 1.853.518.666 1.158 1.816 1.17 2.67.004.52-.08.858.23 1.35.255.412.645.757 1.077.978.438.217.908.312 1.387.475.492.163.83.512 1.26.784.462.283.857.516 1.212.96.517.64.828 1.272.996 2.07.057.292.007.554.147.827.165.304.42.425.645.647.26.266.406.66.635.952l.456.374c.873.803 1.823 1.29 2.91 1.75 1.22.517 2.51.99 3.837 1.127 2.16.21 6.698-1.84 14.47-9.505 7.776-7.662 6.258-13.927 3.883-17.485-2.37-3.563-5.502-5.94-13.93-13.61-8.415-7.66-5.177-7.445-10.468-14.784-5.286-7.344-8.106-9.68-12.41-7.667-3.458 1.624-3.67 4.965-2.812 7.666.51 1.595 1.08 3.044 1.08 4.75-.002 2.15-.478 4.407.217 6.497.29.864.837 1.71 1.317 2.48.34.55.836.973 1.245 1.463 1.27 1.53 1.765 4.09 1.595 6.025-.028.335-.138.658-.22.99z" fill="#46B3E3"/><path d="M382.38 36.5H129.618L3.238 255.242 129.615 475.5H382.38L508.765 256 382.38 36.5zM26.797 245.618c-.003.258-.027.49-.04.736-.21 4.4-1.674 7.09-2.635 8.603-.395.624-.687 1.473-1.113 2.294l-1.257-2.18-.627-1.09 5.708-9.93c-.017.48-.026.995-.037 1.57zm23.56 58.06c-.272.09-.526-.014-.796-.234l-4-6.965c.103-.11.188-.22.336-.335 1.887-1.438 3.47 1.188 4.162 2.73.7 1.53 1.292 4.473.3 4.8zm8.223-5.3c-.15 4.36-1.438 5.503-1.64 7.532-.193 2.03-.538 3.813-1.434 4.113-.896.29-.794-3.058-1.043-6.312-.243-3.253-.243-6.42-.294-8.456-.05-2.027.052-4.95 1.78-3.568 2.655 2.132 2.773 2.334 2.63 6.693zM373.41 459.5H138.587l-32.562-57h15.838c.316-4 .643-2.39.896-2.773.693-1.07 2.06-3.104 3.133-3.678 1.076-.584 1.442-.23 2.354-.524.906-.282 3.135-1.316 5.824-2.963 2.685-1.646 3.22-2.35 4.418-2.31 1.2.045 1.237.952 2.682.664.61-.122 2.27-.642 3.056-1.588.782-.95 1.898-1.71 2.973-2.245 1.07-.532 2.353-.284 2.97-.284.62 0 2.312-.71 3.385-1.45 1.08-.747 1.49-1.734 1.445-2.895-.037-1.156.337-1.61 1.45-1.982 1.113-.372 2.186-.038 2.68.903.5.953 3.057 1.773 4.214 2.395 1.152.624 4.007.456 5.08.214 1.072-.252 3.957-1.735 4.786-2.73.825-.985 2.06-2.56 2.685-3.296.623-.747 1.605-.874 2.935-1.04 1.313-.16 3.092-.534 4.455-1.4 1.358-.87.454-1.73 1.198-2.063.742-.334.867-.042 1.567.24.7.29 1.733.782 4.173.5 2.432-.286 3.51.168 4.625.495 1.114.328 2.928.412 7.91 7.513 5 7.104 5.123 11.646 5.123 11.646s.5-.293.75-2.27c.24-1.98.865-4.416-.415-9-1.277-4.583-2.11-6.153-4.625-8.88-1.74-1.887-4.33-7.06-10.106-9.327-2.906-1.142-6.397-.415-7.676-.087-1.277.338-3.555 1.53-3.824 2.275-.272.74-.97 1.523-1.795 1.36-.828-.17-1.857.657-3.1 1.19-1.236.548-3.098 1.91-4.785-.037-1.693-1.938 0-3.592 1.444-4.827 1.442-1.24 2.843-2.02 2.352-2.604-.5-.576-.707-.617-1.776-.334-1.075.292-2.48.706-2.31-.284.156-.99 1.73-1.775 2.64-1.94 1.743-.31 2.024-2.52 6.647-3.1 7.62-.953 17.543 2.187 24.51 7.392.035.026-7.826-13.175-29.506-15.153-7.334-.672-10.402.746-13.01 2.52-2.595 1.77-2.64 4.625-1.564 5.368 1.078.745 1.28 1.4 1.316 1.98.042.58-1.237 1.156-2.678 2.065-1.446.907-3.552 1.814-3.842 2.767-.29.946-1.814 1.562-3.013 2.603-1.545 1.333-.373 2.1-2.73 3.797-1.144.82-2.185 1.112-3.052 1.153-.865.048-4.086.12-6.11.21-2.024.077-2.063 1.273-3.056 1.48-.99.205-2.606.373-3.55 1.16-.95.777-1.773 1.77-1.82 3.676-.043 1.894-.743 2.597-1.525 3.136-.783.527-1.854 1.36-4.785 3.71-.93.747-1.78-.495-5.29-.08-2.46.295-3.676 1.28-4.704 1.94-1.033.663-2.146 1.358-5.33-.618-3.178-1.98-3.73-1.7-6.92-.426-2.147.864-5.574 1.96-5.574 1.96s.075-4.352.366-8.764c.29-4.407.793-3.9 1.81-4.855 1.012-.945 1.446-2.372 3.254-3.238 1.808-.868 3.903.723 6.798 0 2.898-.73 3.113-2.03 4.488-2.896 1.373-.87 5.354 1.877 7.74 1.596 2.39-.293 4.627-3.038 5.865-3.838 1.224-.797 2.673.362 4.26.214 1.598-.145 2.756-.794 3.91-1.08 1.156-.29 2.247.504 2.972.797.723.282 3.183-.437 4.63-2.246 1.444-1.81.864-3.76 1.374-4.99.505-1.228 2.096-.793 2.963-1.52.864-.726.146-2.025.072-4.407-.07-2.396.653-3.983-.507-6.594-1.155-2.605-1.155-3.04-.794-3.98.36-.938 1.81-1.443 2.965-1.15 1.156.28 1.736.144 2.894-1.16 1.163-1.305 1.813-3.98 2.682-6.22.865-2.245 1.154-1.734 2.82-2.027 1.663-.293 2.963-2.384 5.426-4.848 2.455-2.465 4.916-1.96 7.092-1.81 2.162.14 11.937.866 17.795 4.985 0 0-4.27-8.534-17.654-10.56-5.29-.8-7.812-.728-12.375.21-4.555.945-5.93 4.564-6.51 5.647-.574 1.09-1.874 1.31-4.266.797-2.387-.507-1.305-2.533-.795-4.848.507-2.313-1.16-2.97 0-4.555 1.155-1.595 2.02-.364 3.612-.728 1.594-.364 2.533-2.684 5.283-3.982 2.747-1.296 3.765-1.156 6.295-1.296 2.535-.147 6.656-.58 12.156 1.295.273.098-5.426-6.94-19.392-7.162-6.372-.09-9.116 2.315-12.513 3.907-3.396 1.596-.943 2.605-1.16 3.333-.22.715-1.88.792-2.966 1.01-1.083.216-2.892 1.45-3.62 3.106-.72 1.667-1.227 5.866-.866 8.254.366 2.39 1.668 1.017 2.824 2.676 1.16 1.66.94 2.46-.65 4.92-1.05 1.623-1.155 4.85-.505 8.967.44 2.8 2.456 4.13 1.52 4.93 0 0-1.523-.363-4.416 2.022-1.56 1.29-1.52 2.603-4.05 3.185-2.532.576-3.257 1.23-5.72 2.604-2.457 1.376-4.12.94-5.93 1.31-1.81.354-1.375 1.44-4.482 3.685-3.11 2.24-4.273.866-6.805 1.09-2.53.216-3.69 1.23-5.21 1.01s-6.218-1.596-7.81-1.883c-1.594-.288-2.243-1.59-2.458-3.252-.22-1.665-1.086-3.112-2.605-3.038-1.52.07-4.197 2.1-5.935 4.486a15.414 15.414 0 0 0-1.654 2.88l-16.21-28.185c.02-.157.04-.297.063-.457 0 0 4.338.36 9.912 4.13 0 0-2.463-6.08-8.828-12.81 0 0 .29-7.523 3.11-13.17 1.663-3.31 4.413-4.27 5.856-4.628 1.45-.36 3.98-.288 4.922-.72.94-.44 1.883-1.67 1.81-5.505-.065-3.832-.146-6.22 0-9.116.146-2.894 1.663-3.54 3.26-3.25 1.59.286 1.59.866 1.665 2.675.065 1.807 1.01 2.816 1.803 11.428.8 8.61 0 9.984-1.3 16.43-1.305 6.437-1.74 16.06-1.74 16.06s1.74-6.076 2.82-8.248c1.09-2.17 1.884-4.19 3.26-7.086s1.88-3.908 4.27-6.3c2.388-2.393 2.82-7.814 3.4-12.37.577-4.56.723-9.693 1.588-13.82.874-4.123.8-5.57 2.83-5.93.994-.18 1.806 3.255 4.125 7.45 1.638 2.972 2.72 4.733 3.394 7.23 1.15 4.28-1.305 6.296-3.765 10.56-2.46 4.275-9.478 18.02-11.427 30.75-.034.22 6.797-16.93 15.915-28.14 2.938-3.61 3.904 2.315 3.904 2.315s-.07-1.522-.22-5c-.143-3.472.077-3.976 2.752-10.417 2.677-6.432 6.73-15.266 7.45-14.898.725.36.36 4.843-1.3 10.71-1.667 5.86-3.767 16.71-3.767 16.71s1.668-3.33 2.316-4.986c.65-1.67 2.024-2.684 2.457-4.133.437-1.44 2.388-6.365 3.546-8.754 1.162-2.386.94-3.837 1.734-5.277.8-1.444 2.318-6.227 3.33-9.117 1.016-2.894 1.016-2.17 1.953-4.34.94-2.173 2.026-5.355 3.4-5.574 2.9-.454 2.747 4.34 2.39 12.015-.27 5.646-.51 14.607-.51 14.607s1.59-4.843 1.955-6.074c.363-1.23 1.52-2.312 1.52-4.26 0-1.96.29-3.334.72-5.436.44-2.094.653-2.527 1.016-5.35.366-2.828 1.377-8.545 1.737-14.397.362-5.866 1.16-7.674 2.388-7.603 1.23.07 1.084 3.263 1.084 6.513 0 2.96.3 9.197.3 10.25.096-.697.686-3.437 1.006-6.344.36-3.328 1.37-6.29 2.456-6.22 1.09.07.44 8.46.36 13.02-.07 4.56-.716 15.046-.716 15.046s.866-2.744 1.66-4.05c.795-1.303 1.445-2.603 1.445-4.342 0-1.733.508-3.18 1.304-3.978.795-.8.94-4.27 1.787-8.754.855-4.48.89-4.773 1.9-4.916 1.017-.152 1.593 2.817 2.606 4.916 1.013 2.103 3.033 5.49 5.134 13.388 2.1 7.88 4.415 8.68 7.02 11.787 2.602 3.113 6.222 7.31 13.17 11 6.943 3.69 10.334 5.352 15.33 8.97 4.99 3.62 26.186 14.04 31.176 15.992 4.99 1.952 13.387 8.32 16.277 11.353 2.896 3.04 6.082 7.813 11.07 11.354 4.995 3.55 11.79 9.846 14.11 12.596 2.313 2.752 4.34 4.27 10.773 7.02 6.438 2.746 17.94 3.757 20.907 3.974 2.973.22 6.365-.862 10.416-1.52 4.055-.645 6.146.654 8.613 0 2.46-.645 2.39-1.592 4.122-1.947 1.736-.362 4.337-1.017 5.062-2.674.723-1.667.29-2.897-.867-4.93-1.155-2.02-4.776-4.41-6.8-5.49-2.03-1.09-7.02-2.826-10.06-3.626-3.036-.793-3.765-1.013-7.89-3.476-2.46-1.463-12.227-4.553-19.462-11.934-3.224-3.29-11.79-12.225-15.19-15.845-3.396-3.62-10.854-10.27-14.256-13.096-3.396-2.82-5.858-6.802-7.086-9.403-1.23-2.603-2.604-5.14-4.124-7.96-1.52-2.82-.65-2.75-1.81-7.304-1.16-4.56-.29-4.997-1.74-8.473-.884-2.13-1.518 0-2.53-2.748-.408-1.12-1.3-3.26-1.88-5.646-.58-2.395 0-3.04 1.23-3.765 1.23-.723 2.677-.07 5.278.36 2.607.437 3.766 3.19 4.773 4.34 1.017 1.163 2.462 1.015 4.415.65 1.955-.36.29-4.557-.29-6.22-.58-1.67-2.604-5.5-3.186-9.118-.578-3.614-2.1-5.715-4.128-7.45-2.02-1.737-2.1-3.263-8.535-8.25-6.437-4.986-7.375-3.11-10.927-4.193-3.54-1.084-4.193-3.69-3.178-4.63 1.01-.936 5.133 1.08 7.668.87 2.528-.223 4.127-2.535 8.392-4.635 4.27-2.095 7.958-2.605 12.15-1.233 4.194 1.38 11.647 4.055 14.324 4.13 2.674.07 5.06-2.17 10.133-2.1 5.062.07 9.838 7.667 11.354 9.187 1.52 1.522 5.566 2.242 7.957 2.828 2.39.576 6.515 2.384 9.624 4.412 3.107 2.024 5.06 3.756 9.693 5.063 4.63 1.297 7.234 3.326 11.573 4.053 4.34.72 8.76 2.312 12.517 3.11 3.766.796 11.357 4.773 14.038 5.208 2.678.436 5.715.217 7.887.436 2.174.217 7.02.07 8.826-.87 1.813-.944 2.467-2.315 3.914-2.392 1.445-.07 1.947 1.383 2.02 3.108.07 1.737 1.08 2.68 3.04 2.25 1.95-.438 2.97-3.042 3.69-2.896.72.146.94 1.085 1.01 2.604.07 1.52.872 2.458 3.036 2.674 2.174.22 2.898-.647 2.97-1.586.073-.945.577-2.46 1.958-2.605 1.373-.145 1.444.436 1.444 2.39 0 1.95.937 2.603 1.594 2.746.652.146 1.154.363 3.608-1.59 2.462-1.95 3.33-.29 3.186 1.228-.145 1.52 1.092 1.738 2.752 3.035 1.668 1.31 2.604 2.462 2.68 4.852.07 2.388.65 3.76 2.965 5.427 2.314 1.664 5.357-.365 6.803-2.023 1.445-1.66 3.764-4.27 4.847-6.87 1.085-2.605 3.835-5.14 5.933-8.834 2.104-3.686 4.99-8.39 4.562-12.88-.44-4.485-1.668-6.505-4.27-11.067-2.608-4.555-5.432-8.824-7.165-10.562-1.735-1.736-2.68-1.665-3.69-2.814-1.013-1.16-.654-2.252-1.517-3.695-.873-1.447-2.68-4.2-4.994-6.582-1.71-1.768 0-2.463-3.843-5.795-2.235-1.938-5.495-4.412-14.466-9.13-8.97-4.726-16.277-7.794-19.68-8.587-3.4-.8-3.76-2.826-9.69-7.24-5.933-4.41-14.397-9.55-18.3-11.644-3.908-2.093-5.283-3.76-8.247-5.354-2.97-1.595-6.295-3.685-12.663-7.087-6.365-3.4-8.463-8.03-10.632-10.207-2.18-2.165-5.646-4.624-8.18-5.492-2.533-.867-4.484-1.887-6.87-4.92-2.39-3.04-2.245-2.963-4.197-3.76-1.95-.8-3.83-2.17-6.003-4.634-3.146-3.564-.938-3.544-4.99-7.598-1.63-1.627-4.853-3.257-6.804-3.397-1.953-.145-3.183.506-6.003.365-2.82-.147-1.16-2.827-.51-4.847.65-2.03-2.17-3.765-2.025-5.502.146-1.736 0-2.17-2.53-4.482-2.528-2.322-3.107-.937-4.7-1.952-1.6-1.015-4.633-.656-6.372-.726-1.732-.076-3.824.07-5.855-2.676-2.02-2.75-4.625-3.478-6.147-6.082-1.52-2.605-3.26-3.11-7.016-2.676-3.77.44-5.86 2.03-8.536 4.846-2.68 2.826-2.61 3.473-3.764 3.473-1.16 0-2.242.292-3.62 1.362-1.374 1.07-3.397.232-4.848.085-1.447-.142-3.616-.217-6.798.65-3.188.87-6.73 2.61-9.695 4.746-2.966 2.14-6.863 1.116-11.496 1.627-4.625.504-7.958 2.024-10.703 3.907-2.754 1.877-5.425 2.745-7.16 2.674-1.736-.075-1.447.07-4.053 1.304-2.604 1.23-5.354-.506-7.09-1.96-1.736-1.443-4.27-2.24-8.036-2.745-3.76-.506-5.424-1.81-6.65-2.818-1.234-1.02-2.97-3.473-5.57-.727-2.61 2.745-.148 5.495 3.47 7.883 1.95 1.28 4.99 4.48 4.703 8.25-.395 5.146 1.378 5.857 2.39 6.797 1.01.944 1.515 3.474 0 4.418-1.52.94-2.608.647-3.98-.15-1.375-.792-3.764-1.73-5.206-2.17-1.452-.435-3.187-2.095-4.708-3.322-1.52-1.232-6.584-5.14-9.338-6.37-2.74-1.233-4.122-.87-11.06 3.255-6.948 4.124 2.1 6.588 5.495 8.537 3.4 1.958 5.14 3.982 4.48 5.572-.65 1.59-.283 3.69 2.826 4.774 3.112 1.085 3.833 3.332 2.894 5.286-.94 1.953-3.04 3.11-5.21 3.034-2.165-.07-4.267-1.227-9.91-1.515-5.644-.293-8.9-5.14-13.385-6.805-4.487-1.667-8.536-1.374-10.564 1.302-2.025 2.675.87 4.124 3.33 6.077 2.46 1.95 5.062 4.56 5.5 7.955.43 3.4 1.013 7.525 2.89 9.55.84.91 2.46 2.897 0 5.644-3.483 3.896-11.07-1.373-13.24-2.46-2.17-1.084-7.67-4.628-10.416-1.154-2.75 3.473 1.948 6.44 5.43 10.42 3.468 3.977 2.02 5.643 4.05 7.813 2.025 2.17 2.965 4.12 2.098 5.14-.87 1.01-2.46 1.29-5.277-1.09-2.825-2.39-5.21-3.838-6.37-2.607-1.156 1.232.506 3.402 2.604 6.442 2.944 4.26.725 2.744 3.546 7.38 1.653 2.705 1.23 3.978-.578 5.06-1.808 1.086-6.437-3.542-8.608-4.992-2.172-1.442-6.293-3.474-7.596-1.877-1.306 1.59.795 4.624 3.54 8.97 2.756 4.335 3.548 6.87 3.33 8.324-.212 1.444-.864 3.25-2.602 4.19-1.735.943-4.27-3.18-6.222-4.92-1.953-1.733-4.63-2.386-6.586-.94-1.95 1.45-1.083 2.892-.143 5.5.936 2.6 2.243 4.56 2.68 8.467.43 3.91-.218 5.064-2.538 8.825-2.313 3.768-2.533 4.2-3.905 4.483-1.373.293-3.107-1.736-5.14-4.412-2.02-2.675-4.05-3.685-5.276-2.892-1.237.798-.294 2.1.284 3.397.58 1.31 2.97 6.01 3.836 7.96.868 1.955 3.04 4.994 0 6.59-3.036 1.584-5.786-3.475-7.74-6.512-1.954-3.04-3.325-3.695-4.413-2.97-1.088.727-1.306 2.17-.438 3.978.867 1.812 1.23 4.123 1.444 6.66.22 2.533-.14 5.062-1.66 5.567-1.52.503-2.313 0-3.62-1.738-1.302-1.73-2.896-5.423-4.772-8.173-1.167-1.706-2.47-3.387-3.62-4.39a6.09 6.09 0 0 0-.697-.542L138.588 50.5H373.82l-.158.065 117.34 204.467-.36.625L373.412 459.5zM115.925 270.982c.264-.63 1.01-1.105 1.49-.387.354.52.513 1.553.397 2.188-.196 1.103-.964 2.055-.837 3.185.17 1.495.786 2.953.72 4.474-.05 1.02-.564 2.197-.966 3.127-.22.52-.574.956-.765 1.51-.178.524-.294 1.09-.423 1.64-.15.62-.817 2.194-1.323.88-.22-.58-.15-1.525-.14-1.92.02-.88.075-1.764.16-2.638.16-1.7.448-3.426.876-5.066.306-1.153.57-2.23.537-3.433-.034-1.184-.198-2.436.272-3.563zm146.582-123.374c-1.08-2.584-3.988-4.856-5.933-10.258-1.946-5.39-1.515-7.445-.438-9.172 1.075-1.727 1.62-4.103 5.833-5.396 4.21-1.297 6.802-1.297 9.28.863 2.48 2.155 6.366 12.63 7.882 18.783 1.513 6.153 3.51 15.446-3.524 22.695-6.62 6.825-3.49 7.42-9.43 13.468-5.937 6.05-10.02 2.598-15.224-2.16-4.84-4.41-3.89-6.903-1.4-11.113 2.48-4.21 4.426-4.967 6.262-6.153 1.832-1.186 4.1-1.297 6.258-3.887 2.16-2.588 1.51-5.072.43-7.667zm37.545 23.18c-.41-.49-.905-.914-1.245-1.464-.48-.768-1.027-1.615-1.318-2.48-.694-2.09-.22-4.345-.22-6.496 0-1.706-.57-3.155-1.08-4.75-.856-2.7-.645-6.042 2.813-7.667 4.303-2.01 7.124.326 12.41 7.67 5.29 7.34 2.053 7.123 10.47 14.786 8.427 7.667 11.56 10.045 13.93 13.61 2.372 3.558 3.893 9.822-3.884 17.484-7.77 7.663-12.313 9.716-14.47 9.505-1.327-.137-2.617-.61-3.838-1.127-1.086-.46-2.036-.947-2.91-1.75l-.455-.375c-.228-.29-.376-.687-.635-.953-.228-.224-.48-.345-.646-.647-.142-.273-.092-.535-.146-.828-.167-.797-.48-1.43-.995-2.07-.354-.443-.75-.676-1.21-.96-.433-.27-.77-.62-1.26-.786-.48-.165-.95-.26-1.388-.478a2.726 2.726 0 0 1-1.076-.98c-.31-.49-.226-.827-.23-1.348-.01-.854-.65-2.004-1.166-2.67-.587-.777-1.643-1.43-2.56-1.853-.615-.282-1.25-.55-1.757-1.023-.62-.567-1.39-.944-2.02-1.505-2.254-1.984-2.61-4.554-.27-6.674 1.384-1.25 2.85-2.434 4.188-3.74.94-.925 2.007-2.104 2.347-3.418.08-.333.19-.656.22-.99.17-1.936-.328-4.496-1.595-6.025zm51.63 31.842c4.984 1.308 9.594 4.175 12.09 8.89.972 1.832 1.947 5.612-5.507 6.04-7.442.436-13.385.33-15.758-1.08-2.38-1.397-6.48-2.26-7.452-3.235-6.037-6.03 12.772-11.624 16.627-10.615zm-49.275 33.578c.51-.948 1.42-2.155.198-2.462-.978-.243-1.418.515-1.465 1.584-.052 1.076-1.146 3.463-1.146 3.463s1.902-1.636 2.413-2.585zm-18.734 45.82c-1.543 3.387-4.347 6.032-6.53 8.14-2.187 2.102-3.272 2.977-4.392 3.82-2.643 1.967-4.962 2.314-2.143 5.277 1.246 1.303 3.354 1.71 6.854-3.142 3.5-4.854 4.368-6.776 5.03-8.35 1.184-2.783 1.227-5.845 1.184-5.746zm-9.605-2.356s-3.498 4.354-6.282 5.178c-2.78.818-4.425 1.85-4.994 2.782-.57.93-.927 1.993.214 3.028 1.516 1.38 3.25 0 5.316-2.354 2.072-2.354 2.677-3.604 3.818-4.82 1.143-1.21 1.928-3.814 1.928-3.814zm23.687-46.145c.39-.54.614-1.727 0-1.61-1.17.224-.974 2.562-.974 2.562s.585-.42.977-.955zm-.848 64.903c-2.495 3.865-5.828 7.178-6.853 8.4-1.638 1.967-2.85 2.75-3.68 3.427-.816.677-3.063 1.14.217 4.028 1.98 1.74 4.284 1.464 5.18-.178.89-1.64 2.49-4.04 3.39-7.06 1.25-4.175 1.84-8.76 1.75-8.617zm-7.207-8.623s-4.08 5.29-6.565 8.066c-1.62 1.81-2.102 2.493-3.82 4-1.71 1.498-2.104 2.64-.777 4.35 1.505 1.96 3.025.21 4.386-2.746 1.354-2.968 2.854-5.71 3.604-6.886.745-1.18 3.172-6.78 3.172-6.78zm-25.768-8.784c2.146-2.85 2.715-4.24 3.498-5.422.785-1.17 1.18-3.14 1.18-3.14s-2.32 3.786-4.89 5.14c-2.57 1.357-2.712 1.5-3.532 1.9-.818.385-1.465 1.242-.715 2.635.895 1.668 2.322 1.747 4.46-1.11zm-8.987-15.016c-.646.752-1.184 1.675-.363 2.746.883 1.146 1.857.033 2.212-1.713.358-1.75 1.215-4.28 1.215-4.28s-2.427 2.494-3.067 3.247zm6.237 6.99c1.752-2.315 1.86-2.745 2.22-3.353.356-.605.747-2.502.747-2.502s-2.25 3.502-3.964 4.13c-1.715.618-3.032 1.16-2.46 3.294.506 1.913 2.103.228 3.454-1.568zm51.39-27.7c1.896-2.605 2.52-4.777.85-5.656-1.02-.53-2.365.57-2.898 2.226-.537 1.656-1.312 5.164-4.215 8.498-.068.076 3.43-1.24 6.26-5.066zm10.253 25.58s1.705-.68 3.85-2.14c2.145-1.466 8.073-5.986 11.724-10.602 4.946-6.262 2.97-7.492 0-8.28-3.29-.884-4.58 1.262-4.878 2-.26.648-.854 2.16-3.942 8.51-3.02 6.194-6.756 10.512-6.756 10.512zm10.045 4.555c.356-.252 3.85-2.312 4.674-3.066.875-.8 5.358-4.746 10.815-10.887 5.452-6.146 4.345-8.044 1.41-8.65-3.268-.686-4.235.73-4.75 1.824-.514 1.097-1.826 3.916-4.945 9.795-3.03 5.697-6.9 10.706-7.208 10.98zm-25.975-34.792c1.1-1.24 1.734-3.204.685-3.825-1.295-.752-2.103.49-3.116 3.394-.672 1.88-1.904 4.04-1.904 4.04s3.24-2.366 4.335-3.61zM250.19 261.4c-.495 1.078-.78 1.218 0 2.07.792.86 1.288.432 1.394-1.178.107-1.604.432-3 .432-3s-1.327 1.04-1.825 2.108zm151.363 12.52c1.163-.682 2.65-1.904 4.27-3.527 1.62-1.613 3.44-5.33 1.912-5.945-.874-.36-1.78.125-2.2.547-.426.425-1.975 2.716-3.498 5.146-1.52 2.43-4.75 6.6-4.75 6.6s3.102-2.134 4.266-2.82zm-89.367 33.13c-.104.134-4.27 8.002-7.242 11.984-4.424 5.92-6.393 7.456-3.497 10.023 2.186 1.942 5.463-2.52 6.526-5.168 1.07-2.65 1.995-5.9 2.817-9.25.824-3.35 1.5-7.72 1.396-7.59zm10.59-44.77c3.13-3.808 4.63-6.605 5.726-9.283 1.096-2.68 2.777-6.117 0-7.288-2.773-1.174-3.77 1.24-4.136 2.6-.37 1.374-.857 3.247-2.49 7.634-1.546 4.16-3.653 9.207-6.774 14.054 0 0 3.022-2.065 7.675-7.72zm-4.846-10.816c3.63-4.973 4.098-7.764 2.118-8.46-2.29-.797-2.92.857-4.405 4.118-.71 1.55-2.607 7.653-6.9 13.478-.043.054 3.712-1.645 9.187-9.136zm-6.284 69.57c-1.393 2.066-2.354 4.277-.315 6.207 1.84 1.744 6.24-1.04 9.604-8.063 3.104-6.49 3.563-8.43 4.203-12.226.646-3.795.973-9.684.973-9.684s-2.147 6.604-7.065 13.56c-4.4 6.21-5.998 8.138-7.398 10.208zm-3.136-20.304c.036-.04-1.854 3.025-3.037 4.813-1.177 1.782-4.688 6.213-8.74 9.31-5.748 4.393-5.854 5.284-2.354 8.18 3.495 2.886 5.92-2 8.24-7.174 2.32-5.176 5.85-15.1 5.888-15.13zm8.347 28.618c-2.392 1.035-7.098 2.677-7.35 4.353-.248 1.68.82 1.857 2 2.324 4.823 1.896 5.708.287 8.274-2.568 4.947-5.496 7.04-10.76 6.96-10.67-3.24 3.812-7.486 5.528-9.88 6.564zm47.283-62.296c1.022-2.65 1.878-6.543.9-6.784-1.327-.344-2.108.758-2.287 1.545-.188.783-.788 2.166-3.438 6.934-2.65 4.76-4.532 9.28-4.532 9.28s.858-1.212 1.04-1.327c.18-.12 2.232-2.11 4.037-3.496 1.806-1.388 3.25-3.497 4.28-6.152zm-4.16-6.784c3.135-3.233 3.363-3.814 0-5.392-1.813-.85-3.562-.12-4.226 1.024-.663 1.146-1.203 1.69-3.538 6.693-2.337 5.003-5.083 11.515-5.083 11.515s2.236-2.475 3.74-3.56c1.505-1.086 3.14-2.952 4.1-4.16.968-1.204 1.873-2.89 5.006-6.12zm13.26 5.824c1.5-4.117 3.275-6.805.357-8.39-2.91-1.58-4.437.05-5.668 5.795-.784 3.685-.946 5.106-1.95 8.813-1.5 5.508-4.64 9.28-5.2 9.808.426-.287 2.516-1.565 4.435-3.074 2.234-1.74 3.206-2.856 4.708-5.4 1.28-2.162 2.126-4.29 3.314-7.552zm-34.862 56.688c1.858-5.675 2.96-11.49 2.96-11.49s-2.342 4.343-3.89 6.853c-1.64 2.648-5.73 8.27-9.203 11.916-2.187 2.29-4.117 3.704-5.032 4.995-2.375 3.37-.49 4.233 1.21 4.674 2.358.605 6.386-1.106 8.136-3.854 1.75-2.748 3.96-7.423 5.816-13.098zm37.058-49.116c1.555-2.363 3.498-4.855 4.582-7.323 1.092-2.47 2.746-5.466 1.063-5.846-1.973-.442-2.96 1.727-3.896 3.38-.938 1.653-.768 2.985-4.34 8.763-3.583 5.772-4.22 8.064-4.244 8.04-.026-.024.91-1.015 1.9-1.897.983-.895 3.373-2.74 4.937-5.115zm-34.49 75.81c2.532 1.654 4.888-3.52 5.564-5.634.683-2.108 1.748-5.18 2.466-8.067.354-1.44 1.062-4.425 1.062-4.425s-3.984 5.547-5.74 7.776c-3.703 4.716-6.136 8.526-3.352 10.35zm-6.24-12.63c-2.897 3.353-3.142 5.635-1.5 6.667 2.457 1.555 4.813-2.726 6.313-6.03 3.78-8.31 4.456-13.876 4.456-13.876s-6.382 9.884-9.27 13.24zm55.68-76.644c-2.65-.716-4.4.976-5.048 1.843-.646.88-2.457 4.408-3.913 8.35-1.454 3.947-3.33 6.633-8.122 12.235 0 0 2.912-1.952 5.73-3.205 1.992-.89 3.848-2.104 6.048-3.594 2.204-1.49 3.63-3.62 6.315-7.606 2.68-3.982 1.94-7.232-1.007-8.026zm10.07 7.124c1.387-2.785 1.124-4.717-1.04-4.727-2.783-.02-3.557 1.717-4.373 3.3-.81 1.59-2.355 4.853-3.2 6.99-.817 2.08-3.663 6.86-3.926 7.147.238-.23 2.397-2.062 3.265-2.72.938-.706 3.153-2.62 4.55-3.882 1.387-1.257 3.33-3.323 4.724-6.108zm6.308 6.276c-1.22 1.418-2.847 2.912-5.794 6.186-2.943 3.27-5.597 5.208-5.597 5.208s5.047-2.302 6.987-3.01c1.938-.716 3.525-1.136 4.98-1.905 1.455-.78 3.853-2.53 5.31-4.187 1.46-1.652 2.17-2.46 0-4.564-2.685-2.6-2.913-1.195-5.886 2.27z" fill="#fff"/></svg>