<svg xmlns="http://www.w3.org/2000/svg" width="512" height="512" viewBox="0 0 512 512"><style>.st0{fill:#fff}.st1{opacity:.8;fill:#46b3e3}</style><path class="st1" d="M375 48.5l-.3.2H137L17.8 256.1 137 463.5h238.2l35.2-61.3 6.5-11.3L494.2 256 375 48.5z"/><path class="st0" d="M382.4 36.5H129.6L3.2 256l46.1 80.1 14.2 24.6 66.1 114.8h252.8L508.8 256 382.4 36.5zM137 460.6L76.3 354.9c14.7-7.8 28.3-18.4 35.5-25.8 12.8-13.3 31-31.4 49.1-38.4 18.2-7 23.9-9.1 33.5-4.9 9.5 4.1 11.5 8.3 16.1 9.1 4.6.8 8.3.3 6.6 5.4-3.8 11.2-10.3 9.5-11.6 16.5 0 0-1.2 5 3.7 10.3 5 5.4 11.6 17.3 15.3 19.4 3.7 2.1 5.8 6.6 5.8 6.6s1.6 8.7 4.1 11.2c2.4 2.5 5.4 8.3 6.6 14.9 1.2 6.6 2.9 16.1 7 19.8 4.1 3.7 11.5 6.6 13.7 4.1 2-2.5.4-3.3.4-3.3s18.6 3.7 20.2.8c1.7-2.9-1.2-7.5-1.2-7.5s4.5.8 4.5-2.9-9.9-7.8-14.9-10.3c-4.9-2.5-19-22.3-19-26.4 0-4.1 2.5-1.7 4.5-1.7s8.6.4 9-4.5c.4-4.9-9-6.2-10.3-9.1-1.2-2.9-4.1-2.5-4.1-2.5s-2.9-30.2-2.5-33.5c.4-3.3 14.5-18.6 18.2-21.5 3.7-2.9 6.6-5.4 7.4-7.8.8-2.5 0-5 0-5l7-.4s-6.2 6.2-.4 15.3c5.7 9.1 9.9 14 15.2 17.8 5.4 3.7 14.8 8.7 14.8 14.8 0 6.2-.4 8.7-2.5 12.4-2.1 3.8-1.2 7 1.7 7 1.6 0 2.4-1.2 2.7-2.2.1-.9.2-1.5.2-1.5s0 .7-.2 1.5c-.4 2.8-.6 8.7 3.1 9.6 4.9 1.3 3.3-6.2 6.2-2.5 2.9 3.7 4.6 4.5 6.6 3.7 2.1-.8 2.1-6.2 2.1-6.2s5 2.5 4.5-3.3c-.4-5.8-4.5-13.2-5-18.6-.4-5.4-4.1-13.2-9.9-16.9-5.8-3.7-21.5-19.4-21.5-21.8 0-2.5 9.1-9.1 10.8-13.2l1.6-4.1s13.7.4 14.9-.8c1.2-1.2 0 20.6 4.9 27.7 4.9 7 16.5 23.1 14.9 23.9-1.7.8-5.8 16.1-5.8 17.8 0 1.6 3.3 7 .4 9.1-2.9 2.1-2.9 12-1.7 12 1.3 0 7.4-6.2 8.3-12 .8-5.8 3.7-12.4 6.2-17.8s3.7-14.9 0-31.8-10.3-22.7-7.4-29.7c2.9-7 3.7-10.3 3.7-14 0-3.7.8-9.5 4.6-11.6 3.7-2.1 18.6-17.3 20.6-25.6 2.1-8.2 2.1-11.1 2.1-11.1s20.4 16.8 24.6 12.2c4.1-4.5 5.8-12 5.8-12s3.7.8 3.7-6.2c0-4.4-13.7-31-18.7-43.4v-.4c-4-25.3-29.3-31.3-41.5-20.2-12.1 11.1-8.1 52.5-8.1 52.5 0 1.1.8 3.3 1.8 5.7-.2 1.4-.6 2.6-1.5 3.4l-4.1 3.3s-12.4-11.2-18.2-18.6c-5.7-7.4-6.5-11.9-18.1-16.1-11.6-4.1-22.7-12.4-26.9-16.1-4.1-3.7-18.5-6.2-30.1-4.6-11.5 1.7-24 13.6-35.5 14.5-11.6.8-40.5 2.5-64 38s-55.3 90.4-64.4 107.3c-5.5 10.2-11.4 23.6-20.8 33.1L19.4 256 137 51.6h234.4l.3-.2L489.2 256 413 388.9l-6.4 11.2-34.7 60.5H137z"/></svg>