<svg xmlns="http://www.w3.org/2000/svg" width="512" height="512" viewBox="0 0 512 512"><path opacity=".8" fill="#46B3E3" d="M427.812 356.516s.573.834 2.88 1.11c.455.044.816.075 1.116.093l58.988-102.815-16.112-28.044c-.726.157-1.342.304-1.82.438-5.276 1.42-39.797 8.332-45.745 10.096-5.886 1.875-50.765 16.006-52.794 16.665-1.943.692-29.763 9.96-40.554 17.18-10.88 7.216-19.837 16.936-19.837 16.936s2.327 2.36 4.184 3.123c1.872 1.042 5.255 2.395 8.52 4.34 3.23 1.91 10.033 10.723 13.325 13.12 3.404 2.185 8.594 5.583 10.71 5.83 1.965.102 5.64.45 7.237 1.382 1.698.84 6.63 6.217 7.48 7.646.85 1.346 9.248 10.2 13.015 13.425 3.73 3.226 6.263 6.73 7.81 6.906 1.436.14 3.66.904 5.69.904 2.066 0 3.246-.764 3.246-.764s.52 1.527.31 2.394c-.158.593-.97 1.632-.97 1.632s2.517-.868 3.713-.695c1.18.24 2.05.94 4.584 1.01 2.497.276 5.885.59 7.08.59 1.18 0 3.644-1.77 6.696-1.6 3.074.18 5.195 2.05 5.195 2.05s2.064 0 3.244-.696c1.18-.763 2.446-2.462 2.446-2.462s.362 1.806 0 2.813c-.33 1.007-.94 1.872-1.705 2.636-.85.765-2.133 2.363-2.133 2.363s1.7 0 3.508-1.353c1.873-1.357 2.81-2.64 2.81-2.64s-.104 2.57-.417 3.574c-.362 1.04-1.698 2.81-1.698 2.81zm-4.855 6.108c-2.398 0-7.4-2.29-11.837-2.29-4.39 0-10.45 1.81-12.914 1.81s-16.33-11.072-21.585-15.66c-5.273-4.686-13.33-12.253-16.92-14.853-3.66-2.565-8.243-5.272-12.845-6.484-4.595-1.288-18.775-4.937-25.004-6.703-6.105-1.695-12.735-4.096-16.99-5.79-4.16-1.777-4.595-2.71-6.716-3.06-2.116-.413-4.95-.066-6.89-1.28-2.047-1.008-7.325-6.11-7.325-6.11s-2.897 1.354-4.838 1.354h-3.54s-1.633 2.81-1.633 3.816c0 .938.52 3.748-.52 6.28-1.11 2.397-6.004 18.12-7.135 20.86-1.022 2.778-6.977 20.3-7.128 23.46-.282 3.127.31 8.572.103 10.866-.297 2.22-1.32 6.902-2.014 8.26-.486 1.352-2.705 3.574-3.625 4.65-.96 1.22-6.3 10.31-8 12.876-1.596 2.466-5.883 10.275-5.883 10.275s-.503 2.98.362 4.34c.833 1.352 2.375 3.99 2.375 3.99s-2.637-.175-3.886-1.285c-1.214-.937-2.377-3.47-2.377-3.47s-1.807 1.454-1.91 2.188c-.086.97-.243 4.265-.865 5.377-.574 1.114-5.26 2.64-6.77 3.75-1.597 1.074-4.076 4.93-6.295 5.76-2.122.864-4.86.864-5.748 1.284-.812.346-2.776 2.984-5.623 3.296-2.896.452-4.444-.036-6.766-.036-2.17 0-2.17-.378-3.366.628-1.18 1.037-2.36 2.742-2.36 2.742s-.974-1.042 0-2.636c.764-1.705 3.714-3.994 3.714-3.994s-2.12.587-3.712.487c-1.803-.14-2.14-1.01-3.524-1.25-1.267-.175-2.446-.865-3.556.587-1.045 1.527-2.483 3.82-2.483 3.82s-1.44-1.7.204-4.166c1.445-2.463 2.12-3.815 3.978-4.34 1.803-.417 1.283-.762 5.38-1.107 3.87-.347 8.313.105 11.712-1.524 3.318-1.844 8.834-5.348 12.665-8.333 3.82-2.95 4.184-2.882 9.254-9.06 4.94-6.387 11.99-18.112 13.012-23.15 1.11-5 1.84-12.6 1.84-16.35 0-3.71.952-8.22.33-15.37-.812-7.123-3.367-20.135-3.192-27.216.086-6.97 2.38-16.653 1.267-18.7-1.08-2.05-4.336-3.61-13.43-6.7-9.08-2.918-13.676-5.207-19.786-8.574-6.294-3.334-14.975-9.2-14.975-9.2s-1.024 5.696-2.047 7.398c-.992 1.802-1.685 4.75-2.134 6.453-.488 1.806-.574 2.985-.488 3.75.07.867.223 2.044.223 2.044s-.568-.69-1.09-1.176c-.4-.35-1.184-1.388-1.184-1.388s-1.283 2.396-2.636 4.61c-1.283 2.122-1.597 2.19-1.597 4.83 0 2.74-.417 3.156-.417 5.447v4.235s-2.913-2.362-2.983-4.13c-.21-1.807-.628-3.817-.21-6.494.52-2.633 2.326-6.938 2.326-6.938s-1.872.416-3.004 2.116c-1.095 1.668-2.015 3.474-2.015 4.823v4.098s-1.856-2.81-1.856-4.754c0-2.05-.26-4.788 1.232-7.15 1.542-2.116 4.335-3.158 5.222-3.99.99-.936 3.713-4.34 4.596-8.264.82-4.09 1.6-9.506 1.6-9.506s-.78-.696-2.48-2.748c-1.856-2.005-4.648-5.27-4.648-5.27s1.245 3.265.764 5.27c-.454 2.05-2.728 6.494-4.53 8.68-1.753 2.57-4.6 8.75-6.088 11.143-1.65 2.463-4.34 7.32-4.34 7.32s-.52 1.012-.212 2.292c.21 1.18 0 1.775 0 1.775s-.812-.664-.985-1.603c-.26-.868-.61-2.013-.61-2.013s-2.203 3.26-3.833 5.31c-1.683 1.876-2.532 2.5-2.792 4.095-.243 1.7-.417 3.296-1.44 4.268-.92 1.01-2.224 2.43-2.224 2.43s-.677 2.052-.573 3.438c.07 1.353-.244 4.167-.244 4.167s-2.22-2.573-2.22-5.207c0-2.397.244-4.58 1.18-6.87 1.04-2.225 2.707-4.235 3.974-6.318 1.305-2.19 3.837-5.662 3.837-5.662s-3.837 1.18-4.93 2.78c-1.023 1.872-2.36 3.33-3.243 4.965-.815 1.666-1.34 2.775-1.34 4.06 0 1.25-.41 2.813-.41 2.813s-1.458-3.053-1.18-5.867c.24-2.986 1.437-6.147 3.45-8.398 2.068-2.22 6.197-4.38 7.757-6.907 1.596-2.465 6.283-11.728 7.22-16.172.936-4.413 1.856-6.285 1.51-8.99-.313-2.74-3.366-8.365-4.665-12.014-1.335-3.743-2.223-6.28-2.364-7.738-.103-1.49-.103-3.054-.103-3.054s-8.73-7.74-11.365-14.96c-2.636-7.322-4.773-13.914-5.71-19.987-.763-6.11-1.526-18.607-1.526-23.01 0-4.443.765-16.594 0-18.226-.676-1.42-2.224-3.4-4.34-4.822-2.218-1.46-6.56-5.206-9.61-5.517-3.248-.278-11.212.726-13.568 1.112-2.414.34-9.98 2.005-11.42 1.42-1.462-.695-2.274-.836-2.463-1.807-.33-.833-.44-2.01-.44-2.01s-1.262.242-1.68-.867c-.326-1.01-.694-3.714 1.005-6.46 1.612-2.81 3.577-4.682 6.977-7.045 3.405-2.5 5.35-3.848 8.51-5.515 3.12-1.806 7.408-2.815 10.72-5.31 3.4-2.43 5.067-5.83 8.92-6.284 3.886-.59 7.29-2.223 15.636-1.007 4.25.698 13.916 3.23 16.503 9.93 2.532 6.73 3.366 12.18 2.9 16.864-.524 4.58-2.9 18.05-3.074 24.642-.19 6.805-1.526 17.77 1.163 24.64 2.728 6.907 5.78 11.248 11.767 13.61 5.953 2.53 17.298 1.735 26.152 1.735 8.88 0 21.36 0 29.344.795 7.946.798 12.996 3.507 20.56 4.546 7.568 1.11 16 .658 30.873 1.767 14.873 1.045 32.227 2.99 47.012 3.408 14.613.347 46.178 0 59.092-.763 12.75-.663 56.985-5.104 67.59-5.97 1.87-.185 4.09-.36 6.56-.538l-95.8-166.733-.25.186H138.586L21.126 255l117.46 204.5H373.41l55.778-97.215c-1.932.206-4.42.34-6.23.34z"/><path fill="#fff" d="M382.38 36.5H129.618L3.238 256l126.38 219.5H382.38L508.765 256 382.38 36.5zm-243.794 423L21.126 255l117.46-204.5H373l.25-.186 95.794 166.733c-2.472.178-4.69.353-6.562.538-10.604.866-54.838 5.307-67.59 5.97-12.913.764-44.478 1.11-59.09.764-14.786-.42-32.14-2.366-47.014-3.41-14.872-1.11-23.305-.658-30.872-1.768-7.564-1.04-12.614-3.748-20.56-4.546-7.983-.795-20.465-.795-29.346-.795-8.854 0-20.2.796-26.152-1.734-5.986-2.362-9.04-6.703-11.767-13.61-2.686-6.873-1.35-17.835-1.16-24.64.173-6.593 2.55-20.062 3.073-24.643.467-4.684-.367-10.135-2.9-16.865-2.586-6.7-12.252-9.23-16.5-9.93-8.347-1.215-11.75.417-15.637 1.006-3.853.455-5.52 3.854-8.92 6.284-3.31 2.496-7.6 3.505-10.72 5.31-3.16 1.667-5.105 3.015-8.51 5.515-3.398 2.363-5.363 4.235-6.976 7.047-1.7 2.744-1.33 5.45-1.005 6.46.417 1.108 1.68.865 1.68.865s.11 1.177.44 2.01c.187.972 1 1.113 2.46 1.808 1.44.584 9.008-1.08 11.422-1.42 2.356-.387 10.32-1.39 13.567-1.112 3.053.313 7.394 4.06 9.612 5.52 2.115 1.422 3.663 3.402 4.34 4.823.764 1.632 0 13.782 0 18.226 0 4.4.764 16.9 1.526 23.01.937 6.07 3.074 12.663 5.71 19.986 2.636 7.22 11.365 14.96 11.365 14.96s0 1.56.103 3.052c.142 1.457 1.03 3.993 2.366 7.735 1.3 3.648 4.352 9.274 4.665 12.013.348 2.705-.573 4.577-1.51 8.99-.936 4.445-5.623 13.708-7.22 16.173-1.56 2.53-5.69 4.686-7.755 6.906-2.014 2.25-3.21 5.41-3.453 8.396-.275 2.814 1.18 5.867 1.18 5.867s.41-1.565.41-2.815c0-1.284.527-2.394 1.344-4.058.883-1.635 2.22-3.093 3.242-4.966 1.094-1.6 4.93-2.78 4.93-2.78s-2.53 3.475-3.836 5.664c-1.268 2.082-2.935 4.093-3.974 6.316-.937 2.29-1.18 4.475-1.18 6.87 0 2.636 2.22 5.21 2.22 5.21s.312-2.815.243-4.168c-.105-1.386.57-3.438.57-3.438s1.307-1.422 2.227-2.43c1.022-.973 1.196-2.567 1.44-4.27.26-1.593 1.108-2.218 2.79-4.093 1.63-2.05 3.834-5.31 3.834-5.31s.354 1.146.613 2.01c.173.94.985 1.605.985 1.605s.21-.596 0-1.775c-.31-1.28.21-2.293.21-2.293s2.69-4.857 4.342-7.32c1.485-2.395 4.333-8.573 6.086-11.145 1.803-2.184 4.076-6.627 4.53-8.68.48-2.003-.763-5.268-.763-5.268s2.792 3.265 4.648 5.27c1.7 2.05 2.48 2.747 2.48 2.747s-.78 5.417-1.596 9.508c-.883 3.922-3.604 7.328-4.596 8.263-.887.834-3.68 1.876-5.222 3.99-1.494 2.364-1.234 5.104-1.234 7.15 0 1.946 1.857 4.756 1.857 4.756v-4.097c0-1.35.92-3.156 2.012-4.82 1.133-1.7 3.005-2.118 3.005-2.118s-1.808 4.306-2.327 6.94c-.417 2.676 0 4.687.21 6.494.07 1.766 2.983 4.128 2.983 4.128v-4.235c0-2.29.42-2.71.42-5.448 0-2.64.312-2.708 1.596-4.83 1.352-2.214 2.635-4.61 2.635-4.61s.785 1.04 1.186 1.388c.52.484 1.09 1.177 1.09 1.177s-.152-1.176-.223-2.044c-.086-.763 0-1.942.487-3.75.45-1.7 1.14-4.65 2.133-6.45 1.022-1.703 2.046-7.4 2.046-7.4s8.68 5.867 14.975 9.2c6.11 3.368 10.705 5.657 19.787 8.574 9.094 3.09 12.352 4.65 13.43 6.702 1.113 2.044-1.18 11.727-1.267 18.7-.175 7.08 2.38 20.09 3.193 27.214.62 7.15-.33 11.66-.33 15.37 0 3.75-.73 11.35-1.84 16.35-1.022 5.04-8.07 16.765-13.012 23.15-5.07 6.18-5.434 6.11-9.255 9.06-3.83 2.986-9.347 6.49-12.665 8.333-3.398 1.63-7.842 1.177-11.71 1.523-4.1.346-3.58.69-5.382 1.11-1.855.52-2.53 1.874-3.977 4.337-1.647 2.465-.206 4.167-.206 4.167s1.44-2.294 2.484-3.82c1.11-1.453 2.29-.763 3.557-.588 1.387.24 1.723 1.108 3.525 1.25 1.592.1 3.714-.487 3.714-.487s-2.95 2.29-3.714 3.993c-.974 1.593 0 2.635 0 2.635s1.18-1.705 2.36-2.742c1.196-1.005 1.196-.627 3.366-.627 2.32 0 3.87.487 6.766.035 2.847-.313 4.812-2.95 5.623-3.297.89-.42 3.627-.42 5.75-1.286 2.22-.83 4.697-4.685 6.293-5.76 1.51-1.11 6.197-2.636 6.77-3.75.623-1.113.78-4.407.867-5.378.103-.732 1.91-2.187 1.91-2.187s1.163 2.533 2.376 3.47c1.25 1.11 3.887 1.285 3.887 1.285s-1.542-2.64-2.376-3.99c-.864-1.357-.36-4.34-.36-4.34s4.286-7.81 5.882-10.274c1.7-2.568 7.043-11.658 8-12.876.92-1.076 3.14-3.3 3.626-4.65.692-1.357 1.717-6.04 2.014-8.26.206-2.295-.385-7.74-.103-10.866.15-3.16 6.104-20.683 7.127-23.462 1.13-2.74 6.023-18.462 7.133-20.86 1.04-2.53.52-5.34.52-6.28 0-1.006 1.636-3.815 1.636-3.815h3.54c1.94 0 4.838-1.355 4.838-1.355s5.28 5.104 7.325 6.11c1.94 1.215 4.773.868 6.89 1.282 2.12.35 2.555 1.28 6.717 3.06 4.255 1.693 10.885 4.094 16.99 5.79 6.23 1.767 20.41 5.415 25.004 6.703 4.603 1.212 9.187 3.92 12.845 6.487 3.594 2.6 11.647 10.167 16.924 14.854 5.255 4.587 19.12 15.658 21.584 15.658s8.522-1.81 12.913-1.81c4.438 0 9.438 2.29 11.837 2.29 1.81 0 4.3-.132 6.23-.338L373.41 459.5H138.587zm288.532-106.73c-1.808 1.352-3.507 1.352-3.507 1.352s1.286-1.6 2.136-2.362c.763-.764 1.374-1.63 1.704-2.636.362-1.007 0-2.812 0-2.812s-1.267 1.7-2.447 2.462c-1.18.696-3.242.696-3.242.696s-2.12-1.87-5.193-2.05c-3.053-.172-5.516 1.6-6.694 1.6-1.196 0-4.584-.313-7.08-.592-2.532-.065-3.403-.766-4.583-1.007-1.197-.17-3.714.698-3.714.698s.812-1.04.97-1.632c.21-.866-.31-2.393-.31-2.393s-1.18.765-3.247.765c-2.03 0-4.256-.764-5.69-.904-1.55-.174-4.08-3.68-7.81-6.905-3.77-3.226-12.168-12.08-13.018-13.428-.85-1.43-5.78-6.806-7.48-7.645-1.596-.93-5.27-1.28-7.236-1.383-2.116-.247-7.306-3.646-10.71-5.83-3.292-2.397-10.095-11.212-13.326-13.122-3.263-1.943-6.645-3.296-8.52-4.338-1.854-.764-4.182-3.123-4.182-3.123s8.957-9.72 19.837-16.94c10.79-7.22 38.61-16.484 40.554-17.18 2.03-.655 46.906-14.79 52.79-16.662 5.95-1.765 40.47-8.676 45.744-10.097.48-.134 1.095-.28 1.82-.437l16.112 28.044-58.988 102.812c-.3-.02-.66-.05-1.117-.095-2.306-.275-2.88-1.11-2.88-1.11s1.338-1.77 1.7-2.81c.313-1.004.417-3.575.417-3.575s-.938 1.28-2.81 2.64z"/></svg>