<svg xmlns="http://www.w3.org/2000/svg" width="512" height="512" viewBox="0 0 512 512"><style>.st0{fill:#fff}.st1{opacity:.8;fill:#46b3e3}</style><path class="st1" d="M375 48.5l-.3.2H137L17.8 256.1 137 463.5h238.2l35.2-61.3 6.5-11.3L494.2 256 375 48.5z"/><path class="st0" d="M382.4 36.5H129.6L3.2 256l126.4 219.5h252.8L508.8 256 382.4 36.5zm24.1 363.6l-34.7 60.5H137L19.6 256.1 137 51.6h234.4l.3-.2L489.2 256 413 388.9l-6.5 11.2zM219 332.9s-9 8.4-5.1 35.8c0 0 0 6.7-12.3 15.1 0 0-10 14.6-11.2 22.9 0 0-6.7 12.9-11.8 4.5 0 0-17.3 6.7-20.7 0 0 0-8.5 7.8-6.2-1.2 0 0-20.2 12.9 7.3-13.5l10.7-1.6s11.2-9 14-13.5c0 0 5.1-23.5 11.2-35.3l1.2-26.9s-3.3-24.6 1.7-28l-13.4-3.9-7.9 8.4 1.1 17.9s1.7 3.3-2.2 2.7c0 0-1.7 10.1-2.8-1.6l-2.7-11.2s-1.7 6.7-2.3 9.5l-1.7 3.3s1.7 11.2-2.2 0c0 0-5-3.9 11.2-33.5 0 0-16.8 2.7-24.6-10.6 0 0-1.1 14.5-15.7 11.2l-10 8.4s-1.7 6.7-6.2 7.3c0 0-6.7 13.5-2.2-2.8l10-12.9s-5.1-4.5-7.9-1.1c0 0-2.2 8.4-6.1 8.4 0 0-4.5 17.3-2.8-2.3 0 0 5.6-12.3 16.8-12.3l15.1-5.6 2.8-14-6.2-20.7s-47-24.1-36.4-77.3c0 0 6.2-14 11.7-13.5 0 0-3.9-21.8 10.1-8.4 0 0 16.8 6.8 25.2-6.2 0 0 9 .5 1.7 7.3 0 0 .5 9 7.3 4 0 0 8.9 5.6 5 8.4 0 0 5.7 12.2 6.8 32.4 0 0-8.4 6.2-14.5 3.4-6.2-2.8 0 2.8 0 2.8l12.9 6.7s37-4.5 50.4-2.2c0 0 42 9.5 65 12.9 0 0 16.8 7.3 27.4 7.8 0 0 24.6 1.7 38.1 9.5 0 0 61 17.4 82.9 15.7 0 0 22.9 1.1 4.5-22.5l-21.3-13.4s17.3 2.2 26.9 11.1c0 0 15.7 9 9.5 34.2 0 0-4 17.3-55.4 17.9 0 0-43.7-.6-53.2 5 0 0-15.7 1.7-24.6 14 0 0-10.1 9.6-21.9 9v5.1s16.8 0 19 21.3c0 0 4 23.5 26.3 34.2 0 0 4.5 15.1-8.9 17.3 0 0-18.5 10.1-19.1 19.6 0 0 1.1 11.2-7.8 10.7 0 0 2.2 13.5-9 11.2 0 0-5.6 10.6-6.2.5 0 0-5.1 6.7-9 2.8 0 0-10.1 10.1-5-2.8 0 0-10.6 14-3.4-7.3l9.5-8.4s18.5-22.4 22.4-25.2c0 0 19.6-7.2 1.6-26.3 0 0-20.2-6.1-32.4-23.4 0 0-2.8-.7-13.4-14 0 0-5.7 8.3-23.5-1.7 0 0-4.5-2.2-4 5-.1.3.4 5.3-14.1 19.9"/></svg>