<svg xmlns="http://www.w3.org/2000/svg" width="512" height="512" viewBox="0 0 512 512"><style>.st0{opacity:.8;fill:#46b3e3}.st1{fill-rule:evenodd;clip-rule:evenodd;fill:#fff}</style><path class="st0" d="M375 48.5l-.3.2H137L17.8 256.1 137 463.5h238.2l35.2-61.3 6.5-11.3L494.2 256 375 48.5z"/><path class="st1" d="M382.4 36.5H129.6L3.2 256l126.4 219.5h252.8L508.8 256 382.4 36.5zm24.1 363.6l-34.7 60.5H137L19.6 256.1 137 51.6h234.4l.3-.2 87.6 152.4c-10.3.8-20.6 1.6-30.9 2.2-29.6 1.9-59 .7-87.5-8.3-14.1-4.5-28.3-6.6-43.1-4.5-4.3.7-8.8.4-13.2.3-10.7-.5-21.2-.3-31.6 2.6-13.1 4-26.5 5-39.9 5-7.7 0-13.8-3.5-19.5-7.8-.8-.6-1.4-2.8-1.1-3 3.5-3 4-6.6 4.3-11 .4-4.4-.9-7.2-4-10.2-9.6 8.3-21.1 12.4-33.4 13.8-4 .5-9.1 1.5-12-.5-7.3-4.7-12.2-1.6-18 2.4-2.4 1.6-5.6 2.6-8.6 3-8.5 1-16 3.6-21.6 10.5-5.5 6.4-5 16.5 1 20.8.9-1.6 1.9-3.1 3.1-5.3 2.3 7.3 7.6 8.8 13.3 8.8 6.7-.3 13.3-1.1 19.8-2.4 10.4-2.1 19.7.4 28.9 4.9 13.3 6.4 24.8 15.2 35.3 25.4 2.1 1.9 5.4 3.5 6.2 5.8 1.9 6 2.7 12.4 3.8 18.7-7 3.2-7 3.2-8.5 10.5-.2 1.1-.4 2.8-1.1 3-6.1 2.4-5.2 7.9-5.5 12.5-.6 7.6 5.8 13.2 12.1 11-1.4-.6-3-1.2-5.1-2.2 1.6-.9 2.4-1.3 3.4-1.7-5.7-2.8-7.7-7-6.6-12.7.1-1.2 1.2-2.2 1.9-3.4 1 .7 2 1.2 2.9 2 2.5 2.1 5 4.1 8 6.5 2.5-6.6-5.9-4.7-5-9.5 1.9-.5 3.7-.9 5.5-1.2 1.8-.5 3.8-.8 5.6-1.2 5.7-1.8 7.5-4.5 7.7-10.4.1-1.2 0-2.8.7-3.7 2-2.6 4.3-4.9 6.3-7.3 5.2.5 10.5 1.1 15.8 1.7 6.3.7 12.5 1.5 19 2 3.8.4 5 1.9 4.2 5.9-1.7 7.3-1.3 14.6 2.9 21.1 4.4 6.8 9 13.7 13.7 20.5 4.2 6 9 11.4 13 17.5 6.3 9.4 6.2 9.5-.9 18-1.1 1.3-2 2.9-3.1 4.2-3.4 4.2-9.2 5.1-13.5 2-4.6-3.5-9.4-2.5-15.4-2.8 3 1.7 5 2.8 7.2 4.2-2.8 1.4-4.8 2.6-7.4 3.9 10.6 5.9 21 5.8 31.7 3.6 1.2-.2 2.5.7 4.5 1.2-4.2 5.7-7.6 10.8-11.4 15.7-2.9 3.8-8.1 4.1-11.5.7-5.3-5.2-12-4.9-19.3-5.6 5.4 3.2 10 6 15.2 9.2-4.4.9-7.8 1.4-11 2.6-1.6.6-2.9 2.3-4.3 3.5 1.7.9 3.4 2 5.2 2.8.8.4 1.9.1 2.8.1 8.9-.3 18-.6 27-1 .2 0 .4-.3 1-.6-.9-.8-1.7-1.5-2.4-2.1 3.1-2.9 6-5.7 8.9-8.5 1 1.2 2.2 2.6 3.4 4-2-5.7-.2-10.1 3.5-14.2 3.7-4.3 6.7-8.9 10.4-13.1 4.9-5.7 5.5-11.7 1.5-17.8-2.5-3.9-2-6.8.9-10.1 4-4.4 5.7-9.5 2.3-15.2-6.5-10.6-9.6-22.5-12-34.8-1.3-6.7-1.6-7 5.2-8.6 20.2-4.2 38.8-12.6 56.8-22.5 13.7-7.5 28-13 43.6-15.5 17.9-2.8 35.4-6.8 52.8-11.6l16.4 28.6L413 388.9l-6.5 11.2z"/></svg>