<svg xmlns="http://www.w3.org/2000/svg" width="512" height="512" viewBox="0 0 512 512"><path opacity=".8" fill="#46B3E3" d="M217.528 156.812c.945.963 8.562 2.95 13.498 4.168 5.102 1.025 19.245 14.706 20.846 16.994 1.475 2.346 4.14 1.4 4.14 1.4s1.2 1.558 2.82 1.873c1.667.325 9.464-3.273 11.1-3.914 1.65-.56 12.473-3.94 12.473-3.94s-1.41-1.56-3.687-2.182c-2.275-.705-10.422.548-19.725 2.12-9.332 1.41-13.743-3.53-14.943-5.1-1.155-1.51-13.634-11.323-17.96-13.053-4.25-1.893-14.403-7.63-16.73-14.466-2.354-6.91 4.317-13.34 4.317-13.34-.706-.08-9.283 5.26-7.617 12.955 1.62 7.794 11.077 12.09 14.993 14.306 4.07 2.18 7.057 4.23 7.057 4.23-1.155.564-10.582-2.047-10.582-2.047zm-2.376 2.05c-3.766-2.34-9.732-10.517-11.928-16.96-2.2-6.514 2.03-11 2.03-11-8.702 4.1-13.418 9.81-11.848 16.194 1.735 6.59 10.438 10.822 12.493 12.328 1.952 1.558 4.953 7.877 4.953 7.877s-1.125-5.45-2.695-7.874c-1.477-2.288-11.063-8.8-11.61-15.25-.48-6.44 4.473-8.156 4.473-8.156-3.924 11.076 14.13 22.844 14.13 22.844zm150.223 240.65c-35.04-3.223-57.825-23.5-72.98-34.473-15.328-10.94-34.027-21.08-46.9-22.1 0 0 23.25 18.23 26.086 35.11 0 0-12.95-11.626-19.4-16.96-6.447-5.34-27.658-27.02-45.65-24.2 0 0-2.82 2.662-8.884 4.31-6.207 1.74-18.135 4.57-21.746 4.412-3.72-.158-9.848-2.275-10.793-1.568-1.105.865-7.747 15.167-8.853 20.495-.945 5.254-8.417 38.9-8.757 42.203v.447c-.43-.7-2.646-5.724-2.48-13.964.06-8.965 2.48-22.868 2.48-25.066 0-2.21 1.365-9.815 3.8-14.062 2.406-4.316 5.087-18.135 5.087-18.135s-11.308-9.21-14.898-15.27c-3.62-5.963-14.368-32.427-15.554-37.456-1.185-5.033-1.25-12.345-1.25-12.345s-18.184 19.412-22.002 23.248c-3.784 3.783-15.566 16.836-17.317 16.13 0 0 4.107-6.928 5.758-9.426 1.558-2.6 11.694-14.16 11.694-14.16s15.33-22.69 20.75-28.828c0 0 .88-16.89 2.05-22.213 1.092-5.356 5.662-24.378 7.313-29.54 1.57-5.356 10.198-15.33 11.548-18.087 1.412-2.9 12.33-22.16 21.762-32.763 9.508-10.515 21.5-18.937 21.5-18.937s-.21-3.59.575-3.37c.87.07 2.587.71 4.157-.316 1.41-1.253 4.09-2.436 4.795-3.693 0 0 2.02-.38 3.125-.538 1.186-.168 5.342-2.766 7.297-3.634 2.05-.86 9.457-6.184 12.35-8.495 2.725-2.277 15.007-12.075 16.737-12.314l1.795.315s-.126-1.34.56-2.112c.564-.804 2.425-2.76 2.295-4.41 0 0 1.812-1.33 2.742-.945 1.09.24 2.585-.868 3.226-1.573.61-.705.13-1.493.85-1.493.627 0 2.98.624 3.94-.158.938-.884.853-2.36.853-2.36s4.62 0 5.42.466c.866.5 1.65-1.72 2.922-1.49 1.155.254 4.49 1.02 4.49 1.02s.605-1.407 1.39-1.25c.95.483.677.866 3.547 1.108 2.82.142 24.02-1.814 27.727-2.196 3.7-.338 24.354-3.144 24.354-3.144s3.146-1.668 7.152-.545c3.916 1.154 8.387 2.742 10.762 5.003 2.356 2.292 2.886 5.578 2.82 6.22 0 0 0 .16-.08.305-.544-.305-1.33-.527-2.055-.85-.22 1.17-.85 3.91-1.954 4.47 0 0 0-4.085.16-4.147.064-.097-.065-.58.165-.882-.39-.083-.8-.145-1.19-.403 0 1.507 0 4.713-.29 4.873 0 0-1.92-2.98-2.225-4.01 0 0 .304-.606.944-1.092h-.306c-.335 0-.785.164-1.125.31.1 1.267.274 4.33-.446 5.115 0 0-1.605-3.847-2.13-4.17-1.156.48-2.36.965-3.21 1.108 0 2.035-.08 5.5-.257 5.82 0 0-1.875-1.812-2.825-5.035-1.25.545-2.58 1.17-3.686 1.65-.16 2.358-.787 12.958-.787 12.958-2.26-1.874-3.075-10.21-2.905-10.534.1-.32.1-.623.1-.85-1.105.53-2.616 1.41-3.78 2.036 0 1.027-.486 5.883 1.104 9.35 0 0-3.77-1.57-4.187-8.243-.61.302-1.415.85-2.18 1.17l.16 5.34s-2.44-2.035-2.842-4.86c-1.17-.08-2.74 0-4.085.224.235 1.89.96 7.922.72 8.807 0 0-3.08-3.77-4.186-7.16-.61.56-1.09 1.11-1.716 1.74l.08 3.512s-1.41-1.314-2.136-2.502c-1.025.4-2.196 1.025-3.346 1.663.11.937.3 4.012.604 4.945 0 0-2.74-1.09-3.945-3.69-.444.08-1.09.224-1.635.322l.1.062v7.536s-3.32-2.503-4.105-6.592v-.3c-1.126.16-2.76.3-3.226.605-.467.255-1.89 1.123-3.127 1.83-.095.85-.16 2.26 0 3.287.24 1.41.545 4.728.545 4.728s-3.32-2.593-3.766-6.377c-.95.224-2.537.704-3.933 1.254 0 .702.16 4.808.77 6.523 0 0-2.435-.465-3.835-5.34-.62.322-2.195.8-4.086 1.41v.245s.08 4.71.144 4.95c0 .32-2.26-1.796-3.13-4.232-2.052.612-3.928 1.155-5.258 1.733 0 0 .065 0 .065.06 0 0-.145 5.42 0 6.13 0 0-2.194-1.252-3.13-4.875-.67.418-1.585.708-2.516 1.25h.29s.32 3.626.816 4.396c0 0-2.697-2.022-3.38-3.37 0 0 .062 0 .13-.22-.61.317-1.237.538-1.707.605.1.483.402 4.65.21 4.65-.11.146-3.193-2.917-3.673-4.09-2.76.945-6.99 3.38-8.4 4.09-1.89.77-2.76 4.412-1.106 4.412 1.65 0 4.793.46 4.793.46l1.65.224s-.4 4.175.306 4.498c.484.063 3.885 3.14 3.885 3.14h1.215c0-.38 0-1.99 1.22-2.114 0 0 .11 1.235.19 2.113.965 0 1.896.224 2.535.224 0-.604.146-1.25.146-1.25.787 0 1.17 1.026 1.49 1.96.56.227 1.427.544 2.15.72.387-1.27.853-2.68 1.478-2.68 0 0 1.026 1.734 1.266 3.387.72.143 1.155.305 1.716.465-.61-1.892-1.266-4.638.545-6.208 0 0 1.105 3.066 4.49 6.912.866.224 1.956.322 2.66.384-.16-1.334-.284-4.294.802-5.563 0 0 1.574 2.98 1.714 3.834.16.48.31 1.28.48 1.89h2.907c.32-1.57 1.41-7.31 2.98-7.535 0 0-.065 6.127-.16 7.312 1.575-.245 4.006-.647 5.486-.868.16-.624.335-1.506.64-2.6.565-2.032 2.036-5.9 2.036-5.9s.644 1.733.644 2.598c-.064.93-.484 3.85-.404 4.397.1.255.864 1.41 1.188 2.128 1.65.47 3.367.85 3.367.85l4.17-.38.062.08.193-.08.85-.322s1.106-4.715 2.677-5l-.255 5.1v.305l1.89.08s.086-.08.16-.322c.466-1.088 2.36-5.484 3.307-5.806 0 0-.707 5.18-.48 6.286.96-.542 3.46-1.728 4.81-1.19 0 0 1.79-6.587 1.715-8.625 0 0 2.195 3.433 1.105 8.246l1.73-.465s-.24-4.01 1.25-5.28c0 0 1.797 4.08 2.057 4.94l2.115-.466s-2.375-7.618.785-12.23c0 0 .85 4.85 1.46 6.89.626 1.57.98 3.53.98 4.107l.06.063h2.262s.083-.386.083-.93c.27-2.594.815-9.203 2.13-10.614 0 0 .866 7.454 2.147 9.814.13.16.21.32.39.38l1.022.26.215-.804c.635-.06 1.325-.06 2.146-.06 0 .227 0 .384-.175.607 0 0 2.757-.062 3.06-.608 0 0 1.09-4.255 2.503-4.556 0 0 1.126 1.41.34 4.136h2.34s1.09-4.135 2.598-4.395l.465 2.295 1.43-2.358s1.25 2.278.38 5.2c-.074.284-.22.867-.38 1.247 0 0 1.63 1.956.78 4.454-.78 2.44-1.52 6.45-7.472 7.25 0 0-10.276 6.126-12.712 6.834-2.6.64-15.33 6.286-16.804 7.436-2.056 1.604-9.288 5.84-11.003 6.468-1.65.703-5.29 3.058-6.766 3.058-1.525 0-9.107.07-9.107.07s-5.037 3.158-6.208 3.396c-1.106.062-4.94 0-6.27.465-1.35.56-4.495 3.546-7.476 3.354 0 0-3.08 4.91-4.94 5.61 0 0-3.637 4.877-5.452 5.805 0 0 2.216 2.05 1.576 5.516 0 0 6.04 4.46 2.98 11.384 0 0 6.67 8.876 11.098 11.39 4.17 2.34 20.72 14.13 30.787 29.076 9.958 15.08 10.133 17.108 10.613 20.794.465 3.626 4.956 9.913 6.062 15.395 1.24 5.418 1.96 9.972 3.194 11.96 1.33 2.037-.77 6.126-.77 6.126s-10.858-10.133-12.813-11.86c-2.02-1.796-18.86-22.79-22.55-28.29-3.605-5.48-19.625-36.687-36.06-32.518 0 0 0 7.855-1.255 11.316-1.325 3.534-3.766 16.646-4.246 20.022-.45 3.46-2.74 19.017-11.77 32.772l2.436 1.953s1.956-2.433 3.43-1.953c1.507.448 2.277 2.278 2.277 2.278s3.08-2.278 4.506-1.973c1.49.334 1.714 3.992 1.714 3.992s3.916-3.127 5.742-2.347c1.875.87.165 4.65.785 4.48.726-.145 6.367-3.997 8.018-2.134 0 0-.96 3.4-.17 3.623.843.08 5.59-3.928 7.47-2.518 0 0 .22 3.543-.165 4.33 0 0 6.606-2.982 7.776-2.36 1.206.628-.93 4.877-.3 5.04.61.16 7.132-2.68 8.947-1.416 0 0 0 2.904-.727 4.077 0 0 7.394-.305 9.05-.55 1.65-.08-.306 3.466-.79 5.198l9.752.466s0 2.984-1.65 3.83c0 0 3.706 1.432 4.79 1.67.967.23 3.467-.56 4.492.23.93.636-.48 3.456-.48 3.456s3.302 1.638 4.252 1.638c1.005 0 3.365-.222 5.016 1.026 0 0 .85 3.144-.255 4.254 0 0 3.08 2.032 3.88 2.032.852 0 5.803-.545 4.007 4.17 0 0 3.517 1.572 4.927 1.572 1.52 0 3.237-.323 4.15.77.968 1.28-.37 5.29-.37 5.29s2.604 0 4.254-.256c1.635-.157 3.125-.77 3.575-.306.5.56.5 2.52.34 3.546 0 0 3.46.623 4.165.306.864-.402 2.21-1.733 3.45-1.103 1.426.396.93 3.62.93 3.62s4.647-.946 6.202-1.734c1.735-.78 2.456-1.81 4.046-.236 1.636 1.81 5 .236 6.122-.546 1.17-.936 2.18-2.355 3.67-2.198 1.416.16 1.126 2.663 3.32 1.733 2.196-1.094 3.852-2.827 5.103-1.734 1.344 1.167-1.57 2.372 0 4.553 1.73 2.056 2.034 2.6.224 6.446-1.794 3.77 8.338 12.73 13.114 14.85 3.77 1.732 20.344 5.474 30.224 7.12l76.28-132.947-117.55-204.59-.25.186H138.586L21.126 255l117.46 204.5H373.41l34.7-60.48c-10.858 1.265-25.756 2.084-42.735.493zM254.037 107.65c1.125-.323 2.15-.63 2.15-.63s-.175-2.418-3.16-2.518c-2.98-.228-4.392 1.976-4.392 1.976v.542c1.41 1.813 4.217.945 5.402.63zm7.573 3.22c9.49-.162 10.116-8.964 10.76-9.99.78-1.092 13.02-5.1 13.02-5.1s-11.468-.866-12.238-.866c-.94 0-6.36-.547-7.776-.87-1.506-.303-5.276 2.378-5.276 2.378s6.99 1.875 7.827 6.444c.82 4.714-6.318 8.005-6.318 8.005z"/><path fill="#fff" d="M382.38 36.5H129.618L3.238 256l126.38 219.5H382.38L508.765 256 382.38 36.5zm-243.794 423L21.126 255l117.46-204.5H373l.25-.186 117.546 204.593-76.278 132.947c-9.88-1.646-26.454-5.388-30.224-7.122-4.776-2.118-14.908-11.077-13.113-14.85 1.814-3.845 1.51-4.39-.222-6.445-1.57-2.18 1.345-3.386 0-4.554-1.25-1.093-2.906.64-5.102 1.733-2.195.93-1.905-1.573-3.32-1.733-1.49-.157-2.5 1.263-3.67 2.198-1.122.785-4.487 2.358-6.123.548-1.59-1.575-2.31-.545-4.045.237-1.556.788-6.2 1.733-6.2 1.733s.494-3.224-.932-3.618c-1.24-.63-2.586.7-3.45 1.102-.706.318-4.166-.305-4.166-.305.16-1.024.16-2.985-.34-3.546-.45-.464-1.94.15-3.577.307-1.65.255-4.25.255-4.25.255s1.335-4.01.37-5.29c-.916-1.09-2.63-.77-4.15-.77-1.41 0-4.928-1.57-4.928-1.57 1.796-4.715-3.155-4.17-4.006-4.17-.8 0-3.88-2.03-3.88-2.03 1.102-1.11.252-4.256.252-4.256-1.65-1.248-4.01-1.025-5.016-1.025-.95 0-4.25-1.64-4.25-1.64s1.41-2.82.478-3.456c-1.025-.788-3.525 0-4.49-.228-1.086-.238-4.792-1.67-4.792-1.67 1.65-.846 1.65-3.83 1.65-3.83l-9.752-.465c.485-1.732 2.44-5.28.79-5.2-1.654.247-9.047.55-9.047.55.726-1.17.726-4.076.726-4.076-1.817-1.263-8.34 1.575-8.95 1.415-.63-.163 1.506-4.41.3-5.04-1.17-.62-7.776 2.36-7.776 2.36.385-.787.165-4.33.165-4.33-1.88-1.41-6.628 2.598-7.473 2.518-.79-.225.17-3.623.17-3.623-1.65-1.863-7.292 1.988-8.017 2.136-.62.17 1.09-3.612-.785-4.48-1.826-.78-5.742 2.346-5.742 2.346s-.225-3.658-1.715-3.993c-1.426-.306-4.506 1.973-4.506 1.973s-.77-1.83-2.275-2.278c-1.475-.48-3.43 1.953-3.43 1.953l-2.437-1.952c9.027-13.756 11.318-29.312 11.768-32.772.48-3.376 2.92-16.487 4.246-20.02 1.256-3.462 1.256-11.316 1.256-11.316 16.434-4.17 32.453 27.035 36.06 32.516 3.69 5.5 20.53 26.494 22.55 28.29 1.955 1.728 12.812 11.862 12.812 11.862s2.1-4.09.77-6.128c-1.234-1.987-1.954-6.54-3.194-11.96-1.105-5.48-5.597-11.77-6.062-15.395-.48-3.686-.655-5.714-10.613-20.795-10.066-14.946-26.615-26.736-30.786-29.074-4.427-2.516-11.098-11.39-11.098-11.39 3.06-6.925-2.98-11.384-2.98-11.384.64-3.466-1.578-5.516-1.578-5.516 1.815-.928 5.452-5.804 5.452-5.804 1.86-.703 4.94-5.61 4.94-5.61 2.98.19 6.127-2.794 7.477-3.354 1.326-.465 5.16-.403 6.267-.465 1.17-.238 6.207-3.396 6.207-3.396s7.582-.07 9.107-.07c1.477 0 5.117-2.356 6.768-3.06 1.714-.627 8.946-4.863 11.002-6.466 1.475-1.15 14.203-6.795 16.804-7.435 2.436-.708 12.713-6.834 12.713-6.834 5.95-.8 6.69-4.81 7.472-7.25.85-2.497-.78-4.455-.78-4.455.16-.38.304-.962.38-1.248.87-2.922-.38-5.2-.38-5.2l-1.43 2.358-.467-2.295c-1.506.26-2.596 4.395-2.596 4.395h-2.34c.784-2.727-.34-4.137-.34-4.137-1.412.3-2.502 4.554-2.502 4.554-.305.545-3.06.608-3.06.608.174-.223.174-.38.174-.608-.82 0-1.51 0-2.147.062l-.215.804-1.02-.26c-.18-.062-.26-.223-.39-.38-1.28-2.36-2.147-9.815-2.147-9.815-1.314 1.41-1.86 8.02-2.13 10.612 0 .545-.085.93-.085.93h-2.26l-.06-.062c0-.578-.356-2.538-.98-4.106-.61-2.04-1.462-6.892-1.462-6.892-3.16 4.613-.785 12.23-.785 12.23l-2.116.465c-.26-.86-2.056-4.938-2.056-4.938-1.49 1.27-1.25 5.278-1.25 5.278l-1.73.465c1.09-4.813-1.105-8.247-1.105-8.247.076 2.038-1.714 8.625-1.714 8.625-1.35-.537-3.852.648-4.812 1.19-.225-1.104.48-6.285.48-6.285-.945.322-2.84 4.718-3.307 5.806-.076.244-.16.324-.16.324l-1.89-.08v-.305l.253-5.1c-1.57.285-2.676 5-2.676 5l-.85.324-.195.08-.06-.08-4.173.38s-1.715-.38-3.365-.85c-.324-.718-1.09-1.873-1.19-2.128-.08-.547.34-3.468.405-4.398 0-.865-.645-2.598-.645-2.598s-1.47 3.868-2.036 5.9c-.307 1.094-.48 1.977-.64 2.6-1.48.22-3.913.622-5.488.867.095-1.185.16-7.312.16-7.312-1.57.224-2.66 5.963-2.98 7.536h-2.906c-.17-.61-.32-1.41-.48-1.89-.14-.856-1.715-3.834-1.715-3.834-1.085 1.268-.96 4.23-.8 5.562-.705-.062-1.795-.16-2.66-.385-3.386-3.847-4.49-6.913-4.49-6.913-1.81 1.57-1.156 4.316-.546 6.21-.56-.16-.994-.323-1.715-.466-.24-1.653-1.266-3.386-1.266-3.386-.626 0-1.09 1.41-1.477 2.678-.726-.174-1.59-.49-2.15-.72-.32-.932-.705-1.957-1.49-1.957 0 0-.146.645-.146 1.25-.64 0-1.57-.225-2.535-.225-.08-.877-.19-2.113-.19-2.113-1.22.125-1.22 1.733-1.22 2.113h-1.216s-3.4-3.076-3.886-3.138c-.705-.323-.306-4.496-.306-4.496l-1.65-.223s-3.142-.46-4.792-.46c-1.655 0-.785-3.64 1.105-4.41 1.41-.71 5.643-3.146 8.403-4.09.48 1.17 3.56 4.235 3.67 4.09.195 0-.11-4.168-.21-4.65.47-.068 1.096-.29 1.706-.606-.065.22-.13.22-.13.22.685 1.348 3.38 3.37 3.38 3.37-.494-.77-.814-4.395-.814-4.395h-.29c.93-.543 1.846-.834 2.516-1.25.936 3.623 3.13 4.875 3.13 4.875-.145-.71 0-6.13 0-6.13 0-.06-.064-.06-.064-.06 1.33-.58 3.205-1.122 5.256-1.734.87 2.436 3.13 4.553 3.13 4.23-.064-.237-.145-4.95-.145-4.95v-.243c1.89-.61 3.466-1.088 4.086-1.41 1.4 4.875 3.837 5.34 3.837 5.34-.61-1.715-.77-5.82-.77-6.524 1.395-.55 2.98-1.03 3.93-1.253.445 3.784 3.767 6.377 3.767 6.377s-.306-3.318-.546-4.727c-.16-1.026-.095-2.437 0-3.287 1.235-.708 2.66-1.575 3.126-1.83.466-.306 2.1-.446 3.227-.606v.3c.786 4.09 4.106 6.592 4.106 6.592v-7.54l-.1-.06c.545-.1 1.19-.245 1.636-.325 1.205 2.6 3.945 3.69 3.945 3.69-.305-.932-.495-4.007-.604-4.943 1.147-.638 2.32-1.263 3.344-1.663.725 1.19 2.136 2.503 2.136 2.503l-.08-3.513c.626-.626 1.105-1.176 1.716-1.736 1.104 3.39 4.186 7.16 4.186 7.16.24-.886-.485-6.918-.72-8.808 1.345-.225 2.915-.305 4.085-.225.4 2.828 2.84 4.86 2.84 4.86l-.16-5.34c.768-.32 1.57-.866 2.183-1.17.415 6.674 4.187 8.244 4.187 8.244-1.59-3.466-1.105-8.322-1.105-9.35 1.165-.625 2.676-1.505 3.78-2.036 0 .228 0 .53-.1.85-.17.323.646 8.66 2.906 10.535 0 0 .626-10.6.786-12.957 1.104-.48 2.436-1.105 3.686-1.65.95 3.223 2.823 5.034 2.823 5.034.176-.32.256-3.785.256-5.82.85-.143 2.055-.625 3.21-1.108.525.323 2.13 4.17 2.13 4.17.72-.784.546-3.847.446-5.113.34-.15.79-.31 1.125-.31h.308c-.64.483-.945 1.09-.945 1.09.305 1.03 2.226 4.01 2.226 4.01.29-.16.29-3.366.29-4.874.39.258.8.32 1.19.403-.23.3-.1.784-.166.882-.16.063-.16 4.15-.16 4.15 1.105-.56 1.735-3.302 1.955-4.472.725.324 1.51.546 2.055.85.08-.144.08-.304.08-.304.064-.643-.465-3.928-2.82-6.22-2.376-2.262-6.847-3.85-10.763-5.005-4.005-1.12-7.15.547-7.15.547s-20.655 2.806-24.355 3.144c-3.706.383-24.906 2.34-27.728 2.196-2.87-.242-2.597-.625-3.547-1.107-.784-.16-1.39 1.25-1.39 1.25s-3.335-.77-4.49-1.023c-1.27-.228-2.056 1.99-2.92 1.49-.8-.468-5.42-.468-5.42-.468s.083 1.477-.853 2.36c-.96.783-3.315.157-3.94.157-.72 0-.24.788-.85 1.493-.642.704-2.137 1.812-3.227 1.572-.932-.386-2.742.944-2.742.944.13 1.65-1.73 3.606-2.294 4.41-.686.77-.56 2.112-.56 2.112l-1.797-.315c-1.73.24-14.014 10.04-16.74 12.316-2.89 2.31-10.297 7.632-12.35 8.493-1.953.87-6.11 3.467-7.295 3.632-1.105.158-3.126.538-3.126.538-.706 1.258-3.387 2.44-4.797 3.693-1.57 1.025-3.286.385-4.156.315-.785-.22-.575 3.37-.575 3.37s-11.994 8.424-21.5 18.94c-9.435 10.602-20.35 29.86-21.763 32.762-1.35 2.757-9.978 12.73-11.55 18.086-1.65 5.16-6.22 24.183-7.312 29.54-1.17 5.323-2.05 22.212-2.05 22.212-5.422 6.136-20.75 28.828-20.75 28.828s-10.138 11.56-11.693 14.16c-1.65 2.497-5.757 9.424-5.757 9.424 1.75.707 13.533-12.346 17.317-16.13 3.818-3.835 22.003-23.247 22.003-23.247s.064 7.312 1.25 12.345c1.186 5.03 11.933 31.493 15.554 37.457 3.59 6.06 14.9 15.27 14.9 15.27s-2.68 13.816-5.087 18.133c-2.436 4.247-3.8 11.854-3.8 14.062 0 2.198-2.422 16.102-2.48 25.066-.166 8.24 2.05 13.265 2.48 13.967v-.447c.34-3.304 7.81-36.95 8.756-42.203 1.105-5.328 7.747-19.63 8.853-20.495.945-.708 7.07 1.41 10.792 1.567 3.61.156 15.54-2.675 21.746-4.41 6.064-1.65 8.884-4.314 8.884-4.314 17.994-2.82 39.205 18.86 45.65 24.2 6.452 5.335 19.405 16.96 19.405 16.96-2.836-16.882-26.087-35.11-26.087-35.11 12.873 1.02 31.572 11.157 46.9 22.098 15.154 10.976 37.94 31.25 72.98 34.475 16.98 1.59 31.877.772 42.736-.492l-34.7 60.48H138.585zm82.468-304.868c-3.916-2.215-13.373-6.512-14.993-14.306-1.663-7.694 6.914-13.036 7.62-12.956 0 0-6.672 6.432-4.316 13.34 2.325 6.838 12.478 12.574 16.73 14.467 4.325 1.73 16.804 11.545 17.96 13.053 1.2 1.573 5.61 6.51 14.942 5.1 9.303-1.572 17.45-2.825 19.725-2.117 2.276.623 3.687 2.18 3.687 2.18s-10.823 3.382-12.474 3.942c-1.635.64-9.432 4.24-11.098 3.914-1.62-.318-2.82-1.876-2.82-1.876s-2.666.945-4.14-1.4c-1.602-2.288-15.745-15.97-20.847-16.994-4.937-1.217-12.553-3.205-13.498-4.167 0 0 9.425 2.61 10.58 2.05 0 0-2.986-2.052-7.057-4.232zm-24.5-10.46c.545 6.452 10.132 12.963 11.607 15.25 1.57 2.424 2.698 7.878 2.698 7.878s-3-6.32-4.956-7.877c-2.055-1.505-10.757-5.736-12.492-12.328-1.57-6.384 3.146-12.093 11.848-16.192 0 0-4.23 4.484-2.03 10.998 2.195 6.447 8.162 14.624 11.928 16.964 0 0-18.054-11.768-14.128-22.846 0 0-4.952 1.717-4.472 8.156zm52.082-37.152v-.542s1.41-2.203 4.392-1.976c2.985.1 3.16 2.518 3.16 2.518s-1.025.308-2.15.63c-1.186.315-3.992 1.183-5.402-.63zm19.29-4.153c-.836-4.57-7.827-6.444-7.827-6.444s3.77-2.68 5.273-2.378c1.415.323 6.837.87 7.776.87.77 0 12.24.865 12.24.865s-12.24 4.01-13.02 5.102c-.646 1.025-1.27 9.827-10.763 9.99 0 0 7.138-3.292 6.318-8.005z"/></svg>