<svg id="Layer_1" xmlns="http://www.w3.org/2000/svg" width="512" height="512" viewBox="0 0 512 512"><style>.st0{fill:#fff}.st1{opacity:.8;fill:#46b3e3}</style><path class="st1" d="M376.7 45.4l-.3.2H135.2L14.3 256.1l120.9 210.5h241.7l35.7-62.2 6.6-11.5L497.7 256l-121-210.6z"/><path class="st0" d="M461.9 174.6l-2-3.5-77.5-134.6H129.6L3.2 256l126.4 219.5h252.8L508.8 256l-46.9-81.4zm-88.5 284.9H138.6L21.1 255 138.6 50.5H373l.3-.2L445 175.1c-2.5.8-4.9 1.6-7.4 2.1-7.6 1.6-15.5 2.9-23.1 3.3-8.7.5-17.7.5-26.2-.7-8.2-1-16.2-3.7-24.2-6-10.8-3-18.6-10.5-26.9-17.3-6-4.9-12.6-8.2-19.7-10.3-6.2-1.7-12.5-2.1-18.7-3.1-12.5-1.8-24.3.3-35.2 6.6-6.9 4-13.5 8.8-19.8 13.8-6.2 4.9-12.4 7.2-20.5 5.4-6-1.5-12.3-1.9-18.5-2.4-7.5-.6-15.2-.8-22.7-1-11.1-.4-22.1-.9-33.2-1.1-2.4 0-3.9-.6-4.2-3.3 0-.8-.8-1.4-1-2-4 .9-5.1 6.4-10.1 5-.8-4.3-2.2-8.4-5.8-12.1-.3 1.3-.6 2-.7 2.8-.6 3.6-1.7 7-4.1 9.6-2 2.2-4.1 2.2-6.2.2-.9-.8-1.8-1.7-3.3-3-.2 1.8-.2 3-.5 4s-1.1 2.5-1.8 2.5c-7.5.9-13.4 5-19.5 8.8-5.8 3.7-9.1 9.1-8.8 15.9.3 7.1 2.3 14.1 5.5 20.5 3.8 7.6 8.6 14.6 12.8 22.1 3.2 6.1 5.7 12.5 8.8 18.6 1.6 2.9.9 4.9-1.1 6.8-2.9 2.9-4.1 3.5.8 5.6.2 0 .2.2.2.3-2.8 4-2.8 4.1 2.1 5.2.1 0 .2-.1.2 0 1.8.9 4.8 1.5 5 2.7.9 3 4.4 6.3.5 9.6-.6.6-.8 2.3-.3 3.2.4.7 1.9.7 3 .8 1 .1 2-.3 2.8 0 .8.1 1.5.6 1.8 1.2.3.4 0 1.3-.3 1.9-1 2.2-2.4 4.3-3.3 6.6-.7 1.7-.2 3.4 2.3 3.1 2.1-.3 4.2-.5 6.2-1.2 1.9-.8 2.6 0 3.5 1.3 3.8 5.5 10 7.8 15.7 6.1-.2-3.7-.3-7.2-.5-11 3 .5 2.9 2.5 2.9 4.2v5.3c6.6-1.7 8.8-4 10-9.8.3-1.4.1-2.9.5-4.2 1.8-7.4 3.7-14.8 5.6-22.1 1-3.8 2.6-7.5 3.1-11.2.5-5.2 2.3-8.6 7.7-10.4 8.8-3 17.6-6 27.1-4.4 4.3.7 9 .9 10.7 6.2 0 .2.2.4.4.6 1.7 1 1.3 2 .1 3.1-.9.7-1.9 1.3-2.9 1.9-2.5 1.9-5.3 3.4-7.5 5.8-4.2 4.3-8.2 8.9-13.8 11.7-5.3 2.8-9.9 6.8-12.9 12.1-2.1 3.9-5.2 6.5-9.1 8.3-5.4 2.7-9.3 6.6-12 12-.8 1.6-1.8 3.5.5 4.8 1.8.8 1.7 1.8.6 2.9-3.1 4-4.6 8.7-5.4 13.5-.2 1 .5 2.8 1.4 3.2.8.5 2.5 0 3.4-.7.9-.5 1.4-1.8 2.1-2.9.6-.7 1.3-1.3 1.9-2.1.3.2.4.4.6.5-.1.8-.4 1.6-.4 2.3.1 1.4.1 3.4.7 3.5 1 .6 2.7 0 4.1-.3.5-.1.8-1 1.2-1.5.7-1.8 1.3-3.6 2-5.5 1.1.7 1.9 1.4 2.8 1.8 5.1-2 2.3-7.5 5.1-10.6.4.4.9 1 1.2 1.3 3.1-.2 3.7-2 3.5-4.6-.2-.7-.2-1.3 0-1.9.7-4.7 1.4-9.4 6.2-11.9 2.5-1.4 4.9-3 7.4-4.3 6.3-3.1 12.9-5.9 18.2-10.8 3.3-3.1 6.3-6.6 10.4-9.1 3.7-2.3 6.2-5 11.3-2.3 6.1 3.3 13.3 4.3 20.4 4 .9 0 2.3 1.2 2.4 2 .2 1.7-.5 3.4-.8 5.2-.2 2.3-.2 4.5 1.6 6.5 4.1 4.4 8.3 8.9 12.5 13.6.6.6 1.5.9 2.3 1.2 2.1.9 4.2 1.4 6.2 2.5.8.4 1.7 1.7 1.7 2.4 0 3.7-1.9 6.8-4.5 9.2-3.4 3.3-7.8 4.5-12.3 5.4-3.9.8-6.3 3.2-8.1 6.3-.4.7-.2 2.3.4 3 .4.6 1.7.9 2.6.6 2.1-.3 4.2-.8 6.3-1.3.2.4.4.7.7 1.2-2.4 3.5-4.7 7-6.8 10.6-.8 1.4-1.5 3-1.6 4.7-.1 2.8 1.6 3.8 4.3 2.7.6-.3 1.2-.7 1.6-1 1.9-1.6 3.7-3.2 5.5-4.9 1.6-1.4 3.1-2.9 4.7-4.5-1.2 3.6-2.8 6.7-4.1 10.1-.4 1.2-.1 2.7-.1 4 1.5-.2 3 0 4.4-.5.8-.1 1.5-.8 2.1-1.5 2.4-3.1 4.9-6.2 7.7-9.5v4.7c3.8 1.3 5.3.3 6-3.9.3-2.4.7-4.9 1-7.3 1.2 1.6 2.2 2.8 3.8 1.4.7-.5 1-1.8 1.1-2.5.2-5 .3-9.9.4-14.8 0-.4.2-1 .4-1.5 5.7 2.3 8.5 8.1 7.3 14.5-1 6-2.1 11.8-3.1 17.6-.3 2-.2 4 0 6 0 1 .7 2 1 3.1 1.6 5.7 3.6 9.8 8.9 8.2.2-1 .5-1.9.7-3.4 3.9 5.2 8.2 8.8 15 7.1-2.6-3.9-4-8-3.3-12.8 3.6 1.3 6.7 4.4 11.2 3-.2-.8-.3-1.7-.5-2.5-.5-3-3.2-5.6-1.2-8.9.4-.7.2-2.2-.3-2.9-3.8-6-4.5-13-6.1-19.5-.6-2.4-.7-5-2.9-6.9-1.1-.9-1.9-2.5-2.9-4 2.1-.5 3.8-.8 6.1-1.3-1.5-1.6-2.6-2.8-3.9-3.9-2.7-1.9-5.5-3.6-8-5.9-1.1-.8-1.9-2.5-2.4-4.1-1.7-4.1-4.1-8-2-13 1-1.7 1.3-4.2 1-6.4-.6-3.9-.2-4.9 3.6-6.3 6.5-2.3 12.9-5 18.6-9.1 2.6-1.9 3.3-1.6 4.1 1.6 1.2 5.8 2.5 11.6 4.3 17.2 2.3 6.6 3.5 13.7 6.8 20 1.2 2 .8 5 1.8 7.1 3 6.4 6.1 12.9 9.7 18.9 4.5 7.6 7.2 15.8 4.7 24.3-2 7.1-5.6 13.5-13.4 16.6-3.6 1.4-7.1 3.4-8.5 7.8-.8 3 .3 5.8 1.2 8.6.7 1.9 1.5 3.8 2.7 5.5 1.7 2.4 2.5 2.3 5 .3 1.5-1.2 3.1-2.4 4.7-3.4 1.5 2.7 2.8 5.3 4.4 7.5.6.9 2.2 1.7 3 1.4 3.4-.8 5.7-2.9 6.7-6.8.5-2.2 2.4-4.2 3.8-6.1.3-.4 1.7-.5 2-.3 2.2 1.8 4.3 3.7 6.1 5.7 1.3 1.3 1.8 3.1 3.2 4.1 1.5 1.3 3.9 2.9 5.2 2.4 1.4-.5 2-3.4 2.6-5.1.7-2.3.2-5.1 1.5-6.6 2.3-3 1-5.1-.2-7.7-2.5-5.2-4.9-10.6-7.3-16-.2-.3-.3-.8-.4-1.2-.4-6.3-1.1-12.5-1-18.8.1-5 1.3-9.9 1.8-15 .6-6.2.6-12.5-.9-18.6-1.4-5.7-3.3-11.4-4.7-17.2-2-7.8-.4-15.6.1-23.3.6-7.8 2.1-15.7 2.5-23.4.3-7.5-.2-15-.4-22.5-.1-2-.2-4 1.9-5.4 7.6-5.1 15.3-10.3 23-15.3 7.5-4.8 15.1-9.6 22.8-14 4.7-2.9 9.5-5.5 14.2-8.2l41.8 72.7-117.3 205.4z"/></svg>