<svg id="Layer_1" xmlns="http://www.w3.org/2000/svg" width="512" height="512" viewBox="0 0 512 512"><style>.st0{fill:#fff}.st1{opacity:.8;fill:#46b3e3}</style><path class="st1" d="M376.7 45.4l-.3.2H135.2L14.3 256.1l120.9 210.5h241.7l35.7-62.2 6.6-11.5L497.7 256l-121-210.6z"/><path class="st0" d="M487 218.2l-64.9-112.8-39.7-68.9H129.6L3.2 256l126.4 219.5h252.8L468 326.8l13.7-23.8 27-46.9-21.7-37.9zM373.4 459.5H138.6L21.1 255 138.6 50.5H373l.3-.2 33.5 58.2c-5.6 1.4-11.3 3-18 4.9-69.4 19.5-113.6 37.5-116.8 44.9-3.2 7.2-.9 9.8-7.4 9.8s-20.4 9.7-28.6 27.7c-8.1 18-.8 20.4-12.2 26.9-11.4 6.4-41.6-25.4-39.2-50.6 2.5-25.4 25.4-31 31.1-31 5.7 0 13.1-6.6 0-11.5s-57.9 8.1-83.4 35.1c-25.2 27-36.7 56.3-39.9 56.3-3.3 0-7.4 9.9-1.7 12.2l5.7 2.6s8.9 1.5 16.4-2.6c7.4-4.1 18-11.3 26.1-7.3 8.1 4.1 14.7-5 20.4 9.8 5.7 14.6 18.8 44.1 38.4 52.1 19.6 8.2 34.3-4.1 40 7.4 5.7 11.5 10.7 32.6 10.7 32.6s-12.3 21.3-14.7 27c-2.5 5.8-13.9 14.8-13.9 19.7 0 0 2.9 10.5-2.4 15.4-5.3 5-13.5 8.2-13.1 11.4.4 3.3 3.7 3 3.7 3s-3.3 3.6 3.2 4.1c6.5.4 12.7-4.9 14.3-7.8 1.6-2.9 3.7-4.2 3.7-2 0 2 3.3 2.7 3.7-.9.4-3.6-3.7-15.8 6.2-26.5 9.8-10.5 31.4-35.9 31.4-43.6 0-7.9-1.2-18.4-1.2-18.4l17.6.4s-7.4 20.4-10.6 26.2c-3.2 5.6 3.3 12.9 3.7 18.7.4 5.6-.8 21.6 1.6 21.6 2.5 0 4.9-4.4 4.9-4.4s.9 5.2 4.6 5.2c3.7 0 6.5-13.8 4.9-17.5-1.6-3.6-4.5-7.7-2.5-7.7 2.1 0 5 2.4 4.5-1.3-.4-3.6-10.6-11.5-8.1-14.3 2.4-2.8 19.9-24.1 21.2-26.2l1.2-2.1s22.9 0 34.4-2.8c11.4-2.8 14.3-6.1 16.7-4.4 2.5 1.6 7 9.3 13.9 11.4 7 2.1 10.6 1.3 16.3 10.2 5.8 9 15.2 19.2 11.9 22-3.3 2.9-6.6 13.1-14.7 13.1s-11 2.4-13.9 6.2c-2.9 3.6-6.5 10.5-11 13.4-4.6 2.9-11.1 12.3-9.5 14.7 1.6 2.4 16-2.9 17.2-4.5 1.2-1.5-6.2 8.6 2.8 8.6s21.6-15.5 22.1-18c.3-2.4-.5-5.7 5.2-9.8 5.7-4.1 23.3-13.9 23.7-17.5.4-3.6 2.1-13.1-4-17.6-6.2-4.4-11.9-20-13.1-26.4-1.2-6.5-.9-10.3-.9-10.3s20.5 20.5 42.7 26.6l-78.7 136.8zm97.3-169.6c-8.9-8.6-20.8-17.2-20.8-17.2s18.8-15.5 33.6-15.5c2.9 0 4.5 0 6.3-.4l-19.1 33.1z"/></svg>