<svg xmlns="http://www.w3.org/2000/svg" width="512" height="512" viewBox="0 0 512 512"><style>.st0{fill:#fff}.st1{opacity:.8;fill:#46b3e3}</style><path class="st1" d="M375 48.5l-.3.2H137L17.8 256.1 137 463.5h238.2l35.2-61.3 6.5-11.3L494.2 256 375 48.5z"/><path class="st0" d="M382.4 36.5H129.6L82.7 118l-1.5 2.7L3.2 256l126.4 219.5h252.8L508.8 256 382.4 36.5zM137 51.6h95.4c2.6 9.4 5.5 18.8 6.5 28.5 3.2 31.1-1 61.5-4.3 92.4-4.6 19-9.4 37.8-14.4 56.7-4 10.8-7.2 21.5-12.5 31.6-2.9-6.6-5.2-13.4-8.4-19.8-1.2-2.4-3.5-4.5-4.6-6.8-.8-1.8-1.3-3.9-1.1-5.8.2-1.3 1-2.1 1.8-2.8.7-1 .9-1.8.4-2.8.3-.4 1.2-1.3 2.2-1.6-1.6-.3-2.5 0-3.2.8-2.4.4-2.9 2.5-3.7 4.4-.3-.8-.6-1.5-.9-2.5-.2-.8 0-1.2.3-1.9 1-1.4 1.3-2.6 1-4 1.1-.9 2-1.3 3.3-1.9-2-.3-2.5-.3-4.3.7-.3 0-1.6-.1-2.4.8-.4.3-.5 1-.5 1.5-.1.7.1 1.3.1 2-.1 1.1-.2 1.9-.4 2.7-.5-1.5-1.2-2.9-1.5-4.4-.4-2.2.8-2.5 1.3-4.3.2-.4.4-1.4 0-1.6.7-.7.8-1 2.2-1.3-1.6-.3-2.2-.4-3.5.4-2.4.2-2.4 1.2-3.1 3.2-2.8-3.6-5.7-7.1-8.6-10.6-6.7-8.6-12.6-17.7-19.9-25.7-8.4-9.6-17.8-18.1-27.1-26.8-6.2-5.7-12.2-11.7-19.1-16.8-4.5-3.3-9.1-6.6-13.7-9.8L137 51.6zm269.6 348.5l-34.7 60.5H137L19.6 256.1l71.5-124.5c3.2 4.2 6.3 8.6 9.2 13.2 4.4 6.7 8.9 13.1 13.2 20 6.8 10.6 13.5 21.1 19.7 32.1 6.5 11.2 12.6 22.8 18.2 34.4 4.6 9.5 8.6 19.5 12.5 29.4 6.7 17.1 11 30.7 12.4 49.1.4 4 0 8.4-.2 12.7-4.6 1.3-9.5 3.4-14.1 4.4-2.1.4-3.7.5-5.4.1-1.2-.3-1.9-1.5-3-1.8-1.8-.5-3.6 0-5.5 0-.7 0-1.5.3-2.3 0-.7-.1-1.4-.8-2.1-1.5-.6-.4-1-.7-1.2-1.3-.2-.6.4-.6.5-1.7.1-.5-.4-.7-.5-.8.4-1 .8-1.5 1.5-1.9-1.5.1-2.2.2-3 1.4-1.4.3-1.4 1.2-1.4 1.8.1 1 .4 1.7.9 2.5.5.7 1.2 1.2 2 1.8-.7-.3-1.4-.3-2-.5-.9-.3-1.8-.6-2.4-1.2-.5-.3-.8-1.1-1.2-1.8-.2-.3.1-.7-.2-1.1-.3-.3-.6-.2-1-.2-.4-.7-.9-1.6-.7-3-.7 1.1-1.1 2.2-.5 3.6-.1.2-.4.5-.3.8 0 .5.2.8.3 1.2.3.3.7.4.9.7.3.3.5.8.9 1.1.5.4 1.4.7 2 1.1.2.3.3.5.5.7-.6 0-1.2.1-1.8.1-.9-.2-2-.2-2.8-.8-.6-.4-.9-1.1-1.4-1.5-.4-.3-.7 0-1.1 0-.7-1-1-1.4-1.2-2.2-.3 1.1-.3 1.8.1 2.6 0 1.1 0 1.7 1 2.2.4.4.9.5 1.4.6.5.3 1.2.3 1.6.5-.8.1-2.2-.4-3-.2-.3.1-.5.4-.8.7-.9-.3-1.2-.4-1.9-1 .5 1.2.5 1.2 1.8 1.5.2.3.4.6.6.7.4.3 1 .5 1.6.5.8.1 1.6-.2 2.4-.2 1.5 0 2.9 0 4.5-.1 1.2.1 2.5.1 3.8.1 1.4.3 3.1.6 4.5.7 1 .2 2 .4 3 .3 1.6-.1 2.9-.8 4.5-1.1 2.6-.6 5.3-.4 8-.8 1.9-.4 5.5-1.1 8.1-1.4 2.7-.5 5.2-.7 7.8-1.1-1.2 1.1-2.5 1.9-3.7 2.7-1.2 1.1-2.4 2.2-3.7 3.2-1.6 1-3.3 2.2-5 3-.8.3-1.5.5-2.2.5-.7.2-1.4 0-2.3.2-2.2.2-3.1.8-4.4 2 1.5-.1 2.7-.2 3.5.6 2.1 1.7-4 6.1-4.6 6.6-1.1.7-1.8 1.8-2.9 2.5-.7.3-1.5.3-2.3.1-1.3-.3-1.7-1.1-3.2-.4-.9-.6-1.1-.7-1.4-1.7-.3.9-.3 1.4.5 2.4-.1.7-.1 1.1.6 1.5.3.3.7.3 1.2.4-.5 0-.9.2-1.4.2-.5 0-1.2.1-1.7-.2-.5-.1-1.4-.9-1.8-.9-.8-.3-1.4-.2-1.8.1-.8-.4-1.5-1.1-1.8-1.8 0 1.1 0 1.7.5 2.6-.2 1.7 1.3 1.8 2.7 2.1.3.1.7.2 1.2.4-.4 0-1 .1-1.3.1-.7 0-1.4.1-2-.1-1.3-.3-1.1-1.5-2.6-1.5-.5-.5-.9-1-1.1-1.8-.5 1.1-.4 1.8-.1 2.7-.2.7 0 1.3.6 2 .2.1.5.3.8.3.7.1 1.3.1 2 .2-.6.2-1.2.5-1.9.5-.4 0-.7-.3-1.2-.5-.3 0-.6.3-1 .3-.9-.3-1.1-.5-1.6-1.2 0 1.1.2 1.3 1.3 1.9.2 1.1.7 1.2 1.7 1.3.9.1 1.8-.2 2.7-.2 1.2-.1 2.4-.2 3.6-.2 1.1-.2 2.2.1 3.2-.2.9-.1 1.8-.5 2.5-1.1 1-.5 1.8-1.6 2.6-2.3.4-.5 1-.9 1.6-1.2 1.1-.5 2.4-.4 3.4-1.1.8-.7 1.4-1.8 2-2.8.8-1.2 1.5-2.6 2.4-3.7 1.2-1.6 2.7-3.2 4.1-4.4 1.1-1.1 2.4-2.1 3.9-2.8 1.5-1 3.3-1.5 4.9-2.3 2.3-1.3 4.4-2.5 6.6-3.8 2.3-1.2 4.7-2.6 7.1-3.6 4.9-1.8 10.7.6 15.7 1.3 7.9 1.4 18.3 4.8 26 4.6 5.1-.2 9.9-2.4 15-3.1 5.8-1.1 11.7-1.9 17.6-2 7.8-.3 15.7.1 23.3 1.1 3.9.3 7.3 2.1 10.9 3 2.5.4 4.9.5 7.7.6 2.7.1 5.5-.6 8.1-.2 2.6.7 4.8 3 7.4 4 3.8 1.5 7.6 2.9 11.5 3.9 2.3.5 5-.2 7.3.7 3.2 1.2 5.7 3.3 8.4 5.2 2.1 1.2 4 2.8 5.9 4.3 2.8 2.3 5.6 4.8 8.4 7.2 2.9 2.3 5.8 4.8 9 6.9 3.2 2 6.5 4.1 10.1 5.7 1.8.7 3.7.9 5.7.7 1.4 0 2.8-.7 4.1-.9-2.4-2.2-4.8-4.4-7.4-6.2-4.2-3.2-9-5.9-13.4-8.9-5.4-3.9-10.8-8.1-16.2-12.3-2-1.5-3.9-3.2-5.8-4.9 3.9 1.9 7.6 4.1 11.4 5.8 6.1 3 12.1 5.8 18.1 8.7 3.1 1.4 6 2.9 9 4.3 2.2.9 4.4 1.6 6.6 2.4 1.4.5 2.9 1 4.3 1.4-.5-2.3-1.8-3.7-3.4-5.2-1.8-1.7-4.2-2.8-5.9-4.8-1.2-1.4-1.1-3.9-2.4-5.1-1.6-1.7-3.9-2.2-5.8-3.2-4.6-2.3-9.3-4-13.6-6.6-3.7-2.1-6.9-5.1-10.2-7.3-9.5-6.9-16.4-11.7-21.4-20-5.3-8.5-9.4-19.3-17.3-25.9-2.8-2.5-7.6-5.8-11.3-8.7.9 2.8 1.5 5.1 2.7 8.4 1.3 3.2 3.3 8 5 11.2 1.4 3.3 3.2 5.6 4.4 8.6 1.3 3.1 2.1 6.6 2.5 9 .4 2.2.5 3.2-.1 4.8-.6 1.6-1.9 3.5-3.5 4.2-2.6 1.5-5.6 2.1-8.4 1.9-4.7-.1-9.3-1.5-13.8-2.5-3.9-.8-7.9-1.8-11.9-2.9-3.8-1.1-7.7-2.6-11.5-3.7-5.5-1.3-11-2.3-16.5-3.5 0-3.3-.4-6.8 0-10.1.6-5.3 1.6-10.4 3.3-15.2 1.6-5 4.8-9.3 6.7-13.9 1.6-4.3 2.5-8.9 3.8-13.3 1.6-5.8 3.1-11.6 4.5-17.5 1.4-7 2.4-14.2 4.1-21.4.7-3 1.6-5.8 3-8.5 2-4.4 2.9-4.8 6.9-6.1 1.1-.2 1.8-.3 2.3-1.8 1.9-.4 2.5-.2 4.2.4-1.3-1.6-2.3-2.4-4.6-2.1-1-.7-1.5-1.1-2.6-.3-1.3 1.1-1.9 1.1-2.8 1.2.4-.7.7-1.5 1.2-2.4.5-.7 1-1.4 1.6-2 .5-.3 1.2-.4 1.8-.5 1-.4.8 0 1.8-.7 1.4.1 2.5.2 3.9.8-1.4-1.5-1.9-1.7-3.9-2.4-.6-.7-1.4-1.1-2.5-.7-1.5.2-1.5.7-2.6 1.6-.6.7-1.3 1.3-2.2 1.8.7-1.3 1.3-2.8 2.2-4.1.6-.8.9-.9 1.8-1.5 1.5-.8 2.6-.2 3.2-2.1.7-.5 2.2-1.4 3.5-1.6-1.3-1.1-2.3-.7-4-.4-3.3-1.8-6.4 4.1-7.2 5.4-.6.8-1.5 1.5-2.3 2.4.2-13.4 1.3-26.8.7-40-.5-11.6-1.2-23.2-4.2-34.4-5.5-20.1-12.4-40.2-21.1-59.3-1.6-3.3-3.2-6.6-4.9-9.9h119.7l.2-.2L489.2 256 413 388.9l-6.4 11.2z"/></svg>