<svg xmlns="http://www.w3.org/2000/svg" width="512" height="512" viewBox="0 0 512 512"><path opacity=".8" fill="#46B3E3" d="M373.29 51.407l-.252.186H138.624l-117.46 204.5 117.46 204.5H373.45l34.7-60.48 6.408-11.17 76.277-132.946L373.29 51.407zm74.24 225.472c-2.462 0-6.75 3.685-11.093 3.685-4.337 0-10.51 4.336-14.142 4.336-3.77 0-9.842-.622-12.967 1.91-3.023 2.535-27.73 4.93-27.73 4.93s.57 7.4 4.266 7.4c3.698 0 3.698 10.47 8.038 11.14 4.25.565 10.427 7.42 10.427 13.013 0 0-2.964 4.4.32 10.398 3.203 6.02 8.773 10.188 8.773 12.97 0 2.797-5.57-.384-5.57-.384s-5.985 2.276-11.09.384c-5.082-1.79-11.164-3.264-11.164-11.09 0-7.874-.895-12.127-8.27-16.23-7.396-4.165-10.605-2.71-15.697-7.905-5.098-5.005-6.57-11.085-6.57-11.085s-12.48 2.294-11.487 10.26c.898 7.83 2.707 20.807 2.707 22.6 0 1.976 1.494 4.674 4.68 6.985 3.2 2.213 13.875 9.265 13.488 10.653-.515 1.39-5.12.416-5.12.416s-6.973 1.88-13.467 1.88c-6.486 0-12.055-1.473-12.055-5.56 0-4.188-4.6-9.28-7.38-17.977-2.813-8.876-6.008-13.466-5.17-15.846l.97-2.326s-7.377.42-11.556-2.307c-4.207-2.698-11.092-2.698-15.284-2.698-4.188 0-7.4 1.72-7.4 1.72s2.292 10.768 1.01 15.293c-1.497 4.673-2.778 8.878 1.7 13.954 4.69 5.01 19.072 12.548 19.072 14.84 0 2.315-9.76.906-9.76.906s-16.203 1.41-19.38 0c-3.192-1.473-8.4-10.736-8.4-15.262 0-4.672.486-8.272-4.56-13.446-5.085-5.098-7.9-17.106-9.306-18.006-1.41-.99-7.355-1.395-9.67-1.815-2.292-.565-4.173-1.97-4.173-1.97s-5.615 9.21-11.074 11.12c-5.61 1.894-9.304 2.864-11.216 6.97-1.766 4.184-9.158 6.56-9.158 10.2v6.948s6.378 10.674 8.776 12.063c2.293 1.318 2.794 4.607.904 4.607h-9.268s-8.782.895-12.585-4.61c-3.593-5.662-6.38-17.623-3.593-21.326 2.717-3.7 11.603-22.762 12.48-26.887.888-4.162 9.272-8.287 9.665-11.13.512-2.732.512-4.528.512-4.528s-6.478-2.88-9.69-5.99c-3.276-3.305-3.276-8.866-12.58-6.99-9.163 1.81-47.1 6.99-70.32 5.516-23.06-1.408-53.698-5.516-65.186-10.67-11.66-5.015-10.673-7.408-10.673-7.408s9.2 4.69 15.28 4.69c5.977 0 9.173.484 9.173.484s-15.45-28.306-15.45-31.99c0-3.705 19.23 30.18 23.498 30.18h4.34l-.652-12.943-9.905-22.18 11.15 14.2s1.216-4.9-1.244-11.633c-.628-1.767-1.213-3.117-1.737-4.148l.32.393c2.933 3.647 6.42 9.776 6.42 14.087v6.888l11.77 12.96s4.238-15.51 2.36-22.875c-1.8-7.304-2.36-12.984-2.36-12.984s7.293 15.44 7.293 21.673v13.535l9.926-3.705-2.46-4.926.57-11.625 10.5 2.358s3.14-17.87 7.386-20.916c4.34-3.2 11.164-.656 11.164-.656l1.25-19.142 22.177.584s-5.5-17.904-5.5-22.844c0-4.905 24.035 2.514 24.035 2.514s-.59-20.403 1.81-23.438c2.465-3.11 28.475 7.958 30.852 7.958 2.466 0 5.58-22.238 9.967-24.788 4.248-2.377 20.91 14.37 22.798 11.17 1.896-3.046 5.574-16.015 9.205-16.015 3.76 0 12.962 8.046 17.972 14.777 4.916 6.896 9.842 15.51 9.842 15.51s10.5-21 14.193-21c3.704 0 14.13 24.704 16.09 22.226 1.81-2.532 9.79-14.19 12.33-14.19 2.46 0 10.405 27.79 10.405 32.144 0 4.344-3.7 6.716-3.7 6.716l5.597 6.736s11.152-17.256 14.203-17.256c3.13 0 5.512 17.256 8.635 17.256 3.104 0 8.6-3.046 11.724.65 3.125 3.687-1.14 26.018-4.263 27.805-3.124 1.893-9.93 6.738-9.93 6.738l8.056 6.916s-1.813-6.916.547-9.274c2.546-2.488 13.053-12.4 16.112-12.4 3.02 0 2.445 9.262 2.445 9.262l6.163-1.89s.665 11.173-1.827 12.976c-2.445 1.875-7.445 4.344-7.445 6.235v5.56l6.81 3.064s-3.7-5.59 2.467-12.324c6.164-6.88 5.483-3.018 5.483-3.018l2.56 6.72s1.218-2.543 3.095-2.543c1.808 0 1.808 7.968.594 11.167a59.555 59.555 0 0 0-1.81 5.56l4.836-1.287s-1.815-5.515.683-8.645c2.44-3.03 4.333 0 4.333 3.13 0 3.117-.568 4.91-.568 4.91s8.53 0 17.81 1.24c9.262 1.156 22.243 3.706 21.59 9.95-.57 6.063-10.443 6.063-12.955 6.063z"/><path fill="#fff" d="M383.98 36.5H131.217L4.837 256l126.38 219.5H383.98L510.363 256 383.98 36.5zm24.17 363.614l-34.7 60.48H138.623l-117.46-204.5 117.46-204.5h234.414l.25-.187 117.548 204.59-76.277 132.947-6.41 11.17zm30.74-139.247c-9.278-1.24-17.808-1.24-17.808-1.24s.568-1.795.568-4.91c0-3.13-1.892-6.16-4.334-3.13-2.498 3.13-.683 8.644-.683 8.644l-4.836 1.29s.66-2.543 1.807-5.562c1.214-3.2 1.214-11.166-.594-11.166-1.877 0-3.094 2.543-3.094 2.543l-2.562-6.72s.68-3.862-5.483 3.02c-6.16 6.734-2.462 12.324-2.462 12.324l-6.81-3.065v-5.56c0-1.89 5-4.36 7.445-6.235 2.493-1.803 1.83-12.977 1.83-12.977l-6.165 1.89s.574-9.26-2.445-9.26c-3.06 0-13.566 9.91-16.11 12.4-2.36 2.357-.548 9.273-.548 9.273l-8.057-6.916s6.807-4.845 9.932-6.736c3.122-1.786 7.387-24.12 4.262-27.804-3.123-3.696-8.62-.65-11.724-.65-3.123 0-5.506-17.255-8.635-17.255-3.05 0-14.202 17.256-14.202 17.256l-5.594-6.735s3.7-2.373 3.7-6.717c0-4.354-7.948-32.144-10.407-32.144-2.54 0-10.52 11.656-12.33 14.19-1.96 2.477-12.386-22.227-16.09-22.227-3.694 0-14.194 21-14.194 21s-4.926-8.614-9.842-15.51c-5.01-6.73-14.21-14.778-17.97-14.778-3.632 0-7.31 12.97-9.206 16.013-1.885 3.2-18.55-13.547-22.797-11.17-4.387 2.55-7.5 24.79-9.966 24.79-2.377 0-28.387-11.07-30.853-7.96-2.397 3.035-1.807 23.44-1.807 23.44s-24.037-7.42-24.037-2.516c0 4.94 5.5 22.845 5.5 22.845l-22.175-.585-1.25 19.143s-6.82-2.545-11.162.655c-4.247 3.045-7.387 20.916-7.387 20.916l-10.5-2.357-.57 11.624 2.46 4.926-9.925 3.704V247.33c0-6.235-7.292-21.674-7.292-21.674s.56 5.68 2.36 12.984c1.877 7.366-2.36 22.877-2.36 22.877l-11.77-12.96v-6.887c0-4.31-3.488-10.44-6.423-14.087l-.32-.395c.524 1.03 1.11 2.38 1.737 4.148 2.46 6.732 1.243 11.634 1.243 11.634l-11.15-14.2 9.906 22.18.653 12.944h-4.34c-4.27 0-23.5-33.885-23.5-30.182 0 3.685 15.447 31.992 15.447 31.992s-3.197-.486-9.174-.486c-6.08 0-15.28-4.69-15.28-4.69s-.988 2.395 10.672 7.41c11.488 5.153 42.127 9.26 65.186 10.67 23.22 1.472 61.158-3.706 70.32-5.517 9.305-1.873 9.305 3.69 12.58 6.99 3.213 3.11 9.69 5.99 9.69 5.99s0 1.797-.51 4.528c-.394 2.844-8.778 6.97-9.666 11.13-.877 4.126-9.763 23.187-12.48 26.888-2.79 3.703 0 15.664 3.594 21.327 3.803 5.506 12.585 4.608 12.585 4.608h9.268c1.89 0 1.39-3.29-.903-4.606-2.4-1.39-8.777-12.06-8.777-12.06v-6.95c0-3.64 7.392-6.016 9.158-10.2 1.913-4.104 5.606-5.075 11.217-6.97 5.46-1.91 11.075-11.118 11.075-11.118s1.88 1.403 4.174 1.97c2.314.42 8.26.823 9.67 1.814 1.404.9 4.22 12.907 9.304 18.005 5.048 5.174 4.563 8.774 4.563 13.447 0 4.524 5.208 13.788 8.4 15.26 3.177 1.41 19.38 0 19.38 0s9.76 1.41 9.76-.904c0-2.293-14.38-9.83-19.072-14.84-4.48-5.077-3.197-9.282-1.7-13.955 1.282-4.524-1.01-15.292-1.01-15.292s3.212-1.72 7.4-1.72c4.193 0 11.078 0 15.285 2.698 4.18 2.727 11.556 2.307 11.556 2.307l-.97 2.33c-.837 2.38 2.36 6.97 5.17 15.846 2.78 8.697 7.38 13.79 7.38 17.978 0 4.087 5.567 5.56 12.054 5.56 6.494 0 13.47-1.88 13.47-1.88s4.603.975 5.118-.416c.387-1.39-10.287-8.44-13.488-10.652-3.186-2.312-4.68-5.01-4.68-6.984 0-1.794-1.81-14.77-2.707-22.6-.992-7.967 11.488-10.262 11.488-10.262s1.472 6.08 6.57 11.085c5.092 5.193 8.3 3.74 15.694 7.902 7.376 4.105 8.27 8.358 8.27 16.23 0 7.828 6.082 9.302 11.164 11.094 5.104 1.893 11.09-.384 11.09-.384s5.57 3.18 5.57.384c0-2.782-5.57-6.95-8.776-12.97-3.283-5.996-.32-10.397-.32-10.397 0-5.596-6.18-12.448-10.43-13.014-4.34-.67-4.34-11.14-8.037-11.14-3.693 0-4.264-7.4-4.264-7.4s24.705-2.395 27.728-4.93c3.125-2.53 9.196-1.908 12.967-1.908 3.63 0 9.806-4.336 14.143-4.336 4.342 0 8.63-3.688 11.092-3.688 2.51 0 12.384 0 12.952-6.064.652-6.243-12.33-8.793-21.59-9.947z"/></svg>