<svg xmlns="http://www.w3.org/2000/svg" width="512" height="512" viewBox="0 0 512 512"><style>.st0{fill:#fff}.st1{opacity:.8;fill:#46b3e3}</style><path class="st1" d="M375 48.5l-.3.2H137L17.8 256.1 137 463.5h238.2l35.2-61.3 6.5-11.3L494.2 256 375 48.5z"/><path class="st0" d="M477.4 201.5l-38.7-67.2-56.3-97.8H129.6L3.2 256l126.4 219.5h252.8L508.8 256l-31.4-54.5zM353.5 391.7c-1.2.4-2.3.8-3.4 1.2-1 .5-1.7 1.6-2.4 2.4-8 3.3-9.4 12.5-9.4 12.5 1.2-.3 1.9-.5 2.6-.8 2.6-1 5.1-1 7.7 0 .2.1.4.1.6.2.9.6 1.7 1.1 2.5 1.5 2 1 7.3-1.6 11-3.7-.5 1.2-1 2.4-1.5 3.5-.1.2-.2.4-.2.5l-1.5 3.6c2.2-.3 3.9-.9 5.6-1.6.9-.1 2-.3 3.1-.4 2 1.2 4.6.9 6.3-.8 6.3-.8 6.4-3.7 8.4-9 1.7-4.5.6-6.2.3-11.1.1-.8.3-1.6.5-2.5.4-1.6.8-3.2 1-4.7.2-1.3-.3-2.9.3-3.8 1-1.6.9-3.2.5-4.7-.1-.7-.3-1.5-.6-2.3 0-.7.1-1.4.1-2.1.4.3.8.6 1.3.9.4-2.7-.5-4.9-1.9-6.8-1.1-5.7-3.5-10.9-3.5-18.8 0-9.3-4.3-11.2-4.3-11.2s-1-13.4-3.7-23.4c-.7-2.7-1.6-5.4-2.4-8-.6-3.2-1.4-6.3-2.6-9.3-.4-2.3-.5-4.4-.2-6.4 1.4-2.5 3.3-4.7 4.7-7.1 3.6-6.4 7.1-12.7 10.5-19.2v-.1c2.7-3.8 5.1-6.7 6.2-8 2.6-1.1 4.9-3.2 6.1-6 1.1-2.5 2.5-4.8 3.7-7.2 10.4-.3 46.4-19.7 63.4-29.6l26.8 46.7L413 388.9l-6.4 11.2-34.7 60.5H137L19.6 256.1 137 51.6h234.4l.3-.2 46 80.1c-18.5-2.6-37.9-5.8-54.8-9.5-35.9-8-71.2.7-93.8 10.6-2.5 1.1-5.2 2.3-8 3.6-.4-.5-.7-.3-1.5.3.2.1.3.1.5.2-5.9 2.7-12.6 5.5-19.5 8.5h-.1c-2.4 1-4.9 2.1-7.4 3.1-.1-.2-.3-.4-.5-.7 0 .3 0 .5.1.8-3.3 1.4-6.6 2.7-10 4.1h-.1c-2.6 1-5.2 2-7.9 3-.1-.2-.3-.3-.4-.5-.1.1-.2.2-.3.2.1.2.1.3.2.5-6.7 2.5-13.6 5.1-20.7 7.4-.1-.1-.1-.2-.1-.4l-1.2.9c-1.5.5-3.1 1-4.6 1.5v-.1s0 .1-.2.1c-2 .6-4.2 1.3-6.3 1.9-1.1-.3-2 0-2.5.8l-5.1 1.5c-2.2.6-4.3 1.2-6.2 1.6-.3 0-.7.1-1 .2-1.7.4-3.4.6-4.9.9-2.1-.4-4.2-.6-6.3 0-.8-.4-1.6-.5-2.4-.5-.7 0-1.4.4-2 .3-2.2-.2-4.4-.7-6.6-.6-1.4 0-2.7.8-4.1 1.2v-.5h-2.6c-.4 0-.8.2-1.2.4-.5 0-1.1-.1-1.6-.2-.2-.2-.3-.4-.4-.8-.5.3-1.1.4-1.5.6-9.6-.9-18.2-1-31.6 6.7-6.3 3.6-11 7.4-14.7 11.4-1 .7-2 1.6-3 2.3-1 1.2-2.4 2.2-3.2 3.6-2 3.7-3.6 7.5-5.5 11.3-.9 4.2-2.1 8.4-2.8 12.6-1.1 6-1.7 12.1-2.7 18.1-.9 5.6-1.4 11.1.1 16.6 0 .3.2.5.2.8.1.6.3 1.1.5 1.4.2.7.5 1.4.8 2.1-1.4 4.5-1.2 8.5-.2 11.9.5 3.2 1.3 6.3 3.8 9 2.2 2.4 4.4 4.9 6.2 7.6.6 2.8 1.4 8.6 4.9 13.4 1.9 6.5 6.5 10.7 13.4 12.6 3.5 1 6.4 2.6 8.4 5.8 1.2 1.8 5.5 7.2 5.4 7.6.2-.1 1.1 1.7 1.1 1.7.4.6 1.2 1.7 2 2.9 1.6 2.7 2.9 5.6 4.8 7.9 1.7 2 4.5 6.2 4.9 6.8.5.8 1.3 2.8 2 2.9 1 1.9 5.3 3 6.7 2.7 2.5-.1 7.2-4.9 7.6-6.3.3-.4 1.2-4.1 1.2-5.7 0-2.2.4-4.7-.4-6.6-1.2-3.2-3.2-6.1-4.9-9.2-.9-1.6-2.6-3.3-2.6-5 0-3.6-1-6.7-2.3-9.8-2.3-7.6-7.8-19.8-11-28-1.3-7.2-2.1-14.6-5-21.5.4-.8.5-2.4.4-4.1.2-1.3.5-2.6.4-3.9-.2-1.3-.4-2.6-.7-3.9 4.2.4 1.7-4.9 1.7-12.4.2-1.2.4-2.5.7-3.7.9-3.8 1.9-7.5 5-10.4 2.2-2 5.1-2.2 7.8-3 4.2-1.2 8.3-.6 11.9 1.4 3.7 1.9 7.1 4.7 10.5 7.2 4.3 3.4 8.4 6.9 12.6 10.4.7.6 1.5 1.2 1.9 2 1.8 2.9 3.4 6 5.2 8.9.5.9 1.2 1.5 2 2.1 2.3 1.7 4.6 3.5 7.5 4.4 2.4.8 4.6 2.4 6.8 3.6.3.2.6.6.8 1 2.9 4.5 6.1 8.4 11.1 10.7 1.3.6 2.4 1.5 3.6 2.4-3.4 3.7-6.6 7.1-9.8 10.6-3.7 4.1-6 8.8-6 14.5 0 .6-.1 1.1-.1 1.7-.3 2.2-.5 4-.6 5.4-.2 1.6-.5 3.1-.9 4.7-1.7 5.7-1.6 10.3-.8 13.8.1.2.1.6.2.9.7 3.4 2.4 6.3 5.7 8.3 0 0-1-10.6-1-12.9.9 5.5 3.4 9.3 6.1 9.6 0-2.2-2.3-4.4-.3-6.8 1.4 1.6 2.6 3.1 4.2 4.9.1-.9.3-1.1.2-1.4-.7-2.9-2.7-5.9.1-8.7.2-.2.1-.6.1-.9-.2-1.9-.3-3.8-.7-5.6-.2-.7-.3-1.4-.5-2.1v-4c.1-5.5 5.9-11.2 8.5-13.6.5-.4.9-.7 1.4-1.1-.7 2.3-1.8 4.5-2.7 6.7-.8 1.9-1.8 4-2 6v2.2c-1.9 5.2-2.4 9.3-2 16-.6 1.4-.6 2.7.2 3.8-.1 2.1-.9 3.9-2.1 5.4-.1.2-.2.4-.4.5-2.9 3.3-7.5 5-9 5.5-.2.1-.4.1-.6.2 10.5 6.9 19.7-7.2 19.7-7.2-.9 3-2.5 5.5-4.6 7.4.9-.6 1.7-1.2 2.4-1.9-1.1 1.6-2.3 2.8-3.5 3.7-.1-.2-.3-.3-.4-.5-1.1.9-2.4 1.7-3.8 2.3 7.8 1.4 15.1-3.4 17.2-7.3 1.9-2.1 3-4.7 4.1-7.2-.6-1.2-1.5-2.3-1.4-3.3.3-2.3-.3-4.2-1.1-6.2-.2-2-.6-4-1.3-6.1-.1-.3-.1-.6-.2-1 .1-1.8.5-3.6 1.5-5.4 1.6-2.9 2.8-5.9 5.3-8.2 1.5-1.4 3-2.9 4.3-4.5 2.4-2.2 4.6-4.3 6.4-6.3 6.7-7.3 1.3-19.9 1.3-19.9 4 1.1 8.1 1.9 12.1 2.6 3.9.8 8 1.5 11.3 2 5.9.9 16.3-.4 22.2-1.3-.4.7-.8 1.3-1 1.9-2.1 5-4.3 10-6.3 15.1-1.2.7-1.6 2-1.4 3.9-1.7 5.2-2.2 10.5 0 15.9 2.3 5.4 3.5 11 4.6 16.8.4 2.6 1.4 4.7 2.8 6.6.2.3.5.6.8.8 1.2 1.3 2.7 2.4 4.5 3.4 1.7.9 3.4 1.6 5.3 2.6.4-2.8-3.1-4.7-.7-7.3.8.8 1.4 1.2 1.9 1.7-.1-2-.2-3.9-.3-5.9l1.5.4c2.1.9 3.7 2.7 6.3 2l-.5-5c0-.1 0-.3.1-.3.2-.2.3-.5.4-.8.2-.2.5-.6.6-1.3 1-2.6.6-5.2-1.1-7.9-.1-.2-.2-.4-.4-.6-1.3-4.3-3.5-9.5-5.3-14 .4-.6.7-1.5.8-2.2.2-1.2 0-2.4 0-3.6-.1-2.9 1.7-4.8 3.3-7 1.1 2.3 2.1 4.3 3 6.2 1-3.7 2-7.1 2.8-10.1 3.6.7 6.6 1.6 9.6 1.7 1.4.2 2.2.4 2.7 1.7 1 2.5 2 5.1 4.5 6.7 0 0 8.1 21.9 11.4 31.2 1.8 4.9 6.9 10.4 11.3 14.3l.2.2c2.9 2.6 5.5 5.3 6 9.6.3 2.4 1.4 5.2 3.8 6.3.8 1.1 1.7 1.6 2.5 1.9.6.8 1 1.7 1.4 2.6 1.7 4.9 3 9.9 4.4 14.8.2.6 0 1.3-.1 1.9-.4 2.2-1.1 4.5-1.1 6.8 0 1.1.2 1.9.6 2.5-.2.4-.3.7-.3.7-1.1 3.1-2.1 5.8-3 8.4-.8-.2-1.3-.6-1.7-.4-1.6.5-3.2 1.1-4.8 1.7l-.3.3zM72.9 223.2c.1-1.3.3-2.6.6-3.9-.2 1.3-.3 2.6-.6 3.9z"/></svg>