<svg xmlns="http://www.w3.org/2000/svg" width="512" height="512" viewBox="0 0 512 512"><path opacity=".8" fill="#46B3E3" d="M373.25 50.314l-.25.186H138.586L21.126 255l2.378 4.142c14.878-10.585 64.734-47.803 74.213-56.717 10.92-10.244 19.705-20.628 30.395-30.783 10.636-10.25 26.025-21.306 38.53-24.72 12.657-3.313 31.845-8.495 47.19-4.42 15.438 3.978 22.95 8.28 32.982 12.642 9.923 4.132 23.993 10.828 23.993 10.828 7.067 1.753 14.996 5.057 18.743 6.71 3.766 1.727 11.273 6.348 11.273 6.348s4.608-2.12 5.438-3.797c.837-1.715 1.72-3.3 4.58-3.3 2.936 0 3.7 2.854 5.81 2.854 2.12 0 4.58-3.76 7.5-3.76 2.964 0 6.342 3.38 6.342 3.38s7.926-18.82 8.37-27.624c.385-8.66-1.657-19.924 1.107-20.367 3.027-.386 9.663 14.208 10.11 19.154.444 5.04-.447 18.295 0 24.258.444 5.864 2.102 11.66 2.102 11.66s1.273.433 5.408.83c4.177.37 7.157 2.876 7.157 2.876s29.556-17.468 38.314-26.303c8.724-8.726 10.827-14.59 12.944-14.07 2.08.385 1.63 11.69-3.774 19.97-5.354 8.345-8.727 15.41-14.17 21.307-5.484 5.795-12.484 11.204-12.484 11.204s5.355 4.74 10 3.39c4.513-1.285 21.707-12.885 22.507-16.25.81-3.335 2.042 7.066-.8 12.86-2.95 5.947-7.545 12.12-7.545 12.12s13.748 10.444 12.028 25.055c-1.724 14.728-5.47 20.625-6.454 20.625-.98 0-3.852-5.514-6.71-7.385-2.785-2.03-5.1-3.072-6.594-2.03-1.533 1.198-2.577 4.222-3.64 5.806-1.2 1.51-3.24 3.23-2.535 4.716.832 1.537 1.786 5.518 3.305 5.518 1.505 0 1.337.98 5.098-1.734 3.843-2.57 5.5-4.354 6.33-3.995.77.386 1.37 7.313-.83 10.686-2.103 3.42-8.877 11.206-12.73 13.077-3.81 1.97-13.31 1.97-18.272.62-4.896-1.276-38.094-9.11-38.094-9.11s0 4.53-2.994 8.047c-3.028 3.406-7.77 3.406-8.217 6.406-.37 3.086-.605 5.806.73 12.347 1.4 6.7 1.908 17.314 4.457 22.504 2.43 5.12 10 16.935 15.518 23.124 5.42 6.24 28.89 29.113 27.897 31.31-.895 2.106-1.85 1.873-1.85 1.873s-2.347 2.39-4.268 2.626c-1.922.232-5.218.232-5.218.232s-2.11.674-4.937.674c-2.875 0-4.748-2.118-8.068-2.41-3.33-.235-5.74-.89-9.965-.89-4.302 0-6.683.654-9.016-2.648-2.32-3.254-1.37-4.296-4.226-7.373-2.938-3.09-5.96-6.084-10.77-10.37-4.734-4.285-7.067-7.078-11.74-10.264-4.804-3.07-7.603-2.763-9.552-8.627-1.873-6.054-4.006-11.464-6.832-17.645-2.81-6.074-10.247-17.75-10.247-17.75s-9.683 1.428-15.644 1.655c-5.884.293-11.288.68-11.288.68s-13.563 5.035-12.86 9.552c.725 4.444 6.685 25.733 5.257 31.692-1.44 6.035-7.618 13.122-8.82 15.228-1.21 2.163-3.53 4.806-2.84 7.726.736 3.238 1.63 10.3 1.397 11.733-.216 1.368-1.552 3.028-3.306 3.028-1.65 0-2.87-1.888-2.87-1.888s-1.872 3.53-5.407 3.53c-3.53 0-6.177-2.55-6.177-2.55s-5.188 3.995-8.25 2.394c-3.114-1.72-4.226-7.217-4.226-7.217s-4.295-1.6-5.402-3.98c-1.303-2.426-1.98-6.93-1.303-10.23.69-3.318 7.818-12.953 7.818-18.662 0-5.75 0-12.14-3.09-19.205-3.042-7.154-6.832-17.814-6.832-17.814s-3.32-.175-6.41-.694c-3.146-.522-6.155-1.227-6.155-1.227s-6.62 10.92-11.153 13.78c-4.517 2.87-10.673 6.094-15.666 10.15-4.935 4.086-8.494 7.714-8.494 7.714s-.202 3.74-.528 8.624c-.153 5.074-.594 10.482-.594 10.482s3.512 3.53 6.296 6.85c2.874 3.3 6.65 10.982 6.17 12.106-.44 1.215-1.643 1.6-1.643 1.6h-2.102s-1.652 3.88-5.514 3.88c-3.742 0-8.936-1.872-8.936-1.872s-2.923 3.455-7.052 2.785c-4.365-.664-6.685-2.784-6.685-2.784s-6.176 1.2-9.707-.233c-3.627-1.502-8.59-4.05-9.71-7.062-1.214-3.238-.538-7.884-.538-7.884s-4.518-4.746-6.33-7.83c-1.95-3.084-3.61-5.654-.737-7.77 2.856-2.264 2.856-2.03 5.195-4.486 2.41-2.66 4.513-6.945 4.513-6.945s-5.438-9.708-4.005-20.416c1.365-10.688 4.45-23.258 4.45-23.258s-44.95-4.016-72.083-5.607l98.51 171.49h234.82L490.796 254.91 373.25 50.314z"/><path fill="#fff" d="M382.38 36.5H129.618L3.238 256l126.38 219.5H382.38L508.765 256 382.38 36.5zm-243.794 423L40.083 288.006c27.134 1.592 72.083 5.607 72.083 5.607s-3.085 12.57-4.45 23.258c-1.433 10.71 4.005 20.418 4.005 20.418s-2.1 4.285-4.51 6.945c-2.34 2.458-2.34 2.224-5.194 4.487-2.874 2.114-1.212 4.685.738 7.77 1.812 3.083 6.33 7.83 6.33 7.83s-.677 4.646.536 7.884c1.12 3.012 6.083 5.56 9.71 7.062 3.53 1.434 9.706.235 9.706.235s2.32 2.12 6.685 2.786c4.13.67 7.054-2.784 7.054-2.784s5.193 1.873 8.936 1.873c3.86 0 5.514-3.88 5.514-3.88h2.104s1.202-.385 1.643-1.6c.48-1.124-3.294-8.807-6.17-12.105-2.782-3.32-6.294-6.85-6.294-6.85s.44-5.41.594-10.483c.325-4.883.526-8.627.526-8.627s3.56-3.628 8.494-7.713c4.992-4.058 11.148-7.28 15.666-10.152 4.532-2.858 11.153-13.78 11.153-13.78s3.006.705 6.154 1.228c3.09.52 6.41.695 6.41.695s3.79 10.66 6.832 17.815c3.09 7.063 3.09 13.454 3.09 19.204 0 5.71-7.13 15.344-7.818 18.663-.677 3.3 0 7.803 1.302 10.228 1.107 2.382 5.404 3.98 5.404 3.98s1.11 5.498 4.226 7.218c3.062 1.602 8.25-2.393 8.25-2.393s2.646 2.55 6.177 2.55c3.534 0 5.41-3.532 5.41-3.532s1.215 1.89 2.867 1.89c1.754 0 3.09-1.66 3.306-3.028.23-1.436-.66-8.497-1.398-11.735-.69-2.92 1.63-5.562 2.84-7.726 1.203-2.105 7.38-9.192 8.82-15.23 1.43-5.96-4.53-27.246-5.255-31.69-.703-4.517 12.86-9.553 12.86-9.553s5.404-.386 11.287-.678c5.96-.23 15.644-1.657 15.644-1.657s7.438 11.676 10.25 17.75c2.826 6.18 4.96 11.59 6.83 17.644 1.95 5.864 4.75 5.556 9.555 8.627 4.672 3.186 7.005 5.98 11.74 10.264 4.81 4.285 7.83 7.28 10.77 10.367 2.854 3.077 1.905 4.12 4.226 7.374 2.333 3.303 4.714 2.647 9.017 2.647 4.226 0 6.636.655 9.965.89 3.32.293 5.193 2.41 8.067 2.41 2.825 0 4.934-.675 4.934-.675s3.296 0 5.218-.23c1.92-.235 4.27-2.626 4.27-2.626s.953.233 1.848-1.873c.994-2.195-22.477-25.067-27.895-31.31-5.52-6.19-13.09-18.004-15.52-23.12-2.548-5.19-3.055-15.804-4.455-22.505-1.338-6.54-1.103-9.26-.733-12.348.445-3 5.188-3 8.217-6.406 2.994-3.516 2.994-8.046 2.994-8.046s33.197 7.834 38.094 9.11c4.964 1.35 14.464 1.35 18.273-.62 3.853-1.87 10.626-9.656 12.73-13.075 2.198-3.374 1.6-10.3.828-10.687-.828-.36-2.486 1.425-6.33 3.994-3.76 2.716-3.592 1.734-5.097 1.734-1.52 0-2.473-3.98-3.305-5.517-.702-1.485 1.338-3.206 2.537-4.714 1.063-1.585 2.107-4.608 3.64-5.806 1.495-1.043 3.81 0 6.594 2.03 2.86 1.87 5.73 7.382 6.71 7.382.984 0 4.73-5.898 6.455-20.626 1.72-14.61-12.03-25.054-12.03-25.054s4.595-6.173 7.546-12.12c2.843-5.794 1.61-16.195.8-12.86-.8 3.365-17.993 14.964-22.506 16.25-4.645 1.352-10-3.39-10-3.39s7-5.408 12.485-11.204c5.44-5.897 8.814-12.962 14.167-21.306 5.404-8.28 5.854-19.586 3.774-19.97-2.116-.52-4.22 5.343-12.944 14.072-8.76 8.833-38.314 26.302-38.314 26.302s-2.98-2.505-7.155-2.875c-4.135-.398-5.41-.833-5.41-.833s-1.656-5.794-2.103-11.66c-.444-5.96.447-19.216 0-24.257-.444-4.946-7.08-19.54-10.108-19.154-2.765.443-.723 11.708-1.107 20.367-.445 8.804-8.37 27.625-8.37 27.625s-3.378-3.38-6.343-3.38c-2.918 0-5.376 3.76-7.498 3.76-2.11 0-2.876-2.854-5.81-2.854-2.86 0-3.746 1.584-4.58 3.3-.83 1.677-5.44 3.797-5.44 3.797s-7.51-4.62-11.272-6.347c-3.747-1.654-11.676-4.958-18.743-6.71 0 0-14.07-6.697-23.993-10.83-10.03-4.36-17.544-8.664-32.98-12.64-15.347-4.075-34.534 1.106-47.192 4.42-12.504 3.413-27.894 14.47-38.53 24.72-10.688 10.154-19.475 20.54-30.394 30.782-9.48 8.914-59.335 46.132-74.213 56.717L21.126 255l117.46-204.5H373l.25-.186 117.546 204.593L373.41 459.5H138.587z"/></svg>