<svg xmlns="http://www.w3.org/2000/svg" width="512" height="512" viewBox="0 0 512 512"><path opacity=".8" fill="#46B3E3" d="M373.135 50.43l-.252.188H138.47L61.34 184.896c14.474 1.504 43.236 7.355 39.244 6.498 9.956 2.14 36.5 6.03 46.12 5.142 9.577-.854 29.712-7.32 29.712-7.32 15.092-4.135 26.86-12.626 34.497-15.197 7.472-2.465 10.806-2.837 14.648-4.125 3.79-1.32 13.44-5.1 21.88-5.9 8.347-.86 14.01-.648 21.334.373 7.278 1.155 19.13 4.36 24.21 0 5.013-4.148 6.45-15.316 10.677-22.745 4.22-7.247 10.36-17.923 22.786-20.188 12.363-2.298 23.908-2.592 29.725-.284 5.956 2.26 14.14 10.175 14.14 10.175s5.914-1.172 9.83 1.02c4.006 2.326 5.947 5.74 5.947 5.74s3.926-2.33 6.773.294c2.76 2.476 3.615 7.31 4.504 9.43.774 2.303 1.87 4.79 5.856 6.52 3.844 1.75 8.42 6.467 12.65 10.765 4.204 4.14 9.294 10.896 7.63 18.238-1.674 7.335-2.547 9.518-4.785 10.11-.55.207-1.54 0-2.922-.31l-2.98 2.917v-3.555c-.146-.08-.3-.08-.433-.227l-2.77 2.606v-3.48c-.062 0-.21 0-.21-.08l-3.407 2.127v-3.22a1.069 1.069 0 0 0-.504-.13l-2.415 1.887v-2.76c-.12 0-.287-.225-.437-.225l-3.023 1.976v-3.128c-.088-.09-.236-.09-.385-.15l-2.46 2.103v-3.203c-.135-.06-.354-.22-.563-.283l-2.405 1.665v-2.89a1.287 1.287 0 0 0-.442-.283l-2.388 1.45.21-2.697c-.21-.146-.298-.22-.52-.283l-2.446 1.294.472-2.46c-.114-.225-.25-.225-.352-.3l-2.376 1.467v-3.07c-.162-.06-.37-.147-.43-.278l-3.277 1.168.938-2.608c-.072-.088-.28-.16-.433-.312l-3.11 1.317v-3.42c0-.078-.103-.078-.103-.078s-5.293 3.616-5.13 9.52l1.01.856-.804.744c0 .37.074.86.148 1.23l2.33 1.084-1.75 1.674c0 .295.076.588.146.877l3.203.874-2.327 2.62c.147.43.224.713.356 1.006l3.5.43-1.966 3.19c.14.313.285.596.508.963l3.987-.59-2.105 3.57c.22.21.43.506.596.8l4.71.504-2.25 3.057c.134.148.282.278.356.43l3.406-.22-1.586 2.828c.074.297.195.426.433.67l3.48.34-1.9 2.55c.222.282.37.592.535.857l3.687.314-2.617 3.04c.29 2.265-.147 4-1.737 4.95-1.972 1.064-10.375 5.01-14.603 1.864-4.3-3.036-13.315-17.136-19.48-19.376-6.167-2.326-8.437-2.77-10.952-3.647-2.55-.783-4.21-3.11-6.496-1.675-2.223 1.394-6.732 9.31-9.266 11.487-2.546 2.347-5.884 5.592-5.884 5.592s.51 2.347 0 5.755c-.592 3.336-1.467 5.87-1.467 8.926 0 3.11.59 7.335 4.003 9.305 3.35 2.034 6.668 3.62 11.25 3.62 4.504 0 8.137-.56 10.375-1.452 2.27-.713 4.526-3.93 7.86-2.46 3.427 1.436 2.814 2.46 2.814 3.617v2.55s-.77-1.958-2.813-1.958c-1.96 0-3.636 1.957-5.027 1.957-1.437 0-2.52 1.748-2.52 1.748s3.037.284 6.183.803c3.037.592 3.912 1.167 5.086 2.827 1.066 1.664 1.066 5.293 1.066 5.293s-2.24-2.252-3.116-2.755c-.812-.596-2.18.803-4.21.504-1.973-.21-3.35-2.242-4.73-2.242-1.45 0-6.466.356-7.32 0-.88-.308-1.958-1.686-6.2-1.686-4.213 0-7.32.31-10.73-.775-3.355-1.166-12.353-10.76-12.353-10.76l-1.958 3.2s1.38.436 2.533 3.56c1.096 3.11.297 5.35.297 5.35s-.574-3.32-1.965-3.9c-1.443-.573-1.96-.867-4.01-.573-1.97.267-3.603.858-3.603 2.55 0 1.66.578 2.73.86 5.278.28 2.55.582 5.957.582 5.957s-1.175-3.408-2.908-4.268c-1.676-.816-2.776-1.69-3.563-1.9-.874-.294-1.956-3.408-2.845-2.34-.858 1.114 1.11 4.09 1.614 7.06.503 3.13 1.31 5.382-1.026 10.39-2.327 4.94-9.456 10.744-13.946 14.32-4.567 3.473-16.562 12.184-22.52 14.732-5.943 2.61-13.946 7.923-13.71 11.895.203 3.797 3.48 10.39 6.4 14.094 2.954 3.556 5.367 4.656 7.31 11.123 1.914 6.33 5.174 15.996 5.174 22.025 0 5.947.785 8.7 0 11.227-.947 2.62-3.926 3.715-3.926 3.715s-1.096 4.864-3.413 6.394c-2.325 1.45-7.5 1.45-7.5 1.45s3.42-2.98 3.42-5.1c0-2.09-1.066-4.488-2.116-5.958-1.068-1.604-2.608-4.268-2.608-7.017 0-2.827.873-5.437.74-7.184-.297-1.603-.74-3.355-2.18-3.355-1.54 0-.295 4.215-1.97 7.28-1.737 2.966-3.62 9.415-5.802 10.275-2.117.743-6.182.743-6.182.743s4.064-2.67 4.064-4.952c0-2.09-1.452-5.26-1.452-7.177 0-1.953.592-6.37 1.336-8.775.574-2.34 2.234-8.135 1.864-12.352-.43-4.293-2.978-8.58-5.59-12.304-2.548-3.522-5.308-7.764-6.612-7.764-1.303 0-5.29 10.628-5.29 15.104 0 4.582-.22 7.294-.877 10.79-.66 3.325-2.32 11.744-1.966 20.683.425 9-1.012 12.336 4.295 17.776 5.353 5.308 9.575 7.646 13.283 10.02 3.56 2.343 8.137 2.777 8.927 7.27.87 4.52 1.09 8.94 1.09 8.94s-2.103-3.354-3.2-4.424c-1.067-1.167-2.18 0-2.18 0s1.973 3.19 1.973 5.965c0 2.73-1.974 9.633-1.974 9.633s-2.12-4.12-2.965-5.585c-.78-1.53-4.508.22-7.486-1.32-2.964-1.44-5.734-3.398-7.25-5.356-1.485-1.896-3.214-4.22-4.283-4-1.04.147 0 5.09-1.04 7.486-1.068 2.33-6.464 6.168-6.464 6.168s.666-4.732.666-5.738c0-1.084-5.17-.857-7.07-3.407-1.94-2.604-3.408-13.286-5.724-18.59-2.427-5.306-5.584-10.394-5.584-13.934 0-3.65 3.157-16.06 3.157-19.467 0-3.396-3.024-7.396-3.024-11.98 0-4.52 3.853-11.297 3.853-14.115 0-2.753-4.86-19.45-5.1-32.52-.21-13.007 6.82-20.92 6.82-20.92s-11.31-4.15-14.723-7.13c-3.407-2.98-4.077-11.096-6.833-13.137-2.815-2.195-3.17-4.373-7.458-6.037-4.3-1.733-36.19-10.964-45.54-14.095-7.55-2.538-22.674-9.985-34.146-16.115 5.18 2.768-25.27-11.33-37.462-17.073l-29.47 51.31 117.46 204.5h234.826L490.68 255.022 373.135 50.43z"/><path fill="#fff" d="M382.38 36.5H129.618L3.238 256l126.38 219.5H382.38L508.765 256 382.38 36.5zm-243.794 423L21.126 255l29.47-51.31c12.193 5.744 42.643 19.842 37.462 17.073 11.47 6.13 26.595 13.577 34.146 16.115 9.35 3.13 41.238 12.36 45.54 14.096 4.285 1.664 4.64 3.842 7.457 6.037 2.76 2.044 3.43 10.16 6.837 13.14 3.412 2.98 14.722 7.132 14.722 7.132s-7.03 7.91-6.82 20.917c.24 13.072 5.1 29.77 5.1 32.52 0 2.818-3.853 9.597-3.853 14.115 0 4.582 3.023 8.582 3.023 11.98 0 3.407-3.16 15.813-3.16 19.465 0 3.54 3.16 8.63 5.586 13.933 2.316 5.305 3.782 15.984 5.724 18.592 1.9 2.552 7.068 2.324 7.068 3.408 0 1.006-.666 5.738-.666 5.738s5.396-3.836 6.464-6.166c1.04-2.398 0-7.34 1.04-7.486 1.068-.22 2.797 2.104 4.282 4 1.517 1.957 4.286 3.916 7.25 5.355 2.978 1.542 6.705-.208 7.486 1.32.846 1.468 2.964 5.586 2.964 5.586s1.974-6.906 1.974-9.634c0-2.774-1.974-5.965-1.974-5.965s1.114-1.167 2.182 0c1.096 1.07 3.2 4.425 3.2 4.425s-.222-4.424-1.09-8.94c-.792-4.492-5.37-4.927-8.93-7.27-3.707-2.372-7.928-4.712-13.283-10.02-5.308-5.44-3.87-8.776-4.295-17.776-.356-8.94 1.304-17.355 1.965-20.683.656-3.496.878-6.21.878-10.79 0-4.477 3.985-15.105 5.29-15.105 1.304 0 4.064 4.24 6.612 7.765 2.612 3.725 5.16 8.01 5.59 12.303.37 4.217-1.29 10.014-1.863 12.354-.745 2.405-1.336 6.823-1.336 8.776 0 1.916 1.452 5.088 1.452 7.178 0 2.28-4.064 4.953-4.064 4.953s4.064 0 6.182-.742c2.183-.86 4.064-7.31 5.803-10.274 1.677-3.065.43-7.28 1.97-7.28 1.44 0 1.885 1.752 2.18 3.357.135 1.746-.74 4.355-.74 7.183 0 2.75 1.54 5.41 2.61 7.017 1.05 1.47 2.117 3.866 2.117 5.956 0 2.12-3.42 5.1-3.42 5.1s5.173 0 7.498-1.45c2.315-1.53 3.41-6.394 3.41-6.394s2.98-1.094 3.927-3.717c.788-2.524 0-5.278 0-11.227 0-6.03-3.26-15.695-5.173-22.025-1.94-6.466-4.355-7.564-7.31-11.122-2.917-3.703-6.196-10.295-6.4-14.09-.236-3.975 7.768-9.285 13.708-11.896 5.96-2.55 17.955-11.262 22.52-14.734 4.49-3.577 11.62-9.38 13.945-14.32 2.337-5.01 1.532-7.26 1.028-10.392-.504-2.967-2.475-5.943-1.612-7.058.888-1.068 1.97 2.046 2.842 2.34.786.21 1.887 1.085 3.56 1.9 1.734.86 2.908 4.27 2.908 4.27s-.302-3.408-.582-5.96c-.28-2.55-.86-3.617-.86-5.276 0-1.69 1.632-2.283 3.603-2.55 2.05-.293 2.564 0 4.006.576 1.394.58 1.965 3.9 1.965 3.9s.804-2.24-.293-5.35c-1.155-3.126-2.532-3.56-2.532-3.56l1.955-3.2s8.997 9.592 12.354 10.76c3.408 1.083 6.517.773 10.73.773 4.243 0 5.32 1.377 6.198 1.685.855.356 5.874 0 7.324 0 1.378 0 2.757 2.032 4.726 2.24 2.035.3 3.397-1.1 4.213-.502.873.503 3.117 2.756 3.117 2.756s0-3.63-1.068-5.295c-1.176-1.66-2.05-2.235-5.086-2.827-3.145-.52-6.182-.803-6.182-.803s1.082-1.748 2.52-1.748c1.39 0 3.064-1.96 5.025-1.96 2.044 0 2.816 1.957 2.816 1.957v-2.55c0-1.158.61-2.182-2.815-3.617-3.334-1.47-5.59 1.748-7.86 2.46-2.237.893-5.872 1.45-10.376 1.45-4.582 0-7.9-1.584-11.248-3.616-3.412-1.97-4.004-6.193-4.004-9.305 0-3.06.875-5.59 1.467-8.928.507-3.408 0-5.755 0-5.755s3.337-3.245 5.886-5.592c2.533-2.178 7.04-10.094 9.267-11.487 2.283-1.435 3.943.89 6.496 1.675 2.516.874 4.784 1.32 10.952 3.646 6.163 2.24 15.18 16.34 19.48 19.376 4.226 3.146 12.63-.8 14.6-1.863 1.593-.953 2.03-2.687 1.738-4.952l2.617-3.036-3.685-.314c-.17-.266-.314-.575-.538-.857l1.896-2.55-3.482-.34c-.235-.243-.354-.372-.43-.67l1.586-2.828-3.408.22c-.073-.152-.223-.282-.354-.43l2.252-3.057-4.713-.504c-.167-.294-.374-.592-.6-.8l2.106-3.572-3.983.593a7.996 7.996 0 0 1-.51-.964l1.965-3.19-3.5-.43c-.134-.29-.207-.573-.355-1.003l2.326-2.622-3.207-.874c-.068-.29-.148-.582-.148-.876l1.754-1.674-2.333-1.086c-.072-.372-.146-.86-.146-1.23l.806-.744-1.014-.856c-.16-5.902 5.134-9.52 5.134-9.52s.103 0 .103.078v3.42l3.11-1.318c.15.15.36.224.435.312l-.94 2.608 3.28-1.168c.06.132.268.22.43.277v3.068l2.377-1.463c.102.074.234.074.35.298l-.47 2.462 2.444-1.294c.223.065.31.137.518.285l-.207 2.695 2.385-1.45c.168.072.298.137.445.283v2.89l2.404-1.665c.207.063.43.226.56.283v3.204l2.46-2.104c.15.062.298.062.386.15v3.128l3.024-1.974c.145 0 .313.225.434.225v2.76l2.414-1.885c.208 0 .355.058.505.132v3.22l3.408-2.127c0 .08.148.08.21.08v3.48l2.77-2.608c.134.147.286.147.435.227v3.554l2.978-2.918c1.383.31 2.373.518 2.922.31 2.238-.592 3.113-2.774 4.787-10.11 1.665-7.342-3.427-14.1-7.63-18.237-4.23-4.3-8.81-9.015-12.65-10.765-3.983-1.733-5.08-4.22-5.856-6.523-.888-2.12-1.742-6.95-4.504-9.427-2.85-2.624-6.773-.294-6.773-.294s-1.943-3.414-5.947-5.74c-3.915-2.19-9.83-1.02-9.83-1.02s-8.183-7.916-14.14-10.174c-5.814-2.308-17.36-2.014-29.725.284-12.424 2.266-18.562 12.94-22.785 20.188-4.225 7.43-5.664 18.597-10.676 22.744-5.08 4.36-16.933 1.157-24.21 0-7.323-1.02-12.986-1.23-21.332-.37-8.438.8-18.088 4.578-21.88 5.898-3.84 1.288-7.175 1.66-14.647 4.122-7.638 2.57-19.405 11.062-34.497 15.198 0 0-20.134 6.466-29.71 7.32-9.62.89-36.165-3.003-46.12-5.143 3.99.858-24.77-4.993-39.244-6.498l77.11-134.28H373l.25-.186 117.545 204.593L373.41 459.5H138.586z"/></svg>