<svg id="Layer_1" xmlns="http://www.w3.org/2000/svg" width="512" height="512" viewBox="0 0 512 512"><style>.st0{fill:#fff}.st1{opacity:.8;fill:#46b3e3}</style><path class="st1" d="M376.7 45.4l-.3.2H135.2L14.3 256.1l120.9 210.5h241.7l35.7-62.2 6.6-11.5L497.7 256l-121-210.6z"/><path class="st0" d="M382.4 36.5H129.6L3.2 256l126.4 219.5h252.8L508.8 256 382.4 36.5zm60.7 282c-4 .1-8 .7-12 .3-3.3-.3-6.5-.2-9.7.9-2.9 1.1-5.8.8-8.7-.4-3-1.3-6-2.7-9-4.1-.7-.3-1.4-.6-2.1-.8-3.2-.9-6.4-2-9.6-2.8-2.8-.8-5.7-1.4-8.6-2-1.9-.4-3.8-.4-5.7-.9-6.5-1.9-12.6-5.1-18.5-8.3-2.6-1.4-5.2-2.9-7.8-4.3-3.5-1.8-7.1-3.4-10.6-5.2-2.7-1.4-5.3-3-7.9-4.4-1.4-.7-2.9-1.4-4.4-1.9-5.2-1.7-10.5-2.9-15.4-5.7-1.8-1-4.1-1.3-6.1-1.9-2.7-.7-5.4-1.4-8.1-2-1.4-.3-2.7-.7-4.1-.8-3.6-.2-7.2-.4-10.8-.4-3.9 0-7.9-.6-11.6.3-4.1 1.1-7.8.7-11.7 0-2.9-.4-5.8-.2-8.6-.5-2.2-.2-4.6-.2-6.4-1.1-2-1-3.6-2.3-6-2.3-1.6 0-3.5-.5-4.7-1.5-2.9-2.7-5.6-5.7-8.2-8.8-1.4-1.6-2.3-3.7-3.6-5.5-1.6-2.3-3.5-4.4-5.2-6.6-.6-.9-1.1-2.2-1.2-3.3-.3-3.2-.1-6.3-.5-9.4-.1-1.4-1.1-2.7-1.3-4.1-.6-3.5-1.5-7-1.4-10.6.1-1.9 0-4.7 3-5.6 1.5-.5 3-1.2 4.4-1.9 2.4-1.2 4.6-2.5 7-3.8 2-1.1 4.1-2.2 6.2-3.2 1.4-.7 2.8-1.3 4.2-1.8 2.1-.7 4.3-.9 5.7-3 .3-.4 1.2-.5 1.9-.5 3.6.1 7.2.6 10.8.3 7.9-.6 13.8-5.8 20.1-9.7 4.4-2.8 9.2-4.9 13.8-7.4 3.5-1.9 7.9-1.8 11.1-4.9 2-2 5.2-2.7 7.8-4 1.3-.6 2.8-1 3.7-2 2.1-2.2 3.8-4.8 5.7-7.1.3-.4.7-.8 1-1.2.8-1.3 1.7-2.6 2.2-4.1.4-1.1.2-2.4.4-3.6.2-1.7-.4-3.3-2.1-3.7-2-.5-4.1-.7-6.1-.8-2.4-.1-4.8 0-7.2 0 0-.2-.1-.4-.1-.6 1.8-1 3.7-2.1 5.5-3.1 3.7-2 7.4-3.8 10.2-7.3 2.2-2.8 2.2-5.6 1.1-8.6-.9-2.3-2.4-4.4-3.5-6.6-.7-1.4-1.3-2.9-1.9-4.3-.7-1.7-1.2-3.5-2.2-5-1.8-2.7-4.3-4.4-7.5-5.6-3.7-1.4-7.4-2-11.2-2.1-3.2-.1-6.4.2-9.6.2-2.9 0-5.8-.1-8.7-.3-2.8-.3-5.5-.8-8.3-1.3-3-.6-5.9-1.9-8.8-1.9-4.8 0-9.7-.9-14.6.7-4 1.2-8.3-.6-12.5-1.2-1.8-.3-3.5-1.1-5.3-1.4-2.6-.5-5.3-.9-8-1.3-.1 0-.3 0-.4-.1-2.6-1.5-4.7-.7-6.9 1.1-1.7 1.3-3.9 1.9-6.1 2.8-1.4 2.5-2.6 5.5-6.4 6.4.3.6.6 1.1.7 1.4-.9 2.6-2.7 3.1-4.8 3.1-.3 1-.7 2.1-1.3 2.3-1 .2-2.2-.3-3.4-.5.4 2.4-3.2 5.9-6.4 6.5.7 1.6 0 3.9-1.9 4.4-5 1.6-6.1 7.2-10.4 9.5-.1.1-.1.3-.2.4-2.1 3.1-4.2 6.2-6.4 9.2-1.7 2.5-3.6 4.9-5.4 7.3-3 4-2.7 9.1-5 13.4-.3.7-.1 1.7-.4 2.3-1 2.3-2.7 4.5-3.1 7-1 7.1-1.6 14.3-2.3 21.6-.4 4-.8 7.9-.9 11.9-.1 4.5.1 9 .1 13.6 0 2 0 4 .1 6 .1 2.4.2 4.9.4 7.3.3 3.2.9 6.4 1.3 9.6.6 4.2.8 8.4 1.6 12.6.8 4.6 2 9.1 3.1 13.6.6 2.7 1.1 5.3 1.8 7.9.3 1.3 1.2 2.5 1.7 3.8 1.2 3.3 2.2 6.6 3.3 9.8 2 5.7 4.1 11.4 6.1 17.1.8 2.3 1.4 4.7 2.4 6.8 1.6 3.2 3.4 6.4 5.5 9.3 4 6 5.9 12.6 6.9 19.7.5 3.5 2 6.9 3.4 10.1 1.6 3.4 3.6 6.5 5.6 9.6 2.2 3.4 4.5 6.7 7.1 9.8 1.4 1.7 3.5 2.9 5.1 4.5.4.3.5 1.7.2 2-2.4 2.5-4.8 5.1-7.6 7.2-2.2 1.7-2.8 3.7-3.2 6.3-.7 4.8-1.2 9.6-2.5 14.2-1.2 4.3-3.7 8.2-2.3 12.9.1.3 0 .6-.1.9-.8 2.6-.5 4.8 1.8 6.6 1.1.9 2.5 2.1 2.7 3.3.3 2.5 1.5 4.4 3 6.3 1.5 2.1 3 4.2 4 6.6 1.8 3.8 3.4 5 7.4 4.2 3.9-.8 7.8-.8 11.7.4 1.1.3 2.4.4 3.4.1 4.7-1.6 9.3-3.4 14.1-5.2.2.5.4 1.2.6 1.9.9 2.7 1.6 5.5 2.8 8H138.6L21.1 255 138.6 50.5H373l.3-.2 117.5 204.6-35.7 62.2c-3.9.7-7.9 1.2-12 1.4z"/></svg>